<?xml version='1.0' encoding='utf-8'?>
<svg xmlns="http://www.w3.org/2000/svg" version="1.1" width="600px" height="976px" viewBox="0 0 600 976"> <g id="layer1"> <g style="fill:rgb(0,0,0); fill-opacity:1.0; stroke-linejoin: miter"> <path d="M221.28812,467.23737C221.57832,467.23737,221.86313,467.25458,222.14207,467.2896L222.14207,467.2896C221.86313,467.25458,221.57832,467.23737,221.28812,467.23737C220.99525,467.23737,220.69685,467.25494,220.39339,467.2896L220.39333,467.2896C220.69682,467.25494,220.99522,467.23737,221.28812,467.23737 Z"/> </g> <g style="fill:rgb(0,0,0); fill-opacity:1.0; stroke-linejoin: miter"> <path d="M195.55518,487.95282L195.2189,488.73138L195.2189,488.73138L195.55518,487.95282 Z"/> </g> <g style="fill:rgb(0,0,0); fill-opacity:1.0; stroke-linejoin: miter"> <path d="M195.1619,488.86334L195.14726,488.89728L195.1619,488.86334 Z"/> </g> <g style="fill:rgb(0,0,0); fill-opacity:1.0; stroke-linejoin: miter"> <path d="M213.1483,496.9272L212.45023,497.10876L212.4502,497.10876L213.1483,496.9272 Z"/> </g> <g style="fill:rgb(0,0,0); fill-opacity:1.0; stroke-linejoin: miter"> <path d="M233.19116,499.3094L233.19135,499.3095L233.19135,499.3095L233.19116,499.3094 Z"/> </g> <g style="fill:rgb(0,0,0); fill-opacity:1.0; stroke-linejoin: miter"> <path d="M205.07655,501.73956L205.05919,501.74097L205.05913,501.74097L205.07655,501.73956 Z"/> </g> <g style="fill:rgb(0,0,0); fill-opacity:1.0; stroke-linejoin: miter"> <path d="M239.44525,499.97205L239.64374,502.10016L239.44525,499.97205 Z"/> </g> <g style="fill:rgb(0,0,0); fill-opacity:1.0; stroke-linejoin: miter"> <path d="M198.6426,502.86554L198.56926,505.81763L198.56926,505.81763L198.6426,502.86554 Z"/> </g> <g style="fill:rgb(0,0,0); fill-opacity:1.0; stroke-linejoin: miter"> <path d="M203.16418,524.7152L201.36586,541.8316L203.16418,524.7152 Z"/> </g> <g style="fill:rgb(0,0,0); fill-opacity:1.0; stroke-linejoin: miter"> <path d="M250.53464,556.2237L250.81815,559.8729L250.53464,556.2237 Z"/> </g> <g style="fill:rgb(0,0,0); fill-opacity:1.0; stroke-linejoin: miter"> <path d="M220.39362,654.0553L223.07126,654.7048C223.26381,654.70264,223.45862,654.70044,223.64323,654.70044C223.77377,654.70044,223.89925,654.70154,224.01527,654.70447L224.01527,654.70447C223.89925,654.70154,223.77377,654.70044,223.64323,654.70044C223.45862,654.70044,223.26381,654.70264,223.07126,654.7048L223.07126,654.7048L220.3936,654.0553 Z"/> </g> <g style="fill:rgb(0,0,0); fill-opacity:1.0; stroke-linejoin: miter"> <path d="M221.28818,467.04095C220.32535,467.04095,219.30971,467.22595,218.25752,467.57562C215.97473,468.33423,213.48729,469.87976,212.43797,472.04675C211.40053,474.18933,211.78236,476.9198,212.16962,479.61438L212.16962,479.61438C211.97552,479.55212,211.77226,479.49304,211.58417,479.48615C211.57199,479.48572,211.55995,479.48547,211.54794,479.48547C211.22348,479.48547,210.9571,479.65106,210.82289,480.13086C210.59894,480.93164,210.71861,482.68384,210.98164,483.75238C211.24916,484.83923,211.67068,485.24664,212.08455,485.6444L212.08455,485.6444L212.08537,485.6452L212.08542,485.64526C212.09662,485.656,212.10968,485.66357,212.12352,485.66803L212.12248,485.66803C212.16634,486.6543,212.21898,487.64587,212.45216,488.4433C212.69772,489.28302,213.14197,489.90356,213.5762,490.51007L213.57512,490.51007C213.54898,491.722,213.52097,492.92462,213.43214,493.96002C213.34265,495.0039,213.19124,495.8786,213.03772,496.7533L213.03664,496.7533L212.39444,496.9203C212.38861,496.9218,212.38298,496.92383,212.37753,496.9264C211.54114,497.31787,210.70149,497.71088,209.4592,498.48914C208.23201,499.258,206.61166,500.403,204.99059,501.54962L204.9896,501.54962L201.08638,501.8678C201.04932,501.87085,201.01712,501.8946,201.00325,501.92908C200.72527,502.62103,200.45073,503.30365,200.04681,503.94855C199.694,504.51184,199.24135,505.04816,198.7715,505.58594L198.7715,505.58594L198.84135,502.77258C198.84174,502.75763,198.83875,502.74335,198.83304,502.73047L198.83214,502.73047C199.28864,501.8479,199.7437,500.94543,200.00713,499.7497C200.27704,498.52472,200.34512,496.99426,200.41127,495.47308L200.41032,495.47308C201.36162,494.35675,202.32343,493.2281,202.76126,492.42377C203.20013,491.61755,203.13312,491.09583,202.92221,490.86615C202.83546,490.77167,202.73027,490.7356,202.62146,490.7356C202.46729,490.7356,202.30055,490.80945,202.16064,490.86987C202.12033,490.88733,202.0976,490.92853,202.10188,490.9701L202.1009,490.9701C202.09848,490.97284,202.09615,490.97583,202.094,490.97894C201.45103,491.90448,200.81473,492.82,200.32607,493.3443C199.8633,493.84076,199.53703,493.98163,199.20871,494.11267L199.20871,494.11267L198.01823,493.58264L198.01823,493.58264L198.68883,492.40216L198.68973,492.40216C198.73816,492.4878,198.82678,492.56836,199.00502,492.62762C199.01888,492.63226,199.03319,492.63672,199.04807,492.64105C199.15018,492.67084,199.30077,492.69965,199.46053,492.69965C199.75323,492.69965,200.07663,492.60303,200.1885,492.23877C200.34297,491.73596,200.03735,490.72144,199.75415,489.76617C199.75018,489.75275,199.74359,489.74084,199.73512,489.73083L199.73419,489.73083C199.73499,489.68933,199.70921,489.65027,199.66785,489.63605C199.61205,489.61688,199.55576,489.5976,199.49939,489.57886C199.23846,489.49207,198.96524,489.41296,198.69133,489.41296C198.44745,489.41296,198.20302,489.47565,197.96619,489.65137C197.4317,490.04785,196.94939,491.02325,196.48404,491.9583C196.46571,491.99518,196.47266,492.03796,196.49826,492.06702L196.49826,492.06702C195.92935,491.80188,195.33025,491.5078,195.09885,490.9585C194.87717,490.4323,195.00264,489.68756,195.14284,488.96558L195.14372,488.96558C195.152,488.99188,195.17122,489.0146,195.1985,489.02637C195.21118,489.0318,195.22438,489.03442,195.23737,489.03442C195.27536,489.03442,195.31154,489.0122,195.32758,488.9751L195.70192,488.1084L195.70284,488.1084C195.89694,488.15906,196.10402,488.20886,196.28976,488.20886C196.36247,488.20886,196.43192,488.20123,196.49603,488.18304C196.75629,488.1092,196.91216,487.86932,197.04314,487.6739L197.04314,487.67395L197.04398,487.67267C197.07419,487.62762,197.06213,487.56665,197.01709,487.53644C197.0003,487.52515,196.9813,487.51978,196.96248,487.51978C196.93454,487.51978,196.90707,487.53168,196.88797,487.55396L196.88797,487.55396C196.58601,486.77966,196.30093,486.09155,195.94527,485.91266C195.89104,485.88538,195.8352,485.87048,195.7761,485.87048C195.72649,485.87048,195.67456,485.88098,195.6193,485.90344C195.02766,486.14417,194.18153,487.63324,193.3009,489.1978L193.29776,489.20337C193.27971,489.2354,193.2464,489.25342,193.21208,489.25342C193.21027,489.25342,193.20842,489.25342,193.20659,489.2533L193.2057,489.2533L193.32245,490.21057C193.329,490.2644,193.2907,490.31335,193.23685,490.31995C193.2328,490.32043,193.22879,490.32068,193.22485,490.32068C193.1759,490.32068,193.13354,490.28412,193.12746,490.2343L192.47873,484.91388L192.47787,484.91388C192.36005,484.9171,192.2418,484.91882,192.12321,484.91882C191.95076,484.91882,191.77751,484.91528,191.6036,484.9082C191.3437,484.89764,191.08597,484.87927,190.83063,484.85333L190.82979,484.85333L191.3239,493.5509L191.32474,493.5509C191.34126,493.5905,191.33026,493.63782,191.29494,493.6657L190.53343,494.2671C190.51547,494.2813,190.49397,494.28827,190.47261,494.28827C190.44548,494.28827,190.4185,494.27704,190.39917,494.25525C189.7872,493.56653,189.18939,492.89532,188.48895,492.5069C188.05879,492.2683,187.59134,492.13763,187.15646,492.13763C187.12743,492.13763,187.0985,492.13824,187.06978,492.1394C186.83098,492.14917,186.60454,492.1996,186.4012,492.29358C186.33063,492.3263,186.26233,492.36444,186.19722,492.40686C185.68285,492.74213,185.45297,493.2613,185.59146,493.47375C185.61584,493.5111,185.65485,493.54633,185.71329,493.58057C185.84036,493.65497,186.02998,493.70917,186.27783,493.779C186.63411,493.87946,187.08557,494.0063,187.54231,494.27368C188.4551,494.80804,189.37474,495.89453,190.19087,497.25104C191.00803,498.6092,191.72784,500.24927,192.44446,501.88165C192.4506,501.8957,192.4534,501.911,192.4526,501.92633L191.46767,520.58984L191.46767,520.58984C191.46016,520.54425,191.42108,520.5089,191.37315,520.5078C191.37234,520.50775,191.37154,520.50775,191.37074,520.50775C191.3176,520.50775,191.27391,520.5502,191.27263,520.6036C191.22243,522.69324,191.17093,524.8038,191.5198,526.24884C191.54906,526.36993,191.58109,526.4864,191.61546,526.5988C191.80753,527.2266,192.07289,527.72833,192.32954,528.21405C192.57866,528.68555,192.8191,529.14105,192.98755,529.6918C193.07562,529.9796,193.14433,530.2945,193.2157,530.62177C193.44485,531.6728,193.69864,532.8632,194.75067,533.44995C195.25668,533.7321,195.94131,533.8714,196.67305,533.8714C197.36458,533.8714,198.09811,533.747,198.7626,533.5013C199.28961,533.3064,199.77814,533.03357,200.17154,532.6812C201.11682,531.83453,201.49242,530.54663,201.7235,529.35754C201.78413,529.04553,201.83508,528.7386,201.88347,528.4472C201.92767,528.1807,201.96974,527.92755,202.01529,527.6931C202.24834,526.49396,202.57454,525.7799,202.91997,525.15063L202.92093,525.15063L201.17206,541.7964L201.17113,541.7964C200.26306,543.6662,199.34442,545.5591,199.20943,547.2714C199.07407,548.98834,199.72647,550.51483,200.36888,552.01514L200.36795,552.01514L200.35057,555.8482C200.35046,555.87616,200.36227,555.90283,200.38303,555.9216L200.95802,556.44L200.95709,556.44C200.63664,556.9253,200.31511,557.43866,200.04424,558.31647C199.75757,559.2454,199.52745,560.5844,198.59096,566.20337L198.59096,566.2034L194.59064,590.2864L194.59064,590.28644L194.36226,591.6626L192.34175,601.77527C192.33647,601.8017,192.34229,601.82916,192.35786,601.85126C192.37344,601.8732,192.39737,601.88794,192.42406,601.8917L195.0194,602.2651L195.01851,602.2651C193.62233,604.98694,192.23021,607.745,191.39658,612.3618C190.5514,617.04254,190.28036,623.6347,190.00952,630.2161L190.0095,630.2167L189.65506,639.9751L189.65424,639.9751C189.14128,640.3683,188.61435,640.7861,188.32533,641.6621C188.03395,642.5453,187.98584,643.8947,187.93765,645.221C187.93642,645.2553,187.95293,645.2862,187.979,645.3047L187.97818,645.3047L187.83492,647.5694L187.83409,647.5694C187.5,648.41736,187.1689,649.25256,186.61635,650.02545C186.3974,650.3318,186.1431,650.6292,185.88371,650.9324C185.48563,651.39777,185.07515,651.877,184.786,652.40643C184.30878,653.2802,184.16628,654.2807,184.13869,654.98535C184.111,655.69336,184.1983,656.16125,184.8342,656.4526C185.36604,656.6963,186.28731,656.8176,187.22795,656.9245C187.27594,656.9299,187.32463,656.93536,187.37344,656.94086L187.37265,656.94086C187.38881,656.9685,187.41815,656.9877,187.45248,656.98944C188.95587,657.0659,190.46796,657.14325,191.7464,657.14325C192.79146,657.14325,193.6804,657.0916,194.28076,656.9457C195.43198,656.66583,195.55983,656.0317,195.58026,655.4168C195.58229,655.3555,195.58334,655.2945,195.58437,655.2345C195.5854,655.17505,195.58641,655.11615,195.5883,655.0586C195.58939,655.02606,195.59077,654.9938,195.5924,654.96155C195.60968,654.62195,195.65634,654.3027,195.70122,653.996C195.74121,653.7226,195.78009,653.45746,195.79301,653.2034C195.8213,652.6475,195.7252,652.14984,195.62968,651.66504L195.6288,651.66504C196.37411,649.32196,197.1234,646.9651,197.27989,645.5755C197.43512,644.197,197.00932,643.7447,196.56975,643.33344L196.56886,643.33344C196.74605,641.9144,196.92325,640.4836,196.84967,639.7373C196.77892,639.0198,196.46904,638.8926,196.15292,638.8427L196.15204,638.8427L199.80656,626.4164L199.80675,626.4164C200.59123,624.22754,201.37776,622.03186,201.94684,618.9181C202.51436,615.813,202.86539,611.7955,203.2154,607.7821L203.21669,607.76733L203.21573,607.76733C203.40321,607.28644,203.58458,606.82544,203.8201,606.5162C203.92767,606.3749,204.04762,606.264,204.18279,606.13934C204.3412,605.9932,204.51683,605.83154,204.69615,605.59106C205.00339,605.1792,205.31993,604.5376,205.63191,603.8931L205.6329,603.8931C206.42479,603.89984,207.21727,603.90643,207.98422,603.90643C209.97635,603.90643,211.7964,603.86206,212.98674,603.6603C214.3257,603.4333,214.87956,603.0056,215.2871,602.60675C215.33818,602.55676,215.38673,602.50745,215.43369,602.45984C215.47896,602.4139,215.52252,602.3696,215.5663,602.3268C216.01175,601.8908,216.48586,601.59033,216.96924,601.2844C217.01506,601.2554,217.0287,601.19476,216.9997,601.14886C216.9902,601.13385,216.97731,601.1224,216.96265,601.1146L216.96153,601.1146C217.07454,600.05206,217.19875,598.9537,217.61589,596.89935C218.02896,594.865,218.72906,591.8942,219.44382,588.8752L219.44495,588.8752C219.98036,591.99316,220.49792,595.04694,220.67012,596.89484C220.85028,598.82837,220.65123,599.42993,220.45486,600.03217C220.44429,600.0646,220.4513,600.1001,220.47333,600.1261L221.34377,601.15283L221.34259,601.15283C221.34506,601.1938,221.37323,601.2304,221.415,601.24176L221.42885,601.2455L221.4277,601.2455C221.44385,601.256,221.46252,601.2613,221.48131,601.2613C221.48283,601.2613,221.48436,601.2613,221.48589,601.2612L221.48703,601.2612L221.98613,601.39624L221.98499,601.39624C222.08806,602.3918,222.19487,603.3947,222.4315,604.2135C222.5151,604.503,222.61469,604.76855,222.71173,605.02747C222.80702,605.28174,222.8997,605.52924,222.97566,605.7921C223.04704,606.0392,223.10341,606.2992,223.13214,606.5881C223.22328,607.5039,223.03894,608.7176,222.85106,609.94995L222.85106,609.94995C222.3076,613.07947,221.76305,616.2154,221.59978,619.74524C221.43648,623.2748,221.65453,627.1966,221.87212,631.1119L221.8718,631.1119L221.6569,639.50555L221.53026,639.63116C221.51146,639.6498,221.50096,639.67523,221.50119,639.7017L221.51465,641.2688L221.51349,641.2688C221.35994,641.2815,221.1947,641.30426,221.03271,641.3842L221.03271,641.38416C220.84126,641.4787,220.66,641.6508,220.49326,641.8081C220.4538,641.84534,220.45197,641.9075,220.48918,641.9469C220.50525,641.9639,220.52597,641.97394,220.5475,641.97687L220.54636,641.97687L220.73027,642.98816L220.72911,642.98816C220.30281,643.72723,219.86601,644.49164,219.81563,645.32153C219.76468,646.1607,220.10992,647.0563,220.44336,647.9249L220.44223,647.9249C220.57562,648.68005,220.70378,649.4197,220.57732,650.2537L220.57732,650.2537C220.57672,650.2577,220.5761,650.2617,220.5755,650.2656C220.50645,650.7128,220.36494,651.18835,220.23021,651.64056C220.11292,652.0341,219.99983,652.41296,219.95107,652.7289C219.8442,653.4214,220.04549,653.8118,220.23761,654.1835L220.2377,654.1836L220.2385,654.1852L220.23851,654.1852C220.25159,654.2103,220.2749,654.2286,220.30249,654.2353L223.03671,654.8985C223.04436,654.9004,223.05219,654.9013,223.06001,654.9013C223.06033,654.9013,223.06064,654.9013,223.06097,654.9013C223.26176,654.8991,223.46,654.897,223.64447,654.897C224.03177,654.897,224.35843,654.9062,224.52087,654.9431L224.52086,654.9431C224.52667,654.9444,224.5317,654.9456,224.53683,654.9469L224.53687,654.9469C224.58632,654.9598,224.60226,654.97217,224.60623,654.9763L224.60506,654.9763C224.6046,654.98083,224.60277,654.99194,224.59569,655.0176C224.59102,655.03436,224.58179,655.0656,224.58078,655.09717C224.58022,655.11383,224.58168,655.1336,224.58842,655.1545C224.59816,655.1847,224.61594,655.2081,224.63493,655.2257L224.63493,655.2257C224.6824,655.2695,224.75435,655.2912,224.815,655.305L224.81503,655.305C224.89641,655.3234,224.99605,655.3351,225.08844,655.346L225.0933,655.3464L225.29199,655.3599L225.29082,655.3599C227.1614,655.8086,229.03183,656.2422,230.8023,656.4248C231.30981,656.4771,231.81395,656.50946,232.29527,656.50946C233.59586,656.50946,234.72992,656.2731,235.31387,655.55524C236.11603,654.5692,235.84082,652.7363,234.97018,651.5678C234.7875,651.32263,234.57858,651.1061,234.35376,650.909C233.92145,650.52997,233.42682,650.2202,232.94452,649.9178C232.4681,649.61914,232.00401,649.3279,231.60736,648.98016C230.59854,648.0958,230.0145,646.83417,229.678,645.945C229.34323,645.0605,229.25957,644.5619,229.17511,644.0593C229.171,644.0348,229.15811,644.014,229.14023,643.99945L229.13899,643.99945C229.28278,642.949,229.42064,641.8957,229.38097,641.0362C229.33978,640.14417,229.10782,639.463,228.87779,638.7962L228.87657,638.7962L230.13718,632.11035L230.13719,632.11035C231.22711,626.8743,232.31815,621.633,232.85718,617.52563C233.39658,613.41534,233.38327,610.4408,233.3052,608.2375L233.3052,608.23737C233.22897,606.0862,233.09094,604.6691,232.95169,603.27136L232.95041,603.27136L241.43225,602.6976C241.48563,602.694,241.52628,602.6483,241.52374,602.5949L239.28903,556.0851L239.28772,556.0851C239.77509,555.9407,240.29605,555.7582,240.469,555.0181C240.64087,554.2823,240.46466,552.9838,240.29285,551.71545L240.29153,551.71545C240.52142,550.59076,240.74835,549.45526,240.18396,547.01886C239.95325,546.023,239.59021,544.80896,239.20456,543.51935C238.6459,541.6511,238.0393,539.6222,237.70984,537.84607C237.15335,534.8461,237.38705,532.5636,237.56421,530.85425C237.7197,529.3534,237.8302,528.3061,237.9357,527.3094L237.93701,527.3094C238.42526,528.9421,238.88705,530.5542,239.04706,532.0166C239.11118,532.6028,239.12692,533.1658,239.14389,533.7746C239.17276,534.8109,239.20508,535.97217,239.48862,537.5759C239.93793,540.1175,241.01794,543.76904,242.01077,546.5157C242.36655,547.5,242.71121,548.36835,243.0362,549.14734C243.35321,549.9072,243.65219,550.5836,243.92343,551.19727C244.15079,551.7116,244.35837,552.1812,244.5433,552.62445C245.17477,554.1381,245.53516,555.3292,245.89673,556.5244C245.89935,556.5331,245.90308,556.5412,245.90771,556.54846L245.90634,556.54846C246.18188,558.3192,246.45071,560.0674,246.41211,561.22205C246.37347,562.3764,246.0274,562.93036,245.56464,563.5976C245.52643,563.65265,245.4892,563.706,245.44968,563.7626C245.00848,564.39453,244.49289,565.13086,244.30246,565.95465C244.2121,566.34564,244.19559,566.7526,244.20667,567.14233C244.21426,567.41064,244.23502,567.67285,244.2543,567.9166C244.27148,568.1337,244.28738,568.3354,244.29257,568.51746C244.3118,569.1961,244.18161,569.60846,244.04779,570.0303L244.04779,570.0303L244.04697,570.0329L244.04681,570.0334C243.64227,571.3311,243.2258,572.66187,243.24536,573.293C243.24652,573.3304,243.24918,573.3658,243.25333,573.3993C243.30115,573.7854,243.54001,573.8831,243.80078,573.8831C243.85529,573.8831,243.91077,573.87885,243.96567,573.872C244.02722,573.86444,244.09045,573.8536,244.15338,573.84174L244.15472,573.84174C244.17255,573.8572,244.19547,573.8658,244.21912,573.8658C244.23135,573.8658,244.24377,573.86346,244.25583,573.8586C244.80789,573.63605,245.40256,573.4002,245.72076,572.8642C245.99268,572.40607,246.05502,571.73956,246.0969,571.1701C246.10025,571.12463,246.10345,571.0796,246.10663,571.0352C246.10971,570.9919,246.11276,570.94916,246.11584,570.90717C246.15778,570.3371,246.20746,569.88684,246.25806,569.4467L246.25668,569.4467C246.37979,569.43774,246.49985,569.4309,246.6156,569.4309C246.65295,569.4309,246.68988,569.43164,246.72626,569.43317C247.104,569.4495,247.40439,569.5569,247.57663,569.9164C247.85681,570.50116,247.81332,571.7537,247.69809,572.5402C247.60217,573.19476,247.46164,573.49115,247.31384,573.7375L247.31247,573.7375C247.30591,573.7429,247.30002,573.74927,247.29492,573.75653C246.55038,574.8161,245.80643,575.8748,245.21976,576.6837C245.17276,576.74854,245.12598,576.81274,245.08109,576.87445C245.03833,576.93317,244.99603,576.99133,244.95538,577.0473C244.51639,577.6526,244.18253,578.1296,244.16187,578.49023C244.1416,578.844,244.40994,579.06305,244.68411,579.2301C244.7385,579.2632,244.79492,579.29535,244.8516,579.3267L244.85022,579.3267C244.84906,579.3509,244.85684,579.37555,244.87384,579.3953C244.89325,579.4179,244.92072,579.42957,244.94833,579.42957C244.97101,579.42957,244.99377,579.42175,245.01233,579.4058L245.02002,579.39923L245.01865,579.39923C245.05014,579.3963,245.07968,579.37823,245.09598,579.3484C245.09958,579.34174,245.10233,579.33496,245.10428,579.328L245.1029,579.328L249.33002,575.6957C249.33133,575.69446,249.33261,575.6933,249.3339,575.69214C249.71713,575.32574,250.116,574.9458,250.36755,574.351C250.4617,574.12836,250.53442,573.8778,250.59473,573.6272C250.64835,573.4046,250.69278,573.1797,250.7337,572.97235C250.76956,572.791,250.80255,572.62396,250.83704,572.48083C250.94083,572.05,251.05795,571.835,251.17862,571.64087L251.17715,571.64087C251.20123,571.6335,251.22244,571.6168,251.2351,571.5928C251.43896,571.20544,251.64456,570.8119,251.68457,569.86487C251.72415,568.9293,251.6023,567.4452,251.48154,565.97144L251.48154,565.97144L251.01395,559.85785L251.01395,559.85767L250.72665,556.1601C250.72571,556.1474,250.72229,556.13544,250.71701,556.12463L250.71558,556.12463C250.48056,553.9629,250.24533,551.7963,249.96857,548.794C249.94461,548.53424,249.92014,548.2657,249.89536,547.9943C249.86963,547.71204,249.84317,547.4217,249.81622,547.1292C249.5679,544.43567,249.25992,541.359,248.74835,538.8306C248.12714,535.7603,247.20636,533.50085,246.70154,532.32513C246.48132,531.8124,246.34003,531.50525,246.24686,531.3027C246.20074,531.20245,246.16705,531.12915,246.14127,531.06915C246.10031,530.97375,246.08069,530.91486,246.06519,530.8403C246.04434,530.7403,246.03076,530.6121,246.02118,530.467L246.0198,530.467C245.9823,528.4754,245.93799,526.48004,245.65417,524.6127C245.64362,524.54297,245.63269,524.4735,245.62146,524.40424C245.46106,523.4143,245.23828,522.4638,245.03293,521.58746C244.85574,520.83136,244.6919,520.132,244.59045,519.5058C244.39026,518.27026,244.43262,517.31696,244.50418,516.3904L244.50284,516.3904C244.53043,516.37024,244.54675,516.3363,244.5427,516.2999C244.53683,516.24805,244.531,516.19617,244.52518,516.1443L244.5238,516.1443C244.52716,516.10297,244.53052,516.0617,244.5339,516.02045C244.53644,515.9897,244.52448,515.96106,244.5037,515.9413L244.50235,515.9413C244.03674,511.8053,243.56161,507.70215,242.79608,505.36096C242.00919,502.9546,240.91013,502.39227,239.81982,501.8587L239.81848,501.8587L239.63281,499.86823C239.62827,499.81927,239.5882,499.78125,239.5391,499.77924C238.30103,499.7284,237.06726,499.6776,235.99768,499.56195C234.9596,499.44965,234.0751,499.27606,233.19116,499.09985L233.18991,499.09985C232.59482,498.8824,232.00159,498.66467,231.41364,498.42548C230.95584,498.23914,230.50174,498.03998,230.05334,497.8181C229.00626,497.29987,227.98709,496.6562,226.96275,496.0091C226.94649,495.99884,226.92834,495.9939,226.91042,495.9939C226.90544,495.9939,226.90047,495.99426,226.89557,495.995L226.89557,495.995C226.66077,495.75256,226.4334,495.42676,226.26422,494.52258C226.06259,493.44495,225.9472,491.56372,225.8313,489.67145C225.83083,489.66357,225.8294,489.65594,225.82721,489.64862L225.82602,489.64862C226.0783,489.16156,226.32512,488.66595,226.45697,488.1764C226.58386,487.70508,226.60345,487.2425,226.60954,486.79034L226.61075,486.79034C226.648,486.81335,226.68733,486.83356,226.72876,486.8485C226.78137,486.8675,226.83472,486.87762,226.88936,486.87762C227.10408,486.87762,227.3388,486.722,227.62878,486.34003C228.18758,485.60406,229.03691,483.91974,229.30042,482.7693C229.56541,481.61224,229.24382,480.96204,228.87753,480.71844C228.82838,480.68573,228.77846,480.66052,228.72781,480.6422C228.65506,480.61597,228.58276,480.60474,228.51146,480.60474C228.33136,480.60474,228.15753,480.67645,227.99817,480.75885L227.99817,480.75885C228.37668,479.23938,228.74872,477.72192,228.9201,476.41852C229.09981,475.0522,229.05972,473.91333,228.33176,472.35724C227.60878,470.81183,226.20044,468.8405,224.43501,467.8393C223.90997,467.5415,223.35419,467.33002,222.77211,467.19983C222.29391,467.0929,221.79846,467.04095,221.28818,467.04095 Z M211.54669,479.6819C211.55173,479.6819,211.55678,479.68195,211.56186,479.682L211.56186,479.682C211.55678,479.68195,211.55173,479.6819,211.54669,479.6819C211.54169,479.6819,211.53674,479.68195,211.53178,479.682L211.53145,479.682C211.53653,479.68195,211.54158,479.6819,211.54669,479.6819 Z M212.23561,479.8369C212.23528,479.8369,212.23494,479.8369,212.2346,479.8369C212.23424,479.8369,212.23389,479.8369,212.23355,479.8369 Z M228.51021,480.80084C228.52637,480.80084,228.54243,480.8017,228.55844,480.80334L228.55844,480.80334C228.54243,480.8017,228.52637,480.80084,228.51021,480.80084C228.49368,480.80084,228.47708,480.8017,228.46037,480.80334L228.46034,480.80334C228.47707,480.8017,228.49367,480.80084,228.51021,480.80084 Z M227.87389,481.03656L227.87389,481.03656C227.87384,481.03656,227.87384,481.03656,227.8738,481.03656C227.87378,481.03656,227.87375,481.03656,227.87372,481.03656 Z M212.21407,485.41644C212.21411,485.41644,212.21416,485.41644,212.2142,485.41644L212.21407,485.41644C212.21423,485.41644,212.21443,485.41644,212.2146,485.41644L212.2135,485.41644C212.2137,485.41644,212.21387,485.41644,212.21407,485.41644 Z M226.48042,486.46887C226.4807,486.46887,226.48097,486.46887,226.48126,486.46887L226.47958,486.46887C226.47986,486.46887,226.48013,486.46887,226.48042,486.46887 Z M226.41478,486.64124C226.41478,486.64124,226.41478,486.64124,226.41478,486.64124L226.41478,486.64124C226.41478,486.64124,226.41478,486.64124,226.41478,486.64124 Z M226.88947,486.68042L226.88947,486.68042C226.88873,486.68042,226.888,486.68042,226.88727,486.68042C226.88655,486.68042,226.88579,486.68042,226.88509,486.68042 Z M195.6453,487.8935C195.64555,487.8935,195.64577,487.8935,195.64601,487.8935L195.64462,487.8935C195.64484,487.8935,195.6451,487.8935,195.6453,487.8935 Z M196.29056,488.01294C196.29019,488.01294,196.28976,488.01294,196.28938,488.01294C196.28902,488.01294,196.28864,488.01294,196.28825,488.01294 Z M195.2189,488.73138L195.16353,488.85962L195.16353,488.85962C195.16782,488.8377,195.1721,488.81586,195.17638,488.79407C195.18158,488.7674,195.19711,488.74542,195.21802,488.73138 Z M198.69167,489.60938C198.78094,489.60938,198.87178,489.6192,198.96439,489.63605L198.96434,489.63605C198.87178,489.6192,198.78093,489.60938,198.69167,489.60938C198.60997,489.60938,198.52962,489.61755,198.45044,489.63605L198.45042,489.63605C198.52962,489.61755,198.60997,489.60938,198.69167,489.60938 Z M213.67586,490.29388C213.67616,490.29388,213.67647,490.29388,213.67676,490.29388L213.67586,490.29388C213.676,490.29388,213.67612,490.29388,213.67625,490.29388L213.67494,490.29388C213.67525,490.29388,213.67557,490.29388,213.67586,490.29388 Z M198.70099,492.08386C198.7124,492.08386,198.72394,492.08582,198.73506,492.09003L198.73506,492.09003C198.72394,492.08582,198.7124,492.08386,198.70099,492.08386C198.68925,492.08386,198.67764,492.086,198.66673,492.09003L198.66673,492.09003C198.67764,492.086,198.68925,492.08386,198.70099,492.08386 Z M196.70316,491.9607C196.72221,491.9884,196.72653,492.0252,196.71133,492.05786C196.69467,492.09363,196.65924,492.1147,196.62222,492.1147C196.60837,492.1147,196.59427,492.1117,196.58087,492.10547C196.57716,492.10376,196.57344,492.10205,196.56975,492.10028L196.57063,492.10028C196.57104,492.10028,196.57147,492.10028,196.57188,492.10028C196.60799,492.10028,196.6427,492.08032,196.65987,492.04584C196.67401,492.0174,196.68817,491.98907,196.70227,491.9607 Z M199.45963,492.50476C199.4587,492.50476,199.45776,492.50476,199.45682,492.50476C199.45589,492.50476,199.45497,492.50476,199.45403,492.50476 Z M199.20752,494.31744C199.2072,494.31744,199.20688,494.31744,199.20659,494.31744C199.20625,494.31744,199.20596,494.31744,199.20564,494.31744 Z M200.25378,495.3529C200.25378,495.3529,200.25378,495.3529,200.25378,495.3529L200.25378,495.3529C200.25378,495.3529,200.25378,495.3529,200.25378,495.3529 Z M227.00783,496.26984C227.00783,496.26984,227.00783,496.26984,227.00783,496.26984L227.00783,496.26984C227.00783,496.26984,227.00783,496.26984,227.00783,496.26984 Z M226.95291,496.28668L226.95291,496.28668C226.95245,496.28668,226.95201,496.28668,226.95157,496.28668C226.95111,496.28668,226.95068,496.28668,226.95023,496.28668 Z M233.02423,499.2484C233.02426,499.2484,233.02426,499.2484,233.02426,499.2484L233.02301,499.2484C233.02301,499.2484,233.02301,499.2484,233.02301,499.2484 Z M233.13803,499.28955L233.13803,499.28955C233.13803,499.28955,233.13803,499.28955,233.13803,499.28955L233.13678,499.28955C233.13678,499.28955,233.13678,499.28955,233.13678,499.28955 Z M233.25153,499.31213C233.25153,499.31213,233.25153,499.31213,233.25153,499.31213L233.25153,499.31213C233.25153,499.31213,233.25153,499.31213,233.25153,499.31213 Z M233.22592,499.3155L233.22592,499.3155C233.22562,499.3155,233.22531,499.3155,233.225,499.3155C233.2247,499.3155,233.2244,499.3155,233.22409,499.3155 Z M204.99733,501.76392L204.99733,501.76392C204.99707,501.76392,204.9968,501.76392,204.99654,501.76392C204.99626,501.76392,204.99599,501.76392,204.99573,501.76392 Z M204.94638,501.75024C204.94638,501.75024,204.94638,501.75024,204.94638,501.75024L204.94542,501.75024L204.36928,501.79718L204.36928,501.79718L201.16194,502.05872L201.16188,502.05872L204.36928,501.79718L204.36928,501.79718L204.94542,501.75024 Z M239.841,502.08783C239.841,502.08783,239.841,502.08783,239.841,502.08783L239.841,502.08783C239.841,502.08783,239.841,502.08783,239.841,502.08783 Z M239.7428,502.1892C239.74234,502.1892,239.74185,502.1892,239.74142,502.1892C239.741,502.1892,239.74051,502.1892,239.74005,502.1892 Z M198.63885,505.98462C198.63878,505.98462,198.63869,505.98462,198.63861,505.98462C198.63852,505.98462,198.63844,505.98462,198.63835,505.98462 Z M244.3265,516.1473C244.3265,516.1473,244.3265,516.14734,244.3265,516.14734L244.32648,516.14734C244.3265,516.14734,244.3265,516.1473,244.3265,516.1473 Z M203.06924,524.58875C203.07779,524.58875,203.08643,524.5898,203.09488,524.59216L203.09488,524.59216C203.08643,524.5898,203.07779,524.58875,203.06924,524.58875C203.05211,524.58875,203.03519,524.5932,203.02028,524.60175L203.02028,524.60175C203.03517,524.5932,203.05211,524.58875,203.06924,524.58875 Z M237.90717,526.7693C237.90756,526.7693,237.90799,526.7693,237.90845,526.7693L237.90585,526.7693C237.90628,526.7693,237.90671,526.7693,237.90717,526.7693 Z M237.8598,526.78143C237.8598,526.78143,237.8598,526.78143,237.8598,526.78143L237.85849,526.78143C237.85849,526.78143,237.85849,526.78143,237.85849,526.78143 Z M196.67741,533.67505L196.67741,533.67505C196.67627,533.67505,196.67513,533.67505,196.67398,533.67505C196.67284,533.67505,196.6717,533.67505,196.67058,533.67505 Z M200.56445,551.9935L200.5472,555.8051L201.09666,556.3006L200.5472,555.8051L200.5472,555.8051L200.56445,551.9935 Z M201.10114,556.30225C201.10141,556.30225,201.10173,556.30225,201.102,556.30225L201.10045,556.30225C201.10066,556.30225,201.1009,556.30225,201.10114,556.30225 Z M246.06485,556.3972C246.06485,556.3972,246.06485,556.3972,246.06485,556.3972L246.06342,556.3972C246.06342,556.3972,246.06342,556.3972,246.06342,556.3972 Z M246.17642,569.1981C246.17679,569.1981,246.17715,569.1981,246.17749,569.1981L246.17532,569.1981C246.17569,569.1981,246.17606,569.1981,246.17642,569.1981 Z M246.61578,569.2345C246.65579,569.2345,246.6955,569.2353,246.73474,569.237C246.6955,569.2353,246.65579,569.2345,246.61578,569.2345C246.57233,569.2345,246.5285,569.2354,246.48453,569.237L246.48431,569.237C246.52838,569.2354,246.57227,569.2345,246.61578,569.2345 Z M246.08267,569.26324C246.08267,569.26324,246.08267,569.26324,246.08267,569.26324L246.08264,569.26324C246.08264,569.26324,246.08264,569.26324,246.08264,569.26324 Z M244.25308,573.6242C244.25912,573.6242,244.26501,573.6247,244.27081,573.62573L244.27075,573.62573C244.26501,573.6247,244.2591,573.6242,244.25308,573.6242C244.24722,573.6242,244.24124,573.6247,244.23517,573.62573L244.23517,573.62573C244.24121,573.6247,244.24722,573.6242,244.25308,573.6242 Z M243.7934,573.6878C243.79282,573.6878,243.79227,573.6878,243.79169,573.6878C243.7911,573.6878,243.79053,573.6878,243.78995,573.6878 Z M244.27618,573.8176L244.27603,573.8177L244.276,573.8177C244.27606,573.8177,244.27612,573.8177,244.27618,573.8176 Z M249.19794,575.5502L246.80588,577.60565L244.98099,579.17377L244.98099,579.17377L246.80588,577.60565L249.19794,575.5502 Z M219.45976,588.2833C219.46043,588.2833,219.4611,588.2833,219.4618,588.2833L219.4618,588.2833C219.4611,588.2833,219.46043,588.2833,219.45976,588.2833C219.45885,588.2833,219.45795,588.2833,219.45702,588.2834L219.45668,588.2834C219.45772,588.2833,219.45874,588.2833,219.45976,588.2833 Z M220.65941,600.0419L221.53069,601.0696L222.10135,601.2239L221.53069,601.0696L221.53069,601.0696L220.6594,600.0419 Z M195.16985,602.0871C195.17009,602.0871,195.17033,602.0871,195.1706,602.0871L195.16985,602.0871C195.16989,602.0871,195.16994,602.0871,195.17,602.0871L195.16911,602.0871C195.16937,602.0871,195.16962,602.0871,195.16985,602.0871 Z M194.5552,591.69946L192.55467,601.7121L192.55467,601.7121L195.16345,602.0873L195.16336,602.0873L192.55467,601.7121L192.55467,601.7121L192.55467,601.7121L192.55467,601.7121L192.55467,601.7121L192.55467,601.7121L194.5552,591.69946 Z M239.08914,556.01697L241.32294,602.5081L241.32294,602.5081L241.32294,602.5081L241.32294,602.5081L241.32294,602.5081L241.32294,602.5081L232.87082,603.07983L241.32294,602.5081L241.32294,602.5081L239.08914,556.01697 Z M232.84409,603.0824C232.84436,603.0824,232.84467,603.0824,232.84494,603.0824L232.84323,603.0824C232.84354,603.0824,232.84381,603.0824,232.84409,603.0824 Z M205.60556,603.62415C205.6058,603.62415,205.60603,603.62415,205.6063,603.62415L205.60483,603.62415C205.60507,603.62415,205.60533,603.62415,205.60556,603.62415 Z M205.70142,603.6974C206.4719,603.70386,207.24004,603.70996,207.9826,603.70996C208.15024,603.70996,208.31654,603.70966,208.48131,603.709L208.48236,603.709C208.31726,603.70966,208.15057,603.70996,207.9826,603.70996C207.24004,603.70996,206.4719,603.70386,205.70142,603.6974L205.70042,603.6974C205.70042,603.6974,205.70042,603.6974,205.70041,603.6974 Z M221.8232,639.61725L221.69795,639.74146L221.69795,639.74146L221.7118,641.35895L221.69795,639.74146L221.69795,639.74146L221.69795,639.74146L221.69795,639.74146L221.69795,639.74146L221.8232,639.61725 Z M196.37175,643.40826L196.37175,643.40826C196.37175,643.40826,196.37175,643.40826,196.37177,643.40826L196.37175,643.40826C196.37175,643.40826,196.37175,643.40826,196.37175,643.40826 Z M229.00452,644.2285L229.00452,644.2285C229.00452,644.2285,229.00452,644.2285,229.00452,644.2285L229.00452,644.2285C229.00452,644.2285,229.00452,644.2285,229.00452,644.2285 Z M188.15068,644.799C188.15068,644.799,188.15068,644.799,188.15068,644.799L188.14986,644.799C188.14986,644.799,188.14986,644.799,188.14986,644.799 Z M224.911,655.0694C224.91443,655.0694,224.9179,655.0696,224.92137,655.06995L224.92123,655.06995C224.91782,655.0696,224.91437,655.0694,224.911,655.0694C224.90756,655.0694,224.90414,655.0696,224.90077,655.06995L224.9006,655.06995C224.90404,655.0696,224.90749,655.0694,224.911,655.0694 Z M224.78107,655.08905C224.78107,655.08905,224.7811,655.08905,224.7811,655.08905L224.78105,655.08905C224.78105,655.08905,224.78105,655.08905,224.78105,655.08905 Z M225.32225,655.16516L225.47697,655.17566L225.32225,655.16516L225.32108,655.16516C225.32108,655.16516,225.32108,655.16516,225.32106,655.16516 Z M225.55447,655.221C225.55447,655.221,225.55449,655.221,225.5545,655.221L225.55447,655.221C225.55444,655.221,225.55443,655.221,225.55443,655.221 Z M232.30328,656.3128C232.30048,656.3128,232.29767,656.3128,232.29485,656.3128C232.29204,656.3128,232.28923,656.3128,232.28639,656.3128 Z M187.6735,656.804C187.67358,656.804,187.67368,656.804,187.67377,656.804L187.6735,656.804C187.67339,656.804,187.67328,656.804,187.6732,656.804 Z M191.43137,656.9453C191.5406,656.9464,191.64827,656.9469,191.75424,656.9469C191.852,656.9469,191.94832,656.9465,192.04308,656.9455L192.04395,656.9455C191.94891,656.9465,191.8523,656.9469,191.75424,656.9469C191.648,656.9469,191.54004,656.9464,191.43051,656.9453 Z"/> </g> <g style="fill:rgb(0,0,0); fill-opacity:1.0; stroke-linejoin: miter"> <path d="M191.88962,460.48453C192.0582,460.48453,192.22755,460.48795,192.39754,460.49484C199.17856,460.77054,204.45222,466.4912,204.1765,473.27216C203.91472,479.71115,198.74352,484.79077,192.41682,485.0509L192.41681,485.0509C192.39943,485.02197,192.36774,485.00323,192.33269,485.00323C192.32872,485.00323,192.3247,485.00348,192.32068,485.0039C192.28702,485.00806,192.25941,485.02875,192.24506,485.05682L192.2442,485.05682C192.13217,485.05988,192.01974,485.0614,191.90701,485.0614C191.73843,485.0614,191.56912,485.05798,191.39914,485.05103C184.61813,484.77533,179.34453,479.05478,179.62022,472.27368C179.88904,465.6627,185.33313,460.48453,191.88962,460.48453 Z"/> </g> <g style="fill:rgb(0,0,0); fill-opacity:1.0; stroke-linejoin: miter"> <path d="M197.19408,491.35666C197.17987,491.35666,197.1658,491.3629,197.15628,491.37488Q196.55078,492.13675,196.51817,492.19785L196.51811,492.19797Q196.51343,492.20682,196.5114,492.21494L196.50943,492.21494L196.3332,492.4966L196.33061,492.50128L196.19162,492.7904L196.19083,492.79214Q196.17357,492.83203,196.15962,492.87952C196.15211,492.9051,196.16676,492.9319,196.19232,492.9394C196.19685,492.94073,196.20143,492.94135,196.20593,492.94135C196.22678,492.94135,196.246,492.9277,196.25218,492.90668Q196.26411,492.86603,196.27861,492.8322L196.27856,492.8322L196.41647,492.54535L196.41647,492.54535L196.60078,492.25076L196.54707,492.1787Q196.55396,492.17682,196.56049,492.17682Q196.57553,492.17682,196.58867,492.18692L196.58939,492.1875Q196.6199,492.2119,196.60335,492.24313L196.60335,492.24313Q196.63252,492.18887,197.23178,491.43488C197.24835,491.41403,197.2449,491.3837,197.22404,491.36713C197.21518,491.36008,197.20459,491.35666,197.19408,491.35666 Z"/> </g> <g style="fill:rgb(0,0,0); fill-opacity:1.0; stroke-linejoin: miter"> <path d="M197.10529,491.51782C197.08546,491.51782,197.06688,491.53015,197.05984,491.5499Q197.0533,491.56827,197.01878,491.60144L197.01859,491.60144Q196.83736,491.75323,196.81407,491.7816L196.81404,491.78162Q196.80757,491.7895,196.80418,491.7978L196.80222,491.7978Q196.7336,491.8852,196.39902,492.2645L196.39783,492.26587Q196.08707,492.6464,196.02716,492.82135C196.01852,492.84656,196.03197,492.87396,196.05716,492.8826C196.06233,492.88437,196.06761,492.88522,196.0728,492.88522C196.09283,492.88522,196.11154,492.87262,196.11841,492.8526Q196.17259,492.69437,196.47142,492.32828L196.47134,492.32828Q196.83067,491.9209,196.88727,491.84543L196.89351,491.82855L196.89548,491.82855Q196.8935,491.8367,196.88884,491.8425L196.88884,491.8425Q196.90746,491.8203,197.08316,491.6732L197.08562,491.67096Q197.13652,491.62204,197.1507,491.58224C197.15964,491.55716,197.14655,491.52957,197.12146,491.52063C197.11612,491.51874,197.11066,491.51782,197.10529,491.51782 Z"/> </g> <g style="fill:rgb(0,0,0); fill-opacity:1.0; stroke-linejoin: miter"> <path d="M197.02821,491.56686C197.00993,491.56686,196.99245,491.57733,196.98434,491.59506Q196.9705,491.62534,196.94806,491.64926L196.9471,491.64926Q196.71765,491.8288,196.54282,492.04886L196.54272,492.04886Q196.41998,492.18842,196.29956,492.36765L196.299,492.36765L196.17186,492.51193L196.16986,492.51434L195.95987,492.7864C195.94359,492.8075,195.9475,492.8378,195.96858,492.85406C195.97736,492.86084,195.98773,492.8641,195.99803,492.8641C196.01245,492.8641,196.02672,492.85767,196.03622,492.84537L196.24533,492.57446L196.37576,492.42642L196.37961,492.42142Q196.49706,492.24658,196.61642,492.1111L196.61642,492.1111L196.61835,492.10886Q196.78844,491.89474,197.01283,491.72034L197.0184,491.71524Q197.05165,491.67978,197.07205,491.63516C197.08313,491.61093,197.07248,491.58234,197.04825,491.57126C197.04175,491.5683,197.03493,491.56686,197.02821,491.56686 Z"/> </g> <g style="fill:rgb(0,0,0); fill-opacity:1.0; stroke-linejoin: miter"> <path d="M197.08424,491.47342C197.07217,491.47342,197.06009,491.4779,197.05072,491.48697L196.79002,491.73914L196.78911,491.74002Q196.4987,492.03613,196.13597,492.44397L196.13455,492.44565Q195.98335,492.63217,195.92744,492.77487C195.91772,492.79968,195.92995,492.82767,195.95474,492.8374C195.96053,492.83966,195.96648,492.84076,195.97234,492.84076C195.99161,492.84076,196.00981,492.8291,196.01726,492.8101Q196.06752,492.6818,196.20811,492.50806L196.20805,492.50806Q196.56824,492.1031,196.85712,491.80847L196.85707,491.80847L197.11777,491.5563C197.13692,491.53778,197.13744,491.50723,197.11891,491.4881C197.10945,491.47833,197.09685,491.47342,197.08424,491.47342 Z"/> </g> <g style="fill:rgb(0,0,0); fill-opacity:1.0; stroke-linejoin: miter"> <path d="M195.2949,488.48193C195.27423,488.48193,195.25513,488.49533,195.2488,488.5161Q195.20927,488.64572,195.17953,488.7255L195.17953,488.7255Q194.87317,489.52112,194.77727,489.8259L194.77637,489.82916Q194.7448,489.96133,194.69038,490.1258L194.68958,490.1285Q194.66785,490.21014,194.65929,490.25497L194.65929,490.25497Q194.6094,490.49814,194.58968,490.71408C194.58725,490.7406,194.60678,490.76407,194.63332,490.7665C194.63481,490.76666,194.6363,490.76672,194.63779,490.76672C194.66245,490.76672,194.68346,490.7479,194.68575,490.72287Q194.70502,490.5118,194.7539,490.2737L194.75404,490.27304Q194.76183,490.23224,194.78206,490.15607L194.78197,490.15607Q194.83696,489.98984,194.8694,489.85483L194.86928,489.85483Q194.9642,489.5532,195.26974,488.75967L195.26993,488.7592Q195.30058,488.6769,195.34105,488.54425C195.34882,488.51877,195.33447,488.49182,195.30899,488.48404C195.3043,488.4826,195.29956,488.48193,195.2949,488.48193 Z"/> </g> <g style="fill:rgb(0,0,0); fill-opacity:1.0; stroke-linejoin: miter"> <path d="M195.19519,488.56598C195.19508,488.56598,195.19496,488.56598,195.19485,488.56598C195.16821,488.56616,195.14677,488.58786,195.14694,488.6145Q195.14813,488.79553,195.11404,488.91895L195.11374,488.92017Q195.05461,489.1582,194.96954,489.3912L194.968,489.39627Q194.9119,489.62515,194.84392,489.84943L194.84285,489.85364Q194.69038,490.59085,194.58202,491.04434C194.57584,491.07025,194.59181,491.09625,194.61772,491.10245C194.62149,491.10336,194.62526,491.1038,194.62897,491.1038C194.65079,491.1038,194.67055,491.0889,194.67583,491.06674Q194.78426,490.6131,194.93643,489.87738L194.93623,489.87738Q195.00423,489.65308,195.06046,489.4243L195.06015,489.4243Q195.14671,489.1872,195.20703,488.94464L195.20703,488.94464Q195.24469,488.8083,195.24341,488.6139C195.24324,488.58737,195.22168,488.56598,195.19519,488.56598 Z"/> </g> <g style="fill:rgb(0,0,0); fill-opacity:1.0; stroke-linejoin: miter"> <path d="M195.21881,488.6058C195.21846,488.6058,195.21812,488.6058,195.21779,488.6058C195.19116,488.60635,195.17001,488.6284,195.17058,488.65503Q195.17703,488.96225,195.13809,489.1737L195.13806,489.1737Q195.1291,489.21695,195.11737,489.25204L195.11737,489.25204L195.00916,489.55927L195.00774,489.56403L194.85455,490.20282L194.8545,490.20282Q194.83565,490.27017,194.70358,490.95694L194.70355,490.95694Q194.64151,491.23172,194.62982,491.29453L194.62978,491.29453Q194.61113,491.37717,194.58911,491.59006C194.58638,491.61655,194.60565,491.64026,194.63214,491.64297C194.63382,491.64316,194.63548,491.64322,194.63712,491.64322C194.66154,491.64322,194.6825,491.62476,194.68506,491.59995Q194.70673,491.39032,194.72423,491.31415L194.72464,491.31216Q194.736,491.2512,194.79799,490.97665L194.79831,490.97513Q194.93265,490.2765,194.94754,490.22833L194.94836,490.22534L195.101,489.58884L195.2086,489.28336L195.20886,489.28262Q195.22256,489.24164,195.23276,489.19217L195.23294,489.19116Q195.27368,488.97,195.26701,488.653C195.26645,488.6267,195.24498,488.6058,195.21881,488.6058 Z"/> </g> <g style="fill:rgb(0,0,0); fill-opacity:1.0; stroke-linejoin: miter"> <path d="M195.25346,488.6552C195.22743,488.6552,195.20601,488.676,195.20529,488.70215Q195.20116,488.85352,195.18588,488.91367L195.1856,488.91483L195.03273,489.58633L195.03203,489.59018Q194.99295,489.86148,194.68488,491.3988L194.68465,491.4Q194.63702,491.67297,194.64314,491.80502C194.64435,491.83087,194.66566,491.851,194.69128,491.851C194.69203,491.851,194.6928,491.85098,194.69354,491.85095C194.72015,491.84973,194.74072,491.82718,194.73949,491.80057Q194.73387,491.67947,194.77946,491.4178L194.77945,491.4178Q195.08585,489.88882,195.12692,489.60776L195.12679,489.60776L195.27965,488.93625L195.27965,488.93625Q195.29729,488.86557,195.3017,488.70477C195.30243,488.67816,195.28143,488.65598,195.2548,488.65524C195.25435,488.65524,195.2539,488.6552,195.25346,488.6552 Z"/> </g> <g style="fill:rgb(0,0,0); fill-opacity:1.0; stroke-linejoin: miter"> <path d="M195.1862,489.0275Q195.19101,489.0275,195.19633,489.02823L195.20306,489.02963Q195.21855,489.03406,195.22821,489.04694L195.17108,489.06L195.17108,489.06Q195.17628,489.0458,195.18307,489.0277L195.18112,489.0277Q195.1836,489.0275,195.1862,489.0275 Z M195.39417,488.30325Q195.39114,488.30496,195.38812,488.30704L195.38812,488.30704Q195.32875,488.34744,195.22224,488.59573L195.2217,488.59573Q195.2216,488.5959,195.22153,488.59604Q195.20229,488.6323,195.15726,488.82687L195.15671,488.82687Q195.0679,489.05597,195.06061,489.08594L195.06065,489.08594Q194.85162,489.81476,194.79143,490.0795L194.79141,490.0795L194.7914,490.0796Q194.75551,490.23367,194.73793,490.39966L194.7379,490.39966Q194.71065,490.60092,194.67827,491.0307L194.67816,491.0307Q194.61449,491.4659,194.61554,491.51187L194.61554,491.512Q194.61583,491.52353,194.61935,491.53247L194.61902,491.53247Q194.6278,491.55945,194.6578,491.56387L194.65768,491.56387Q194.66301,491.5647,194.66788,491.5647Q194.70044,491.5647,194.71274,491.52737L194.71277,491.52728Q194.72096,491.50226,194.74533,491.35715L194.7457,491.35455Q194.77061,491.13324,194.78905,491.02826L194.78906,491.02817L194.93983,490.1595L194.93987,490.1595Q194.96397,490.0434,194.99057,489.9462L194.99055,489.9462Q195.20299,489.25598,195.23665,489.08667L195.23772,489.08667L195.23773,489.08664Q195.2503,489.0463,195.31181,488.63846L195.31377,488.63846C195.31587,488.63873,195.318,488.6389,195.32008,488.6389C195.34126,488.6389,195.36067,488.62485,195.36656,488.60345Q195.40105,488.47815,195.46053,488.36804L195.39417,488.30325 Z"/> </g> <g style="fill:rgb(0,0,0); fill-opacity:1.0; stroke-linejoin: miter"> <path d="M195.50706,488.17383C195.48312,488.17383,195.46237,488.19165,195.45929,488.2161L195.45926,488.21634L195.45926,488.21625Q195.42595,488.47903,195.35806,488.7317L195.35802,488.7317L195.04451,489.72186L195.04335,489.72617L195.04305,489.72757L195.04306,489.72757Q194.90419,490.34708,194.73979,490.95847L194.73892,490.96228Q194.63535,491.5272,194.6675,491.8881L194.76367,491.881Q194.7528,491.6953,194.77441,491.43036C194.77484,491.42517,194.77441,491.4201,194.77327,491.41528L194.77133,491.41528Q194.79027,491.21783,194.8331,490.9835L194.83293,490.9835Q194.99763,490.37097,195.13666,489.75098L195.13646,489.75098L195.4506,488.75876L195.4512,488.7567Q195.52086,488.49753,195.55496,488.2284L195.55496,488.2283L195.55498,488.22815L195.555,488.22815C195.55833,488.20172,195.53963,488.17758,195.5132,488.17422C195.51114,488.17395,195.5091,488.17383,195.50706,488.17383 Z"/> </g> <g style="fill:rgb(0,0,0); fill-opacity:1.0; stroke-linejoin: miter"> <path d="M195.33998,488.55026Q195.31308,488.55026,195.29425,488.58087L195.29417,488.581Q195.28738,488.5921,195.28015,488.61124L195.27951,488.61304L195.2795,488.61304Q195.2507,488.69186,195.18037,488.9078L195.18037,488.90778L195.17894,488.91217L195.17867,488.91306Q194.96643,489.6084,194.94768,489.69513L194.94754,489.69513Q194.90909,489.82858,194.85483,490.16837L194.85483,490.16837Q194.82555,490.33707,194.8278,490.40015L194.82779,490.40015Q194.82867,490.43817,194.86406,490.4476L194.864,490.4476Q194.8729,490.44998,194.88065,490.44998Q194.91077,490.44998,194.9237,490.4139L194.92369,490.4139Q194.92673,490.4055,194.9315,490.38638L194.932,490.3841Q194.97876,490.14993,195.0103,490.04272L195.0103,490.04272L195.11162,489.70212L195.1119,489.70117L195.27869,489.09604L195.2787,489.09604Q195.3753,488.7697,195.39378,488.71335L195.39183,488.71335Q195.38312,488.7254,195.36656,488.73013L195.35573,488.6922L195.35378,488.6922Q195.355,488.68866,195.35617,488.6853L195.35812,488.6853L195.39923,488.6985Q195.40906,488.66788,195.40904,488.6375C195.40904,488.6261,195.40508,488.61563,195.39845,488.6074L195.3965,488.6074C195.3965,488.60318,195.39597,488.5989,195.3948,488.59467Q195.38652,488.56415,195.36081,488.55438L195.36043,488.55423Q195.34969,488.55026,195.33998,488.55026 Z"/> </g> <g style="fill:rgb(0,0,0); fill-opacity:1.0; stroke-linejoin: miter"> <path d="M193.4355,489.63788L193.43158,489.64285L193.40015,489.68277L193.39949,489.68277Q193.40092,489.67978,193.4034,489.67593Q193.40587,489.67206,193.4094,489.6673L193.41318,489.66232Q193.42126,489.6519,193.43356,489.63788L193.4355,489.63788 M193.38103,489.6748L193.39948,489.6828L193.40013,489.6828L193.39253,489.69247L193.37648,489.68002L193.37454,489.68002L193.37907,489.6748L193.38103,489.6748 M193.93272,488.34286L193.93098,488.3429Q193.9055,488.3425,193.87137,488.38174Q193.77885,488.4896,193.65572,488.67444L193.52849,488.79797L193.06079,489.47778L193.05064,489.49817Q193.0263,489.55225,193.01123,489.60492Q192.99042,489.7044,192.97537,489.76306L192.82726,490.00748Q192.75468,490.15308,192.74911,490.1917Q192.74507,490.24197,192.80133,490.24966Q192.73418,490.37015,192.7227,490.40695Q192.71217,490.4442,192.75002,490.4632L192.71669,490.51257L192.76715,490.54987Q192.74255,490.63336,192.72527,490.77267L192.81873,490.7942L192.85237,490.69693L192.8925,490.72253L192.97221,490.61954L193.0191,490.66263L193.11264,490.5756L193.11456,490.5756Q193.09325,490.60953,193.07445,490.64868L193.15614,490.6987L194.0084,489.61563L193.94022,489.54828L193.92694,489.55905Q193.92484,489.55103,193.91537,489.53983L193.8511,489.53342Q193.73636,489.61313,193.5633,489.7917L193.61966,489.71634L193.61772,489.71634L193.9624,489.33328Q193.98517,489.28452,193.92493,489.26025Q193.89796,489.25394,193.8338,489.31546Q193.97102,489.12924,193.97563,489.1098Q193.99008,489.066,193.94429,489.04218Q193.92416,489.03564,193.90387,489.04968L193.73483,489.18295Q193.61366,489.2837,193.4721,489.43082Q193.71198,489.08475,193.83717,488.9166L193.83524,488.9166Q193.88635,488.8687,193.88531,488.8574Q193.9031,488.7887,193.8169,488.79797L193.624,488.99677L193.71141,488.87216L193.64792,488.8163L193.7325,488.73114Q193.93077,488.4406,193.97571,488.413Q193.99394,488.3546,193.93272,488.34286"/> </g> <g style="fill:rgb(0,0,0); fill-opacity:1.0; stroke-linejoin: miter"> <path d="M196.7404,487.27377L196.74075,487.2745L196.7411,487.27524L196.72719,487.27954L196.7404,487.27377 M196.09648,486.10602L196.09525,486.10605Q196.03093,486.11987,196.05687,486.18344Q196.06606,486.19992,196.08691,486.22092L196.21533,486.33502Q196.2378,486.35788,196.25409,486.3801L196.25677,486.38406Q196.24596,486.3842,196.23013,486.40073Q196.22237,486.41083,196.22044,486.42328Q196.21474,486.44315,196.24283,486.48236Q196.31877,486.6042,196.53143,486.8534L196.54024,486.86557L196.53825,486.86557L196.54588,486.87946L196.59264,486.94962L196.58415,486.95334L196.62625,487.06183L196.62013,487.0654L196.63707,487.09814L196.6351,487.09814L196.6559,487.19574Q196.66629,487.24454,196.67943,487.28928Q196.69276,487.33554,196.74191,487.41974Q196.77487,487.47815,196.83763,487.53516Q196.87463,487.56644,196.9071,487.58615Q196.90007,487.5833,196.91884,487.597Q196.93332,487.6074,196.95483,487.60333Q196.97105,487.62613,196.9956,487.6278Q197.05797,487.61917,197.04105,487.55475Q196.8665,487.1883,196.78809,487.0546Q196.71675,486.9401,196.62032,486.81433L196.52966,486.64224Q196.49147,486.58282,196.44464,486.52298Q196.38725,486.39264,196.32915,486.31927Q196.31534,486.28873,196.15448,486.15213L196.12845,486.11813Q196.11012,486.10464,196.09648,486.10602"/> </g> <g style="fill:rgb(0,0,0); fill-opacity:1.0; stroke-linejoin: miter"> <path d="M191.44408,520.9351L191.44276,520.94995Q191.43762,521.0088,191.43387,521.05756Q191.43445,521.02954,191.43575,521.0023Q191.4364,520.9887,191.43723,520.9752Q191.43805,520.9618,191.43907,520.94855L191.44012,520.93536L191.43849,520.93536L191.44408,520.9351 M192.09082,517.5105L192.08574,517.51074Q192.05891,517.5143,192.04668,517.53925Q192.013,517.6433,191.95897,517.8265Q191.94,517.8207,191.90503,517.94025L191.89183,517.938Q191.91086,517.83887,191.93462,517.72736Q191.93918,517.7003,191.93803,517.6919Q191.93056,517.6394,191.87459,517.6455Q191.84787,517.653,191.83257,517.6982Q191.76947,517.8742,191.74022,517.9848Q191.61241,518.5737,191.5572,518.9021L191.50491,519.22455Q191.4619,519.5521,191.46591,519.5751L191.46399,519.5751L191.45624,519.6169Q191.4256,519.78345,191.40154,519.9351Q191.3713,520.0629,191.33366,520.2934Q191.27701,520.6144,191.27612,520.87585Q191.2912,520.92816,191.32997,520.9264Q191.32494,521.0203,191.33804,521.0984L191.43152,521.0892Q191.4194,521.2727,191.42632,521.2864Q191.43967,521.33575,191.48038,521.3337Q191.53127,521.3489,191.56117,521.16833Q191.60919,520.91,191.64072,520.7181L191.7603,519.91296Q191.8468,519.232,191.87743,519.0415L191.87482,519.0415L191.88136,519.02496L191.92009,518.79895L191.91817,518.79895L191.9458,518.6842Q192.00844,518.4467,192.0443,518.36145L192.01276,518.3436L192.03613,518.2667L192.02681,518.2643L192.04195,518.2018Q192.06024,518.1252,192.09305,518.023Q192.10115,517.9861,192.10048,517.955Q192.1059,517.88873,192.04189,517.88635L192.139,517.56055Q192.13818,517.51715,192.09082,517.5105"/> </g> </g> </svg>