<?xml version="1.0" encoding="UTF-8"?>
<svg viewBox="0 0 640 480" xmlns="http://www.w3.org/2000/svg">
 <g fill-rule="evenodd" stroke="#000" stroke-width="2">
  <path d="m129.25 222.79l0.75 1v1h1l1 16q1 16 2 16t2.5 8l1.5 8h-0.5q-0.5 0-1.75 5.5t-5.25 14.5-6 12-5 7-8 9-12.75 11.75-20.75 14.25-18 12-6.25 6.75-4.25 6.25-6.25 8.5l-3.25 4.5h-4l-0.5-1.25q-0.5-1.25-2.25-1t-3 2.75l-1.25 2.5-1.25 0.5-1.25 0.5-0.25-0.5-0.25-0.5 0.5-3.5q0.5-3.5-0.5-3.25t-9 8.75-8.75 7.25 0.5-3l1.25-1.75 3.75-4.75q3.75-4.75 5.5-6.5l1.75-1.75-3 0.5q-3 0.5-6.75 3.25t-7 4.25l-3.25 1.5v-1.5q0-1.5 3.5-3.75t7.5-5.25 6-4.5 3.25-3.25 3-2.75 3-3 7.25-7 8-7 5.75-4.25 8.5-6.5 6-6.75 2.25-2.75 15.75-16 21.75-27.75 8.5-14.5l1.5-2.5 0.5-11q0.5-11 3-21.5t2.75-10.75 4.75-2.25 4.75-2.25l0.25-0.25 0.75 1z"/>
  <path d="m121.75 381.29l1.25-0.5 9.5 5.75q9.5 5.75 11.5 6.5l2 0.75 1 1.75q1 1.75 3.5 0.75t7.5-0.5 16.5 0.25l11.5-0.25 0.5 0.25 0.5 0.25 2.5 2.5q2.5 2.5 5.25 6.25t5.25 9.75 6 21.5 3.5 16 1 4 4 13.5 4.75 15l1.75 5-10.5 2.5-10.5 2.5-1.25-3.5q-1.25-3.5-3-8t-2.75-4.5-2.25-3-5.5-8.25-8.5-10.5-5.5-6.25-3.5-9.5-3.5-9.25l-1.25-0.75 0.75-2.25q0.75-2.25 0-7.75l-0.75-5.5-1.75-2q-1.75-2-5-6.25t-4.5-5.5l-1.25-1.25-1.75 1.25q-1.75 1.25-11.5 10.5l-9.75 9.25-3 9.5q-3 9.5-4.75 14t-3.75 6.75-4 3.75-3.75 3.75-4 3-3.5 2.5l-1.25 1.75-0.5 1q-0.5 1-2 5.5l-1.5 4.5-1.25-0.5q-1.25-0.5-2.25 1.5l-1 2-7 0.75q-7 0.75-9.75-1t-3.75-4.25-1.25-3l-0.25-0.5 0.25-0.5q0.25-0.5 3-2.75t4-5 2.5-7.25 2.5-6 2.75-5.5 5-10.5 5.75-7.5l2.25-1 4.25-10q4.25-10 6.25-13t1.75-4 0-2 0-2.25l-0.25-1.25 1-0.5q1-0.5 3.5-2.5t4.75-5.75 3.5-4.25z"/>
  <path d="m157.75 362.29l1.25-3.5 1 0.75q1 0.75 4.5 1.75t8.75 5.25 8.25 8.25 4.75 9.5l1.75 5.5-3.5-0.75q-3.5-0.75-17-1.25t-17 0.75l-3.5 1.25-0.25-3.5q-0.25-3.5-1-4.25t-0.5-1 1.25-4.25 0.75-4.25l-0.25-0.25 1.5-1q1.5-1 4.75-3.25t4.5-5.75z"/>
  <path d="m200.5 194.04l2.5-0.25 6 1.25q6 1.25 12 4l6 2.75 0.75 3q0.75 3 1.75 5t3.5 6l2.5 4 1.75 1.25q1.75 1.25 4.25 2l2.5 0.75 1.75 3q1.75 3 3.75 5t5.75 7 6.5 6 6.25 7l3.5 6-0.75 0.5-0.75 0.5-3.5 0.25-3.5 0.25-1.5 0.75-1.5 0.75-2.5 8-2.5 8-4.5 2-4.5 2-1.5-1.25q-1.5-1.25-0.75-3t-0.5-2.25-1-3-1.25-4.5l-1.5-2-2.75-2-2.75-2-1.5 0.25q-1.5 0.25-1-0.75t-4.75-6.25-7.75-8.25-4.25-3.75l-1.75-0.75-1.75 2.25q-1.75 2.25-6 3.25l-4.25 1-2.25-4.5q-2.25-4.5-5.25-13t-2.5-16.5 1.5-10.5 3.25-5.75l2.25-3.25 2.5-0.25z"/>
  <path d="m67.75 474.29l1.25-1.5 0.25 0.5q0.25 0.5 1.25 3t3.75 4.25 9.75 1l7-0.75 0.25 0.5q0.25 0.5-0.5 2.25l-0.75 1.75-0.5 1.75-0.5 1.75-7.5-0.25q-7.5-0.25-9.5-0.75t-3.75-1.75-3-4.25l-1.25-3 1.25-1.5q1.25-1.5 2.5-3z"/>
  <path d="m210.5 492.29l10.5-2.5 0.75 0.5q0.75 0.5 2 3l1.25 2.5-2.5 1.75q-2.5 1.75-4 0.25l-1.5-1.5-5 1q-5 1-7 2t-3-0.25l-1-1.25h-1v-3l10.5-2.5z"/>
  <path d="m64 478.29v0.5l1.25 3q1.25 3 3 4.25t3.75 1.75 9.5 0.75l7.5 0.25 1.25 2.5q1.25 2.5 2.75 9.5t-0.25 10.5l-1.75 3.5-37.5 1.25q-37.5 1.25-40.75 0t-4-3.75l-0.75-2.5 2.5 1.25 2.5 1.25 16.5 1q16.5 1 23 0t11-3 4.75-3.75l0.25-1.75-21.75-1.75q-21.75-1.75-22.75-3l-1-1.25 4.5-1.25q4.5-1.25 11.5-4.75t8-5.75 2.5-2.25 1.5-1v-1l4-0.25q4-0.25 4.75-2t2.5-2.25l1.75-0.5v0.5z"/>
  <path d="m222.5 497.54l2.5-1.75 3 0.5 3 0.5 0.25 2q0.25 2 0.25 2.5t3.25 12l3.25 11.5-1.5-1.25-1.5-1.25h-1q-1 0-3.25 1.75t-7 4-11.75 3.25l-7 1-1-0.75-1-0.75-0.75-4q-0.75-4-0.25-5.5t-0.25-2-0.5-2.5 0.5-3.25l0.25-1.25-1-0.5q-1-0.5-3.5-0.25l-2.5 0.25 1.25-7 1.25-7h3.5l1 1.25q1 1.25 3 0.25t7-2l5-1 1.5 1.5q1.5 1.5 4-0.25z"/>
  <path d="m17.5 501.04l5.5-2.25 1 1.25q1 1.25 22.75 3l21.75 1.75-0.25 1.75q-0.25 1.75-4.75 3.75t-11 3-23 0l-16.5-1-2.5-1.25-2.5-1.25 2-3.25q2-3.25 7.5-5.5z"/>
  <path d="m184.5 389.04l3.5 0.75v3l-1 1.5-1 1.5-11.5 0.25q-11.5 0.25-16.5-0.25t-7.5 0.5-3.5-0.75l-1-1.75 0.5-2 0.5-2 3.5-1.25q3.5-1.25 17-0.75t17 1.25z"/>
  <path d="m225 304.29v0.5l-2.25 7.5q-2.25 7.5-3 9.5l-0.75 2-0.25 0.5q-0.25 0.5-1.5 3.5t-1.75 9.5l-0.5 6.5-2 1q-2 1-3.75 8t-4.25 14-3.25 8.5-1.25 7l-0.5 5.5-6 2.5-6 2.5v-3l-1.75-5.5q-1.75-5.5-4.75-9.5t-8.25-8.25-8.75-5.25-4.5-1.75l-1-0.75v-2l2.5-0.25q2.5-0.25 4-1.25t2-2.75 0-2.5l-0.5-0.75 2.5-0.25q2.5-0.25 3.5-1.5t2-3 3-2 6.5-5.25l4.5-5 4.5-1q4.5-1 5.5-1.5l1-0.5 0.5-5.25 0.5-5.25 0.5-0.75q0.5-0.75 3-0.5l2.5 0.25 1.5-2.75q1.5-2.75 5-3.5t4.5-3.25 4-3.5l3-1v0.5z"/>
  <path d="m167.25 308.79l2.75-5 3 1.75q3 1.75 3.5 3t3 2.5 4.75 3 4.5 3 3.75 2.5l1.5 1.25 3.5-1 3.5-1-0.5 5.25-0.5 5.25-1 0.5q-1 0.5-5.5 1.5l-4.5 1-4.5 5q-4.5 5-6.5 5.25t-3 2-2 3-3.5 1.5l-2.5 0.25 0.5 0.75q0.5 0.75 0 2.5t-2 2.75-4 1.25l-2.5 0.25v2l-1.25 3.5q-1.25 3.5-4.5 5.75t-4.75 3.25l-1.5 1 0.25 0.25q0.25 0.25-0.75 4.25t-1.25 4.25 0.5 1 1 4.25l0.25 3.5-0.5 2-0.5 2-2-0.75q-2-0.75-11.5-6.5l-9.5-5.75-1.25-1.5-1.25-1.5 0.5-2.5q0.5-2.5 3-7.5t5-8.5 4-5.5 6-7.5 7-8.5 10-9.5l7.5-6.5 0.5-4q0.5-4 3.25-9z"/>
  <path d="m232.5 261.04l1.5-0.25-0.25 1-0.25 1-1.75 1.75q-1.75 1.75-6.25 2.75t-7 0-8.25-7.25-7.5-9.25l-1.75-3 4.25-1q4.25-1 6-3.25l1.75-2.25 1.75 0.75q1.75 0.75 4.25 3.75t7.75 8.25 4.75 6.25 1 0.75z"/>
  <path d="m266.5 259.04l3.5-0.25 0.25 0.5 0.25 0.5 5 6q5 6 6 8t1 6v4l-4 6q-4 6-4.25 6.25l-0.25 0.25-4.5 0.75-4.5 0.75-1.5 4.5q-1.5 4.5-2.5 4.5h-1v5q0 5-2 5h-2l-0.5-9-0.5-9h-6l0.5-1.25 0.5-1.25-1-0.5q-1-0.5-4-1.75l-3-1.25-0.25 1q-0.25 1-2 2t-1.5 2.5-0.5 5l-0.75 3.5-1.25 1q-1.25 1-3.25 6t-3.25 8.25-2.25 3.5-1.5-2l-0.5-2.25-0.75 0.25q-0.75 0.25-3 1.25l-2.25 1 0.75-2q0.75-2 3-9.5l2.25-7.5h1l2.25-4.5q2.25-4.5 3.5-6.75l1.25-2.25 1-0.5q1-0.5 6.25-4.75l5.25-4.25 0.25-0.5 0.25-0.5 4.5-2 4.5-2 2.5-8 2.5-8 1.5-0.75 1.5-0.75 3.5-0.25z"/>
  <path d="m249.5 297.54l-0.5 1.25-0.25 1-0.25 1-0.75 2.5-0.75 2.5-1 0.25q-1 0.25-2.25 4t0 5l1.25 1.25-1.75 1.75q-1.75 1.75-3.5 6.75t-2.75 5h-1l1-11.5q1-11.5 0.5-11.5h-0.5l0.75-3.5q0.75-3.5 0.5-5t1.5-2.5 2-2l0.25-1 3 1.25q3 1.25 4 1.75l1 0.5-0.5 1.25z"/>
  <path d="m248.75 299.79l0.25-1h6l0.5 9 0.5 9v2l1 0.5 1 0.5 0.25 0.5q0.25 0.5-1.5 2.75t-4.25 2l-2.5-0.25-0.25-2.5q-0.25-2.5-0.75-4t0-2.5 0-4l-0.5-3-0.75-1.5-0.75-1.5 0.75-2.5 0.75-2.5 0.25-1z"/>
  <path d="m181.75 190.29l-0.75-2.5 8.5 0.5 8.5 0.5v0.5q0 0.5 3 1l3 0.5-0.5 1.5-0.5 1.5-2.5 0.25-2.5 0.25-2.25 3.25q-2.25 3.25-3.25 5.75t-1.5 10.5 2.5 16.5 5.25 13l2.25 4.5 1.75 3q1.75 3 7.5 9.25t8.25 7.25 7 0 6.25-2.75l1.75-1.75 0.25-1 0.25-1 2.75 2 2.75 2 1.5 2q1.5 2 1.25 4.5t1 3 0.5 2.25 0.75 3l1.5 1.25-0.25 0.5-0.25 0.5-5.25 4.25q-5.25 4.25-6.25 4.75l-1 0.5-1.25 2.25q-1.25 2.25-3.5 6.75l-2.25 4.5h-1l-3 0.5q-3 0.5-4 3t-4.5 3.25-5 3.5l-1.5 2.75-2.5-0.25q-2.5-0.25-3 0.5l-0.5 0.75-3.5 1-3.5 1-1.5-1.25q-1.5-1.25-3.75-2.5t-4.5-3-4.75-3-3-2.5-3.5-3l-3-1.75-3.5-1.5-3.5-1.5-1.25-3.5q-1.25-3.5-6.75-9t-8.75-10l-3.25-4.5-0.75-3-0.75-3-1.5-6.5q-1.5-6.5-3.75-21l-2.25-14.5 1-0.25 1-0.25 3 0.25 3 0.25 0.25 2.5 0.25 2.5 1 3q1 3 2.5 5.5t7.5 9 12.25 8l6.25 1.5 2.25-11q2.25-11 5.25-32.5t2.25-24z"/>
  <path d="m132.75 222.79l1.25 3 2.25 14.5q2.25 14.5 3.75 21l1.5 6.5 0.75 3 0.75 3-0.5 1q-0.5 1-1.75 0.5t-2-1.5l-0.75-1-1.5-8q-1.5-8-2.5-8t-2-16l-1-16 0.25-2.5 0.25-2.5 1.25 3z"/>
  <path d="m178.5 188.04l2.5-0.25 0.75 2.5q0.75 2.5-2.25 24t-5.25 32.5l-2.25 11-6.25-1.5q-6.25-1.5-12.25-8t-7.5-9-2.5-5.5l-1-3-0.25-2.5-0.25-2.5h2l0.75 2.5q0.75 2.5 3.25 8t5.25 7.25 4.5 4 6 3.75l4.25 1.5 5-29.5q5-29.5 4-29.75l-1-0.25-2.5-0.75-2.5-0.75v-1l-1-1-1-1h1.25q1.25 0 2.5 0.5t2.25-0.25 3.5-1z"/>
  <path d="m170 191.79h1l2 0.25 2 0.25 1.5 0.75q1.5 0.75-3.5 30.25l-5 29.5-4.25-1.5q-4.25-1.5-6-3.75t-4.5-4-5.25-7.25-3.25-8l-0.75-2.5v-1h1.5q1.5 0 1.5-1.5t5-3l5-1.5 1.5-5q1.5-5 3-5t3.25-4.5 3-8.5 2.25-4z"/>
  <path d="m168.25 188.29l0.75 0.5 1 1 1 1v1h-1q-1 0-2.25 4t-3 8.5-3.25 4.5-3 5l-1.5 5-5 1.5q-5 1.5-5 3t-1.5 1.5h-1.5v1h-2l-3-0.25-3-0.25-1 0.25-1 0.25-1.25-3-1.25-3-0.25 2.5-0.25 2.5h-1v-1l-0.25-3q-0.25-3-1.5-4.25t-1.25-2.25-1.25-2.75-3.75-6.25-4.75-12-3.5-8l-1.25-0.5 0.25-12 0.25-12 2.5-2.25q2.5-2.25 4-4.5t5.5-4.5 11.5-3.25 11 0 4.75 1.75 3.5 2.25l2.25 1.5 1.75 3.5q1.75 3.5 3.5 16.5t3 14.5 2 2z"/>
  <path d="m228 189.54l1 0.25-1 6-1 6-6-2.75q-6-2.75-12-4l-6-1.25 0.5-1.5 0.5-1.5-3-0.5q-3-0.5-3-1v-0.5l0.25-0.5q0.25-0.5 0.25-2.5v-2l1.5-2q1.5-2 1.75-3t1.75-2 5-2.75l3.5-1.75 2.5 1q2.5 1 5.75 4.25t5 7.5 2.75 4.5z"/>
  <path d="m202.25 526.79l0.75 4-0.5 2-0.5 2-6.5-3.25q-6.5-3.25-8.25-6.5t-2.75-6.75l-1-3.5h1q1 0 5.75-1.5l4.75-1.5 2.5-0.25q2.5-0.25 3.5 0.25l1 0.5-0.25 1.25q-0.25 1.25-0.5 3.25t0.5 2.5 0.25 2 0.25 5.5z"/>
  <path d="m247 529.04l-8 1.75h-1v-6l-3.25-11.5q-3.25-11.5-3.25-12t-0.25-2.5l-0.25-2-1.5-6.5-1.5-6.5h1l1 0.75 1 0.75 8.5-1q8.5-1 9.25-1.75l0.75-0.75 0.25-1 0.25-1 0.75-1 0.75-1 3 9q3 9 4 11t1.5 4 0.25 8.75-1.25 8 0.25 1.75 0.75 2.5l-0.5 2-2.25 1.25q-2.25 1.25-10.25 3z"/>
  <path d="m319.75 482.29l0.25-0.5h2l0.25 4q0.25 4 1.25 7.5t3 10 2.75 8.25 2.25 6l1.5 4.25 2 0.75q2 0.75 2.5 3t1.5 2.25h1l1 1.25q1 1.25 1.25 3t1.25 3.75 2.5 7 1 7.5-1.5 9l-1 6.5-1 1.5q-1 1.5-1.75 1.75t-2 0.5-4.5 2-15.75 2.75-14 0.75l-1.5-0.25 0.25-1q0.25-1-1.75-2.5t-1.5-5 0.5-4 0.5-3 3-7 3.5-8.5l1-4-0.5-3q-0.5-3-0.75-9.5t-1.5-9.5-1.75-4-2-3-2-5.5-2.75-8.5l-2.25-5h1l5-1.25q5-1.25 11-4.25t6.25-3.25l0.25-0.25 0.25-0.5z"/>
  <path d="m209.25 423.29l-0.25-10.5 9 1.25q9 1.25 16.75 4l7.75 2.75 0.25 1 0.25 1-0.75 1q-0.75 1 0.25 6t4.5 14.5 3.25 22.5l-0.25 13-0.25 1-0.25 1-0.75 0.75q-0.75 0.75-9.25 1.75l-8.5 1-1-0.75-1-0.75-1.25-3.5q-1.25-3.5-2.25-5t-3.5-5-5-9.5-5-16.5-2.75-21z"/>
  <path d="m272.5 386.54l2.5 0.25 2.25 1.5q2.25 1.5 4 2t3.5 1.5 2.5 2l0.75 1-0.25 3q-0.25 3 0.25 4.5t0 3.5l-0.5 2 7 8q7 8 9.75 13t3.75 5 2.5 4.25 2.5 4.5l1 0.25-0.25 0.5q-0.25 0.5 0.75 9t2.75 15.5l1.75 7 0.5 3.5 0.5 3.5-0.25 0.5-0.25 0.5-0.25 0.25q-0.25 0.25-6.25 3.25t-11 4.25l-5 1.25-1-0.75q-1-0.75-4.75-7.5t-5-7.75l-1.25-1-1-4q-1-4-1.5-4h-0.5l-1.75-3.5q-1.75-3.5-5.75-12.5t-7-15.5-5-11-4.75-5-3.25 0.5l-0.5 1h-3v-1l0.75-3q0.75-3-1.25-9.5t-3.25-14l-1.25-7.5h1.25q1.25 0 1.5-0.25t2.25-0.75 10.5 0.5 11 1.25z"/>
  <path d="m246 306.04l1-0.25 0.75 1.5 0.75 1.5 0.5 3q0.5 3 0 4t0 2.5 0.75 4l0.25 2.5h-1l-0.5 1.75q-0.5 1.75-1.75 3t-2.75 6.25-2 18 0.75 20l1.25 7 0.5 1.25q0.5 1.25 1.5 1l1-0.25-0.5 1.5-0.5 1.5 1.25 7.5q1.25 7.5 3.25 14t1.75 9.5l-0.25 3h-1l-1.5-0.25q-1.5-0.25-9-3.25t-19-5.5-16.5-3.75l-5-1.25h-1l0.5-9 0.5-9 0.5-5.5q0.5-5.5 1.25-7t3.25-8.5 4.25-14 3.75-8l2-1 0.5-6.5q0.5-6.5 1.75-9.5t1.5-3.5l0.25-0.5 2.25-1q2.25-1 3-1.25l0.75-0.25 0.5 2.25q0.5 2.25 1.5 2t2.25-3.5 3.25-8.25 3.25-6l1.25-1h0.5q0.5 0-0.5 11.5l-1 11.5h1q1 0 2.75-5t3.5-6.75l1.75-1.75-1.25-1.25q-1.25-1.25 0-5t2.25-4z"/>
  <path d="m201 408.04l-1-2.25 5 1.25q5 1.25 16.5 3.75t19 5.5 9 3.25l1.5 0.25v1h3l-0.25 2.5q-0.25 2.5-0.5 2.75t-5.25-1.5l-5-1.75-0.25-1-0.25-1-7.75-2.75q-7.75-2.75-16.75-4l-9-1.25-2.5-0.75-2.5-0.75-1-0.5q-1-0.5-2-2.75z"/>
  <path d="m297 321.04l3 2.75-2 0.25q-2 0.25-5.5 0l-3.5-0.25-3.25 14q-3.25 14-5.75 21t-5.5 14.5-3 8.5v1l1.75 2 1.75 2-2.5-0.25q-2.5-0.25-11-1.25t-10.5-0.5-2.25 0.75-1.5 0.25h-1.25l0.5-1.5q0.5-1.5-0.75-1l-1.25 0.5-0.25-1.5-0.25-1.5 1.5-1.25q1.5-1.25 12-2.25l10.5-1-2.5-1q-2.5-1-0.5-2t3.25-0.75 4.75-7.75 3.5-8.5 0.25-1.5-0.25-2.75l-0.5-1.75 1-0.5q1-0.5 3.25-7.25t4-15.25l1.75-8.5-6-0.5q-6-0.5-6-1v-0.5l8.75-1 8.75-1 1.25 1.75q1.25 1.75 4.25 4.5z"/>
  <path d="m271 317.04l3-0.25v0.5q0 0.5 6 1l6 0.5-1.75 8.5q-1.75 8.5-4 15.25t-3.25 7.25l-1 0.5 0.5 1.75q0.5 1.75 0.25 2.75t-0.25 1.5-3.5 8.5-4.75 7.75-3.25 0.75 0.5 2l2.5 1-10.5 1q-10.5 1-12 2.25l-1.5 1.25-1.25-7q-1.25-7-0.75-20t2-18 2.75-6.25 1.75-3l0.5-1.75h1l2.5 0.25q2.5 0.25 4.25-2t1.5-2.75l-0.25-0.5 5-1.25q5-1.25 8-1.5z"/>
  <path d="m298 324.04l2-0.25 2 1.25q2 1.25 2 2.25t3.5 4.25l3.5 3.25 0.25 0.5 0.25 0.5-1 2.5q-1 2.5-1.75 6l-0.75 3.5-0.75 1q-0.75 1-4 7.75l-3.25 6.75 0.25 1.25q0.25 1.25 1.25 4.75l1 3.5-2.25 4q-2.25 4-3.5 5t-4.25 6.5l-3 5.5-0.75 0.5-0.75 0.5-0.75-1q-0.75-1-2.5-2t-3.5-1.5-4-2l-2.25-1.5-1.75-2-1.75-2v-1q0-1 3-8.5t5.5-14.5 5.75-21l3.25-14 3.5 0.25q3.5 0.25 5.5 0z"/>
  <path d="m236.5 523.54l1.5 1.25v6h1l0.25 1.5q0.25 1.5-1.25 7.5t-1.75 6.5l-0.25 0.5-7.5 0.75q-7.5 0.75-8 0.25t-4.5-1.5-8.5 1.75l-4.5 2.75-1.25-2q-1.25-2-0.5-8l0.75-6 0.5-2 0.5-2 1 0.75 1 0.75 7-1q7-1 11.75-3.25t7-4 3.25-1.75h1l1.5 1.25z"/>
  <path d="m228.5 547.54l7.5-0.75 0.75 0.5 0.75 0.5v3q0 3-1.75 3.5t-2.75 1.75-7.5 2.25-12 1.5-7.75-1.75l-2.25-2.25-0.5-1q-0.5-1-0.25-2.5l0.25-1.5 4.5-2.75q4.5-2.75 8.5-1.75t4.5 1.5 8-0.25z"/>
  <path d="m252.25 151.29l1.75 2.5-0.75 1.5q-0.75 1.5 0.25 7.5t4.5 11 8.75 9.25 12.25 7 7 3.75v1l7.5 0.25q7.5 0.25 10.25-1l2.75-1.25 0.25-0.5 0.25-0.5 0.25-0.5q0.25-0.5 2-3.5t2.75-4.5l1-1.5 0.75-0.5 0.75-0.5 0.5 3.5q0.5 3.5 0.75 5.5l0.25 2-0.5 1-0.5 1h-1l-0.25 3-0.25 3 1 5q1 5 1.75 13.5l0.75 8.5h-1l-0.75 4.5q-0.75 4.5 0 8l0.75 3.5-1.25-1q-1.25-1-2 1.25l-0.75 2.25 0.75 1.75q0.75 1.75 3.25 9.75t3.5 11.5 1.75 7.5 0.75 5v1h-1l0.75 7q0.75 7-0.25 15.5t-0.75 9l0.25 0.5 0.75 2q0.75 2 0.5 4l-0.25 2-1.25 1q-1.25 1-2.5 1.75t-3.5 1l-2.25 0.25-0.25 4.5-0.25 4.5h-1l-3.5-3.25q-3.5-3.25-3.5-4.25t-2-2.25l-2-1.25-3-2.75q-3-2.75-4.25-4.5l-1.25-1.75-8.75 1-8.75 1-3 0.25q-3 0.25-8 1.5l-5 1.25-1-0.5-1-0.5v-2h2q2 0 2-5v-5h1q1 0 2.5-4.5l1.5-4.5 4.5-0.75 4.5-0.75 0.25-0.25q0.25-0.25 4.25-6.25l4-6v-4q0-4-1-6t-6-8l-5-6-0.25-0.5-0.25-0.5 0.75-0.5q0.75-0.5-2.75-6.5t-6.25-7-6.5-6-5.75-7-3.75-5l-1.75-3-2.5-0.75q-2.5-0.75-4.25-2l-1.75-1.25-2.5-4q-2.5-4-3.5-6t-1.75-5l-0.75-3 1-6 1-6 0.5-0.75q0.5-0.75 2.75-6t4-9.75l1.75-4.5h1.5q1.5 0 4.75-4.5t4.5-8.5l1.25-4 0.25-1.5 0.25-1.5 1.75 2.5z"/>
  <path d="m305.5 191.79h1.5l-0.25 0.5-0.25 0.5-2.75 1.25q-2.75 1.25-10.25 1l-7.5-0.25v-1q0-1-7-3.75t-12.25-7-8.75-9.25-4.5-11-0.25-7.5l0.75-1.5 1.5-3.25 1.5-3.25 1.75 0.25q1.75 0.25 3 1t8.75 3.75l7.5 3 3 3.5q3 3.5 7.75 6.25l4.75 2.75 5 9.5q5 9.5 5.25 12l0.25 2.5h1.5z"/>
  <path d="m236 102.54l3 1.25v2l3 1q3 1 3 2t4.75 2.5 9.5 5.25 12.75 6.25 9.5 3 3 1.25l1.5 0.75 3.5 2.75q3.5 2.75 8.25 7.5t8.5 10.25l3.75 5.5-0.25 1q-0.25 1 1.25 7t2.25 7.75l0.75 1.75-0.25 0.25q-0.25 0.25-0.5 5.25l-0.25 5-1 1.5q-1 1.5-2.75 4.5t-2 3.5l-0.25 0.5h-3l-0.25-2.5q-0.25-2.5-5.25-12l-5-9.5-4.75-2.75q-4.75-2.75-7.75-6.25l-3-3.5-7.5-3q-7.5-3-8.75-3.75t-3-1l-1.75-0.25-1.5 3.25-1.5 3.25-1.75-2.5-1.75-2.5-0.25 1.5-0.25 1.5h-1l-0.25-5.5q-0.25-5.5-4-8.25t-5.5-4.5-10.5-7-13.25-7.75-8.5-5-7.75-6.25-5.5-5.5-3.75-3.25-7-6.5-6.5-7.25-5-2.75l-3.5-0.5 1-1q1-1-5-7.75t-9-9.25-9.75-8.25-11.75-13.75-9-11.5-7-7.5-2.75-5.25l0.25-1.25h1.5q1.5 0 3 1.5t4.5 3.25l3 1.75-0.25-1q-0.25-1-2.25-9.5t-1.25-9.75l0.75-1.25 2-0.25q2-0.25 2.25 1.25t4.25 8 7.25 10.75 7 10.5 9.5 13 10.75 10.25 7.5 5 11.5 7 12 7.5 9 6 13 10 10 8.5 6 3.75z"/>
  <path d="m290.75 118.79l-4.75 9-1.5-0.75q-1.5-0.75-3-1.25t-9.5-3-12.75-6.25-9.5-5.25-4.75-2.5-3-2l-3-1v-2l1.25-3.5q1.25-3.5 0.75-5t0.5-3.5l1-2 1.75-2.75q1.75-2.75 3-4t2.25-3.75l1-2.5 1.25-0.75q1.25-0.75 3.75-2.5t14.5-0.5 17.5 3.25 7.25 3.75l1.75 1.75 0.5 4q0.5 4-0.5 14t-5.75 19z"/>
  <path d="m36 386.79v-2h4v1.5q0 1.5 7 2.75t12.75 5 7 5.25 3.5 7.5 1.25 15-3.5 13.5-7.25 8.25-8.75 5.25-14.5 0.5-15-3.5-7.75-6.25-4.25-7.75-0.5-15l0.5-11 3.25-3.75q3.25-3.75 5.25-6.75t3.25-4.25 2-2l0.75-0.75 0.5-0.25 0.5-0.25 0.5 0.25q0.5 0.25 1.5 0l1-0.25h0.5q0.5 0 3.5 0.5t3-1.5z"/>
 </g>
</svg>
