<?xml version='1.0' encoding='utf-8'?>
<svg xmlns="http://www.w3.org/2000/svg" version="1.1" width="600px" height="976px" viewBox="0 0 600 976"> <g id="layer1"> <g style="fill:rgb(0,0,0); fill-opacity:1.0; stroke-linejoin: miter"> <path d="M244.93701,291.92725C244.4245,292.3296,243.88269,292.41138,240.6753,292.48218C238.6518,292.51123,236.87622,292.61096,236.72961,292.71167C236.58295,292.81262,236.04272,292.99304,235.57526,293.0985C234.64014,293.28467,233.06891,293.875,232.85016,294.10022C232.4613,294.5254,229.8612,295.6488,229.56384,295.55432C229.31567,295.4591,229.16962,295.60913,229.1253,295.95544C229.08081,296.30164,228.86206,296.52698,228.51727,296.5813C228.19714,296.63525,227.95215,296.7622,227.95392,296.88562C227.95618,297.03357,227.49438,297.5338,225.71783,299.28687C224.8664,300.13843,223.8252,301.53552,223.48999,302.2561C223.27472,302.72815,222.98425,303.1272,222.8609,303.1289C222.7127,303.1311,222.61804,303.40393,222.6225,303.72473C222.62714,304.04553,222.3153,304.667,221.90222,305.1173C221.51337,305.54236,221.12964,306.3131,221.0379,306.80774C220.97113,307.3025,220.80902,308.0453,220.71625,308.4662C220.5987,308.86255,220.36707,309.92737,220.18243,310.81848C219.92981,312.13025,219.7865,312.45313,219.34308,312.5088C219.07227,312.5619,218.75476,312.78882,218.6839,313.01196C218.4494,313.87915,218.50244,326.14478,218.78217,326.70837C218.93488,327.02698,219.53479,327.56116,220.15741,327.94727C221.20337,328.59863,221.25366,328.672,221.27032,329.83167C221.2854,330.86804,221.1189,331.3147,220.2016,332.73474C219.59784,333.65637,219.1167,334.5271,219.1192,334.69983C219.1217,334.87256,219.00049,335.02258,218.85236,335.02454C218.72906,335.0265,218.43875,335.4257,218.24796,335.89725C218.05728,336.36893,217.7916,336.7676,217.6683,336.76944C217.54483,336.77103,217.13205,337.24612,216.77011,337.81888C216.43314,338.41617,215.66055,339.61197,215.1058,340.50845C214.55093,341.40506,213.92532,342.52444,213.70999,342.99686C213.51944,343.4684,213.01474,344.4136,212.62973,345.11014C211.4011,347.20108,208.28946,353.93423,208.29727,354.47708C208.29935,354.62515,208.03506,355.1226,207.69595,355.5717C207.3569,356.02078,207.09543,356.7156,207.10147,357.13516C207.10745,357.55435,207.01657,358.0989,206.89688,358.34744C206.36905,359.39114,205.67862,361.15323,205.68356,361.4987C205.68637,361.69608,205.52182,362.2664,205.30722,362.78775C203.39847,367.35635,202.95712,370.99088,203.91275,373.93875C204.11826,374.50357,204.47153,375.04117,204.69473,375.1122C204.94247,375.18265,205.14383,375.45132,205.14774,375.7228C205.16049,376.6111,209.1771,381.31656,209.89273,381.3063C210.01608,381.3046,210.51529,381.69205,211.01553,382.15396C211.5405,382.6154,212.0643,383.00272,212.18784,383.001C212.31107,382.99918,212.73447,383.26468,213.10953,383.60477C213.48453,383.94498,213.90805,384.21027,214.08078,384.20782C214.25351,384.20526,214.40366,384.35126,214.40652,384.54865C214.40933,384.74615,214.78519,385.13556,215.23325,385.40057C215.68118,385.6657,216.32925,386.10065,216.62967,386.3924C216.95432,386.65924,217.30295,386.8764,217.37698,386.8753C217.45102,386.8742,217.87479,387.16437,218.2753,387.5534C220.52478,389.52026,225.33722,392.93103,225.88007,392.92322C226.00348,392.9214,226.12817,393.0183,226.13037,393.16638C226.13208,393.2898,227.1029,393.86804,228.32056,394.443C229.51355,395.01807,231.25403,395.90625,232.19879,396.38623C233.14343,396.86633,234.01276,397.24866,234.16083,397.24658C234.30884,397.2444,234.68256,397.48596,234.98254,397.75305C235.48248,398.1902,238.01855,399.48645,245.40009,403.05798C246.2204,403.46545,247.24066,404.0432,247.68939,404.35754C248.11353,404.67236,248.58624,404.93726,248.73431,404.9348C248.88239,404.93298,249.00714,405.02966,249.00891,405.15295C249.01068,405.27637,249.3847,405.5426,249.85681,405.7578C250.30377,405.9491,250.82697,406.2871,250.97784,406.48242C251.3794,406.94556,253.61688,408.07312,254.11041,408.06604C254.43115,408.06165,254.48938,408.67786,254.54083,412.25586C254.57385,414.55066,254.732,416.96704,254.88928,417.60657C255.33502,419.42615,255.93164,421.4414,256.1853,421.90674C256.31213,422.15198,256.41614,422.5204,256.4193,422.74255C256.4264,423.23596,259.37854,426.00732,259.87207,426.00024C260.09418,425.99707,260.5172,426.2378,260.84235,426.52905C261.34265,426.99084,261.51575,427.01294,261.90692,426.7605C262.1759,426.58386,262.56897,426.4547,262.76636,426.4519C263.3092,426.4441,264.38092,427.1692,264.38623,427.5393C264.38837,427.68738,264.66656,428.15222,265.0177,428.542C265.87018,429.46765,267.11154,431.69574,267.4243,432.85114C267.5793,433.3427,267.80862,433.8332,267.93307,433.9051C268.08212,433.9771,268.18796,434.46918,268.19504,434.9627C268.20206,435.45612,268.3848,436.1447,268.56253,436.4875C269.60013,438.27435,269.95908,439.20697,270.10202,440.56256C270.21243,441.3753,270.1987,442.14056,270.1014,442.24078C269.97946,442.34113,269.89487,443.32965,269.88626,444.44037C269.90213,445.55084,269.89316,446.63702,269.87137,446.83478C269.86288,447.97015,270.14896,452.4085,270.28287,453.14703C270.3881,453.58966,270.56638,453.98212,270.68985,453.9803C270.8378,453.9782,270.94052,454.2481,270.94547,454.59357C270.95047,454.93903,271.05307,455.20917,271.17648,455.20734C271.3245,455.20526,271.5043,455.69623,271.5867,456.28766C271.7745,457.32123,271.5638,458.11407,270.7474,459.70538C270.62766,459.95404,270.53384,460.30072,270.5364,460.47345C270.53928,460.67084,270.37363,461.16705,270.158,461.61432C269.65506,462.6828,269.30423,465.74823,269.6335,466.33588C269.96286,466.9234,269.97812,467.98456,269.66013,468.18658C269.5378,468.2624,269.4194,468.60968,269.4244,468.95526C269.429,469.27582,269.3342,469.54865,269.18613,469.55084C269.038,469.55292,268.9507,470.34406,268.96597,471.4051C268.98123,472.46613,269.09128,473.2542,269.23935,473.25214C269.38742,473.24994,269.501,474.28497,269.52377,475.86444C269.5447,477.32,269.69498,479.19354,269.8801,480.05475C270.1204,481.31012,270.12674,481.75433,269.8621,482.227C269.64627,482.67438,269.60507,483.2426,269.7681,484.2768C270.1487,486.71478,270.02408,491.7763,269.592,492.6214C269.44785,492.89508,269.1122,493.59076,268.82437,494.16266L268.29666,495.2315L268.87918,496.2597C269.20853,496.84723,269.6121,497.45856,269.78738,497.62885C269.93796,497.79938,270.08994,498.0688,270.0917,498.1922C270.09348,498.3155,270.24283,498.41193,270.41556,498.4096C270.7858,498.4041,271.87558,500.38763,272.36703,501.96027C272.5477,502.5008,272.83176,503.38507,273.0123,503.92523C273.19284,504.46576,273.47775,505.39972,273.65952,506.01398C274.36075,508.4472,277.6503,514.0765,279.42892,515.90216C280.23056,516.7298,281.6597,518.28876,282.58865,519.38605C283.94504,521.0202,284.41946,521.408,284.96243,521.4002C285.33255,521.3951,285.72867,521.4881,285.85342,521.585C286.00327,521.7061,286.59872,521.91986,287.21805,522.0837C287.83755,522.2474,288.5566,522.4841,288.82944,522.5788C289.10263,522.6983,289.89615,522.9583,290.5903,523.1706C291.5817,523.45233,292.00577,523.76715,292.6351,524.6219C293.26462,525.5015,293.5886,525.71893,294.15616,525.71075C294.74838,525.7022,294.89816,525.82355,295.05582,526.4875C295.42685,528.25934,295.51718,529.39325,295.24582,529.39716C295.0977,529.3991,294.97684,529.5738,294.97977,529.7712C294.9825,529.96857,294.83694,530.1434,294.6642,530.14594C294.41745,530.1495,294.34824,530.4959,294.4623,531.5557C294.52304,532.34454,294.6818,533.0826,294.80692,533.2043C294.9324,533.3505,295.03506,533.62067,295.03824,533.8427C295.0414,534.06476,295.272,534.6539,295.55136,535.1928C296.1094,536.24603,296.19186,536.8371,295.8558,537.4837C295.71085,537.7078,295.54697,538.3272,295.48007,538.82184C295.41348,539.3411,295.27158,539.76263,295.17276,539.7641C294.90134,539.768,295.11557,542.65265,295.39444,543.16693C295.5214,543.4118,295.71048,544.5445,295.82547,545.67804C295.94083,546.83636,296.15457,547.96857,296.28152,548.2137C296.43344,548.48285,296.38174,550.03864,296.14597,552.5101C295.8243,555.89594,295.81033,556.63654,296.13126,558.3597C296.3198,559.46747,296.5117,560.79755,296.54428,561.34C296.5768,561.8825,296.76053,562.64496,296.9393,563.06195C297.52597,564.3863,297.65475,564.7547,297.99356,566.0085C298.1512,566.6728,298.48477,567.55634,298.68805,567.9729C298.89124,568.36487,299.12616,569.25,299.1853,569.9402C299.39148,572.2572,299.8064,575.36096,300.04083,576.2213C300.51233,578.1151,300.99988,579.41626,301.1726,579.4137C301.2713,579.41235,301.3725,579.5836,301.3753,579.781C301.38702,580.5952,304.02484,583.8152,304.66656,583.8059C304.78992,583.8042,304.89026,583.92615,304.8924,584.0742C304.89447,584.2223,305.07147,584.516,305.29657,584.7103C306.04742,585.4397,305.57202,586.7053,303.84454,588.4331C302.9933,589.3092,302.23828,590.0111,302.1396,590.0123C302.06555,590.01355,301.3316,590.46814,300.54993,591.0226C299.76813,591.5768,299.0094,592.032,298.91122,592.05804C298.81247,592.05963,298.25015,592.4379,297.68875,592.86554C294.58926,595.30414,293.95462,595.78217,292.7314,596.5402C291.14102,597.5009,289.8467,598.45746,289.4584,598.90717C289.3127,599.0821,288.75156,599.5345,288.21402,599.9122C286.9191,600.8195,284.67947,602.9743,284.6843,603.31964C284.68643,603.4677,284.5402,603.5932,284.36746,603.59576C284.04666,603.6004,280.76596,607.15216,280.5519,607.7227C280.48074,607.92145,280.14023,608.2719,279.79868,608.54803C279.06705,609.15106,277.15842,612.0168,277.1655,612.5102C277.16806,612.6829,277.07138,612.8326,276.9233,612.83466C276.79996,612.8365,276.67813,612.9367,276.6799,613.0601C276.68204,613.2082,276.29776,613.9543,275.84036,614.7507C275.38278,615.5468,275.0012,616.46576,275.0062,616.8112C274.9915,617.5025,274.5093,618.299,274.06503,618.30536C273.91708,618.3077,273.79715,618.5562,273.80106,618.82745C273.80527,619.1236,273.61392,619.54584,273.39505,619.7714C273.15158,619.997,272.7888,620.5203,272.57248,620.9183C271.9011,622.2856,271.5148,622.88324,271.02908,623.43317C270.7618,623.7332,270.32547,624.28265,270.05936,624.65656C269.7936,625.0555,269.4542,625.4797,269.33304,625.6296C269.1871,625.7796,268.75113,626.3537,268.36417,626.90216C267.95248,627.45123,267.05435,628.50055,266.37357,629.2264C265.66843,629.9522,265.08652,630.67633,265.0883,630.79974C265.09006,630.92303,264.91977,631.0982,264.72336,631.175C264.52737,631.2767,264.35684,631.42706,264.35898,631.57513C264.3607,631.69867,264.19193,631.97235,263.97305,632.1977C263.68118,632.498,263.26248,632.55365,261.9531,632.4737L260.29776,632.34955L258.83994,633.9499C257.55197,635.3505,257.20938,635.55304,255.97983,635.86676C254.70059,636.1568,254.35477,636.13715,252.52164,635.66986C251.38235,635.38995,250.24393,635.18414,249.9725,635.18805C249.7012,635.19196,248.85892,634.982,248.11453,634.6965C246.97336,634.2933,246.03433,634.2083,242.33194,634.1873C237.96326,634.17615,237.88922,634.17725,236.98517,634.8074C235.00525,636.1438,233.62439,639.66833,233.67517,643.19714C233.68756,644.0608,233.59991,644.8269,233.47797,644.9276C233.33093,645.00354,233.33966,647.3235,233.4602,650.5548C233.5528,653.5647,233.66943,656.5248,233.67828,657.1415C233.75287,658.8927,233.41089,662.5753,233.16626,662.7268C233.06866,662.8021,232.97491,663.14905,232.97986,663.4945C232.98914,664.1362,232.68573,665.35,232.20923,666.5414C231.97137,667.16174,231.74237,668.39905,231.32141,671.73694C231.0351,674.13513,231.1167,679.81055,231.46692,681.854C232.02979,684.9557,232.68286,687.4636,233.05841,687.8286C233.2085,687.97437,233.33728,688.3429,233.34149,688.6389C233.34613,688.9597,233.47412,689.2787,233.59857,689.35095C233.74768,689.42285,233.85065,689.71765,233.85455,689.98914C233.8581,690.23584,233.98468,690.45605,234.10803,690.45447C234.2561,690.45215,234.3587,690.7223,234.36365,691.0676C234.36932,691.46265,234.52057,691.6824,234.74268,691.6792C234.94006,691.6765,235.11493,691.8219,235.11743,691.9946C235.12311,692.3894,236.67468,693.8728,237.06946,693.8673C237.24219,693.8645,237.367,693.9614,237.36914,694.1096C237.37128,694.25757,238.23633,694.344,239.49472,694.32574C241.54282,694.2962,241.64114,694.2702,242.64084,693.4168C243.22623,692.9393,243.8375,692.5356,244.03488,692.5329C244.6271,692.52423,246.20334,690.5765,246.33896,689.71075C246.49557,688.5977,247.26352,685.3536,247.59616,684.46027C248.14139,682.8975,248.37753,682.1539,248.49307,681.6091C248.6536,680.76764,250.05301,678.5262,251.09842,677.42523C251.56015,676.925,251.92142,676.3029,251.91647,675.95746C251.9122,675.66144,252.00699,675.38837,252.10568,675.3869C252.22903,675.3852,252.27365,675.06366,252.19376,674.64545C252.11154,674.0788,252.18295,673.9052,252.47916,673.90094C252.70114,673.89777,252.87173,673.747,252.86942,673.5743C252.86679,673.40155,253.1323,672.9781,253.47244,672.6032C253.81259,672.22797,254.0776,671.77997,254.07474,671.58246C254.0723,671.4097,254.28873,671.0118,254.55588,670.71173C254.8229,670.4119,255.04074,670.1126,255.03983,670.0385C255.03842,669.9399,255.52231,669.26654,256.1293,668.5666C256.73575,667.8421,257.2194,667.1441,257.21762,667.0207C257.21585,666.8975,257.4089,666.5986,257.65298,666.39764C257.87173,666.1723,258.50345,665.4721,259.03714,664.82294C260.1047,663.54865,260.1047,663.54865,263.2214,664.02203C264.55673,664.2005,264.08188,663.7874,262.54593,663.38995C261.58005,663.15717,261.35538,662.9876,261.34915,662.54364C261.34097,661.9759,262.0211,661.2255,263.04947,660.6431C263.4166,660.44073,264.89407,660.1971,266.61996,660.0738C271.47714,659.73224,273.64523,659.47894,273.79013,659.25494C273.8624,659.1303,274.1572,659.0273,274.47787,659.0229C275.1688,659.0129,275.75424,658.5356,275.94168,657.84186C276.05942,657.44525,275.85666,657.0778,275.10507,656.299C274.20328,655.3741,273.56442,653.85284,273.54532,652.52057C273.53677,651.92816,272.41147,650.9078,271.76993,650.9172C271.05423,650.9274,270.55478,650.51495,270.54593,649.898C270.54233,649.6513,270.4407,649.4555,270.29276,649.45746C269.9473,649.4626,269.96854,647.5125,270.33365,647.1618C270.47922,646.9869,271.06516,646.534,271.6019,646.1069C272.1392,645.70404,272.77365,645.2015,273.01712,644.9759C274.09006,644.07196,274.40732,643.8206,275.04208,643.3422C275.40836,643.0656,275.8472,642.6893,276.01743,642.51385C276.18814,642.36334,276.38333,642.2126,276.4575,642.2115C276.5314,642.21027,276.79996,642.009,277.04355,641.7834C277.84683,641.0069,278.55472,640.45355,278.7521,640.45074C278.8754,640.4489,279.4127,640.0462,279.9487,639.5695C280.5095,639.0927,281.022,638.69025,281.12082,638.68915C281.19473,638.6879,281.87997,638.28326,282.6135,637.80365C283.34714,637.3243,284.05698,636.9191,284.18033,636.9173C284.32846,636.9152,284.42563,636.8151,284.42386,636.6917C284.4221,636.5683,284.8127,636.26666,285.30246,636.0129C285.7922,635.7342,286.38028,635.4296,286.6495,635.27765C286.89456,635.1508,287.11368,634.95,287.11227,634.8514C287.1105,634.72797,287.282,634.65155,287.47952,634.64874C287.87436,634.643,289.49057,633.7559,290.07535,633.2293C290.26987,633.029,290.53915,632.877,290.61307,632.87616C290.934,632.8714,291.76065,631.99567,291.75626,631.6995C291.75375,631.5268,291.97372,631.37555,292.24503,631.37164C292.51657,631.36774,292.73624,631.19183,292.73337,630.99445C292.73056,630.79706,292.9008,630.62177,293.09818,630.61896C293.32028,630.6158,293.73654,630.3879,294.00412,630.11237C294.2963,629.83673,294.90805,629.48236,295.35,629.3033C295.79153,629.12396,296.1578,628.84735,296.1553,628.6746C296.15286,628.5019,296.3729,628.35065,296.6442,628.34674C296.91568,628.34283,297.1365,628.2658,297.13474,628.1423C297.13345,628.0435,297.64548,627.61676,298.23215,627.21344C298.843,626.78485,299.33084,626.383,299.32907,626.2596C299.32767,626.1611,299.42514,626.0854,299.57318,626.08325C299.79535,626.0801,300.60083,625.45154,301.42804,624.6251C301.59857,624.4746,301.81848,624.3231,301.94196,624.32153C302.06525,624.3197,302.30884,624.0941,302.50232,623.8198C302.6958,623.54565,302.9889,623.31934,303.16162,623.3169C303.33435,623.3142,303.4806,623.18884,303.47845,623.0408C303.47278,622.646,305.95667,620.3148,306.40082,620.3086C306.5489,620.3063,306.64655,620.23096,306.64478,620.10754C306.6405,619.81165,308.24414,618.0608,308.5404,618.0565C308.71313,618.0541,308.83386,617.8795,308.8307,617.65735C308.82465,617.2379,315.73065,610.0554,316.1502,610.0492C316.29816,610.04724,317.02942,609.3949,317.80786,608.6188C318.5863,607.81775,319.87653,606.5896,320.63193,605.91235C321.41153,605.2102,322.5079,604.20703,323.06772,603.6564C323.6522,603.10474,324.69858,602.078,325.4042,601.37683C328.54453,598.3451,330.96732,595.20044,330.9528,594.1887C330.94852,593.8927,331.04227,593.54565,331.16348,593.396C331.50394,593.04553,331.84952,589.60974,331.68228,588.27954L331.51718,587.0973L333.14737,585.4696C334.02298,584.56836,334.75223,583.7931,334.75113,583.7189C334.7499,583.645,334.9678,583.3457,335.23502,583.04553C335.527,582.74536,335.79092,582.22327,335.8599,581.8766C336.0895,580.6886,336.4644,579.27625,336.6802,578.85364C336.80008,578.60535,336.8914,578.0856,336.8854,577.666C336.8793,577.24646,336.9705,576.7268,337.09036,576.47864C337.4268,575.85657,338.04813,572.71326,338.03506,571.8004C338.02884,571.38074,338.14603,570.93494,338.26822,570.859C338.41507,570.78284,338.50516,570.16455,338.4955,569.4984C338.486,568.8323,338.60037,568.2134,338.72256,568.1378C338.86978,568.0613,338.9589,567.39355,338.949,566.70264C338.93863,565.98706,339.02335,565.02356,339.16483,564.55237C339.51456,563.14075,340.06705,558.64075,340.04678,557.2344C340.03653,556.5188,340.12552,555.8511,340.2726,555.7749C340.39493,555.6992,340.50906,555.05566,340.49918,554.36475C340.48465,553.353,340.55508,553.1052,340.97305,553.0006C341.39102,552.89575,341.4379,552.72253,341.2769,551.8114C341.19437,551.22046,341.2559,550.3556,341.4208,549.8104C341.63345,549.141,341.72403,546.869,341.683,542.30347C341.64273,536.0598,341.74222,534.405,342.17032,533.28796C342.45523,532.4944,342.86172,529.8722,342.84573,528.7617L342.83084,527.72534L344.0894,527.7074C344.85428,527.6963,345.4733,527.8356,345.69864,528.0543C345.9235,528.2488,346.3207,528.4158,346.61673,528.4115C347.308,528.4263,349.4384,528.96313,349.66373,529.1821C349.76395,529.2793,350.38162,529.3446,351.04788,529.33484C351.68948,529.3258,352.2338,529.41675,352.236,529.5648C352.2377,529.68823,352.43704,529.8085,352.68375,529.80493C352.95523,529.801,353.4755,529.94165,353.87296,530.13354C354.27042,530.3004,354.96573,530.61145,355.41263,530.7776C356.20694,531.08716,356.23245,531.1609,356.1227,532.10034C355.81326,534.6222,355.69803,535.1915,355.50064,535.19446C355.37723,535.19617,355.28226,535.44434,355.2869,535.76514C355.29153,536.08594,355.12552,536.5571,354.93192,536.8313C354.73807,537.0812,354.57205,537.55237,354.57632,537.8485C354.5806,538.14465,354.4866,538.4669,354.33963,538.54297C354.1924,538.6189,354.0988,538.96594,354.10342,539.28674C354.10806,539.60754,354.0142,539.95447,353.86722,540.0305C353.74503,540.10645,353.626,540.4043,353.6299,540.67566C353.63345,540.9225,353.54056,541.3434,353.4208,541.5917C352.845,542.7355,351.9727,545.5863,351.9832,546.302C351.9871,546.57336,351.89273,546.8955,351.74576,546.9717C351.5989,547.04785,351.50577,547.4441,351.512,547.8635C351.5175,548.2584,351.42618,548.77783,351.28177,549.02686C350.9456,549.67346,350.34,552.1748,350.35025,552.89026C350.35526,553.2357,350.26077,553.53345,350.13748,553.53503C350.01407,553.537,349.87344,554.0571,349.8085,554.69995C349.74417,555.3673,349.54373,556.8756,349.33914,558.0879C349.15897,559.2997,348.99478,561.6223,348.99393,563.2759C348.99283,564.90466,348.90298,567.25073,348.7974,568.4863C348.69156,569.69727,348.50137,571.92114,348.3997,573.42834C347.96634,579.33325,347.90323,580.0991,347.7344,580.37317C347.49283,580.7468,346.76138,588.2356,346.57266,592.26135C346.51675,593.5209,346.35892,594.5597,346.26028,594.56116C346.13687,594.56287,345.99783,595.20654,345.9595,595.97205C345.89688,596.76294,345.67276,598.3457,345.46756,599.5084C345.26212,600.6714,345.0358,602.1062,344.97073,602.7241C344.90567,603.3423,344.7659,603.9364,344.64444,604.06177C344.5231,604.2113,344.43094,604.657,344.4368,605.07654C344.45438,606.28564,343.8284,607.38074,342.99197,607.5654C342.13113,607.77527,341.7581,607.58325,341.74954,606.99084C341.7404,606.3495,341.08182,605.1741,340.35672,604.5183C339.55618,603.7894,337.8776,603.7639,337.0734,604.46655C336.147,605.2699,336.36124,606.4269,337.637,607.6177C338.58743,608.4927,338.78958,608.8353,339.08218,610.28723C339.50858,612.47766,339.3566,613.9358,338.47183,615.89856C338.06522,616.7927,337.37393,618.50586,336.92288,619.74634C336.4468,620.9625,335.923,622.3026,335.70694,622.72534C335.49063,623.12317,335.32645,623.71814,335.33072,624.01416C335.33475,624.3104,335.12173,624.9304,334.85684,625.4031C334.59207,625.8513,334.30936,626.7931,334.22037,627.4606C334.1558,628.12805,333.94302,628.77295,333.77237,628.92346C333.60147,629.0492,333.41226,629.6195,333.37064,630.1633C333.14944,631.94336,332.82425,633.355,332.41934,634.37256C332.15665,634.9933,332.11295,635.38904,332.2864,635.4359C332.41055,635.4833,332.5364,635.6543,332.53873,635.82715C332.5414,635.9999,332.94095,636.3395,333.41385,636.6044C333.88626,636.84436,334.2853,637.13477,334.28677,637.2333C334.28836,637.3567,334.5115,637.42773,334.75845,637.4242C335.0297,637.4203,335.32742,637.5145,335.40347,637.6615C335.4794,637.78406,335.82645,637.90234,336.14725,637.8977C336.46805,637.89294,336.81497,637.98694,336.89102,638.1339C336.96695,638.2562,337.28934,638.37476,337.58548,638.3705C337.90628,638.3661,338.3527,638.50757,338.62698,638.70105C338.90103,638.8699,339.52103,639.0834,339.99124,639.1749C341.6243,639.47266,343.57877,639.79004,344.56778,639.92395C345.11172,639.9901,345.68143,640.1298,345.83133,640.2509C345.98123,640.3725,346.8234,640.58234,347.68863,640.6933C348.5546,640.82904,349.84085,641.03265,350.5092,641.1712C352.6127,641.5605,354.41837,641.83075,355.82767,642.0079C356.569,642.0959,357.31204,642.258,357.4861,642.35406C357.88467,642.5953,362.95483,643.3613,365.59863,643.54565C366.41382,643.6079,367.1814,643.76965,367.30627,643.89124C367.4563,644.01245,367.95117,644.1041,368.42004,644.09705C368.91345,644.0902,369.75415,644.20154,370.2992,644.3418C373.39453,645.0624,388.1561,645.2201,392.6384,644.5635C395.27402,644.18005,397.56186,643.678,398.1008,643.3988C398.34592,643.272,398.73923,643.1676,398.98593,643.16406C399.67685,643.15393,401.0234,642.39417,401.18942,641.92285C401.26035,641.6997,401.4294,641.45056,401.57614,641.3496C402.13828,640.9717,401.63034,638.2639,400.80063,637.2146C400.64987,637.01917,400.36948,636.3815,400.18808,635.7921C399.7208,634.19434,398.63986,632.82776,397.8746,632.8141C397.52914,632.8191,397.15756,632.7256,397.00778,632.6044C396.88254,632.4828,395.5715,632.2794,394.06442,632.1531C389.93698,631.7682,387.1899,631.2401,386.76315,630.7279C386.56198,630.4839,385.93796,629.99927,385.41452,629.6366C384.86667,629.29895,384.01718,628.5708,383.53992,628.01C381.98523,626.3047,380.43384,624.8218,379.2611,623.9498C378.13855,623.1023,377.76453,622.8363,376.44543,622.0654C376.04724,621.8489,375.42395,621.4137,375.0741,621.1227C374.69934,620.807,374.3258,620.5657,374.22693,620.56714C374.10364,620.56885,374.02795,620.44666,374.02563,620.2739C374.02332,620.12585,373.74487,619.6362,373.39307,619.1968C372.58826,618.172,372.6078,617.8015,373.43542,616.9999C373.99512,616.44885,374.09045,616.20044,374.02502,615.09094C373.99036,614.4004,373.83313,613.76074,373.70862,613.6887C373.58435,613.6162,373.3545,613.0768,373.19775,612.4867C372.93896,611.65125,372.7881,611.45605,372.3192,611.46277C371.9984,611.4674,371.57544,611.22644,371.37378,610.93335C371.07153,610.51794,370.74902,610.3993,369.90967,610.3866L368.8241,610.4022L368.73535,609.3915C368.67786,608.8247,368.85925,607.7117,369.09473,606.91833C369.35425,606.1002,369.63525,605.0348,369.70178,604.5155C369.7931,603.9961,370.07605,603.07886,370.33862,602.4581C370.57654,601.83765,370.78613,600.9708,370.78027,600.5514C370.79822,600.1068,371.2002,598.8668,371.70313,597.79846C372.8037,595.38873,372.74304,594.59955,371.4336,594.4952C370.98865,594.4522,370.37256,594.5351,370.10315,594.6622C369.80908,594.8145,369.41687,594.9931,369.2202,595.07C368.46045,595.42645,367.7516,595.90533,367.11926,596.55634C366.75464,596.9318,366.31445,597.2343,366.1416,597.23676C365.94434,597.2397,365.79883,597.4143,365.8015,597.6117C365.80505,597.85864,365.56042,597.98535,365.04224,597.9928L364.27722,598.0038L364.40466,596.57074C364.46765,595.80475,364.6217,594.49445,364.73328,593.67816C364.86963,592.862,365.0243,591.60077,365.11255,590.884C365.1764,590.1673,365.36462,589.5229,365.46216,589.44745C365.58447,589.37164,365.67834,589.0495,365.67407,588.75336C365.66968,588.43256,365.83655,588.03534,366.03174,587.8597C366.25122,587.6838,366.39148,587.13885,366.38367,586.596C366.37622,586.0778,366.46765,585.5828,366.615,585.50665C366.73718,585.43085,366.85474,585.03436,366.84924,584.63947C366.84338,584.2447,366.93652,583.84845,367.0835,583.7723C367.2058,583.6965,367.32227,583.2259,367.31567,582.757C367.30896,582.2884,367.40234,581.9167,367.52576,581.91486C367.64893,581.91315,367.79358,581.664,367.86304,581.34235C368.00122,580.6491,368.49878,579.21063,368.76196,578.6392C368.88184,578.3907,368.9745,577.9698,368.97095,577.72296C368.96704,577.4516,369.08618,577.1535,369.2085,577.07794C369.35547,577.0018,369.4485,576.6055,369.44226,576.1861C369.43677,575.7912,369.53088,575.4688,369.67896,575.46686C369.80212,575.465,370.0686,575.0909,370.25903,574.61945C370.45007,574.1724,370.71497,573.69965,370.86182,573.6235C371.0083,573.52264,371.12415,573.0026,371.1167,572.48444C371.10925,571.96625,371.20068,571.4467,371.34766,571.3704C371.49475,571.2945,371.5829,570.57733,371.57202,569.81244C371.56055,569.02277,371.74146,567.8603,372.00293,567.16534C372.23975,566.4709,372.6433,565.35443,372.8556,564.68475C373.09253,563.9904,373.37805,563.2459,373.47363,563.0225C373.59338,562.77386,373.68604,562.3531,373.6825,562.1065C373.6786,561.8349,373.77344,561.56195,373.8955,561.486C374.16467,561.3095,374.8728,559.0534,374.86304,558.38715C374.85913,558.1158,374.97827,557.81793,375.10046,557.742C375.24756,557.66595,375.34058,557.2697,375.33545,556.8996C375.32996,556.5295,375.39807,556.1335,375.4956,556.0335C375.78748,555.7331,376.67505,552.2403,376.96655,550.1877C377.0791,549.4456,377.25952,548.25836,377.37317,547.5903C377.4867,546.89764,377.7135,545.51227,377.84717,544.49835C378.1361,542.29755,378.57996,540.539,378.85144,540.5351C378.95007,540.53375,379.0453,540.28546,379.04065,539.96466C379.036,539.64386,379.12964,539.29694,379.22632,539.14764C379.42053,538.92267,379.89185,537.3609,380.45105,535.08234C380.6151,534.4628,380.82678,533.7441,380.9215,533.47125C381.13574,532.92523,381.16003,532.8754,381.83594,528.3986C382.10767,526.6917,382.40332,524.96,382.52087,524.5385C382.66272,524.1171,382.7489,523.22723,382.7384,522.51166C382.72864,521.82074,382.84253,521.1773,382.9652,521.1016C383.11206,521.0253,383.20435,520.5799,383.1974,520.11115C383.19104,519.6668,383.34814,518.57855,383.55798,517.7115C384.04745,515.70526,383.8302,512.5988,383.06714,511.0551C382.43127,509.73138,379.453,506.86188,378.2118,506.3615C377.7151,506.14655,377.24146,505.83246,377.14,505.63654C377.06323,505.44,376.88806,505.26996,376.7151,505.27228C376.3203,505.25336,375.24524,504.30634,374.56482,503.3288C373.8595,502.3271,373.33472,501.89044,372.8407,501.87286C372.66797,501.87518,372.29395,501.6092,372.0177,501.26764C371.74133,500.9261,371.3673,500.65985,371.16992,500.66254C370.77502,500.6684,369.93005,500.26105,369.20593,499.6789C368.9314,499.46075,368.43408,499.1966,368.08704,499.10272C366.84827,498.77496,366.1023,498.39105,366.09753,498.07025C366.09204,497.67548,365.49097,497.06683,364.4198,496.36652C363.79614,495.93134,363.3015,495.83966,361.79626,495.86115C360.3158,495.88275,359.87012,495.79022,359.39575,495.40216C359.07104,495.1353,358.5486,494.84692,358.2266,494.77747C357.90433,494.68347,357.65567,494.53894,357.65372,494.41553C357.65213,494.29224,357.47794,494.19592,357.28055,494.1986C357.08304,494.20166,356.33878,493.9408,355.61856,493.63013C354.8986,493.31995,354.0546,492.98633,353.75735,492.9165C353.48465,492.8219,353.08646,492.60547,352.9357,492.41003C352.76016,492.21533,352.3627,492.0481,352.06656,492.05237C351.74576,492.05713,351.4484,491.96265,351.3976,491.8645C351.2952,491.61914,348.63663,490.37402,348.2665,490.37952C347.8716,490.385,347.88467,489.5703,348.2493,489.19495C348.4197,489.01965,348.7388,488.89185,348.96085,488.88843C349.183,488.88525,349.42715,488.70898,349.52298,488.51038C349.59427,488.3119,349.9617,488.13367,350.33182,488.12854C351.7626,488.08313,352.36014,486.71704,351.67105,485.14758C351.36465,484.43628,351.36038,484.14014,351.5956,483.32227C351.85513,482.50415,351.8527,482.33142,351.47916,482.08972C351.2045,481.87158,351.07498,481.4541,351.11453,480.76245C351.1298,480.12036,350.9744,479.60437,350.69852,479.28748C350.12198,478.6787,350.16434,478.1847,350.88895,477.088C351.42007,476.266,351.44254,476.11755,351.1182,475.87537C350.81937,475.68225,350.71304,475.16565,350.6951,473.90723C350.68143,472.9696,350.4915,471.76294,350.2863,471.22266C350.0811,470.68286,349.92044,469.82117,349.88882,469.328C349.88174,468.83472,349.7764,468.3673,349.6519,468.2948C349.42752,468.15002,349.09964,465.93347,348.97037,463.813C348.9352,463.09766,348.7272,462.3601,348.52713,462.16553C347.67435,461.2152,347.54752,460.99512,347.5369,460.25488C347.53104,459.83533,347.2985,459.1228,347.0458,458.70703C346.76846,458.29126,346.48453,457.43164,346.37613,456.76672C346.26834,456.1266,346.08817,455.61072,345.96475,455.61267C345.84146,455.61426,345.73953,455.3938,345.73587,455.14697C345.7321,454.8756,345.62955,454.6056,345.50504,454.53345C345.40518,454.4607,345.2211,453.67358,345.10965,452.78662C344.99783,451.87512,344.75943,450.7434,344.55496,450.2527C344.3505,449.76184,344.01224,448.55737,343.77664,447.62308C343.54068,446.66373,343.12613,445.28775,342.84378,444.52676C342.56094,443.741,342.34573,442.51004,342.33267,441.59708C342.3206,440.7581,342.20584,439.64908,342.0507,439.1575C341.9202,438.66605,341.60635,437.4363,341.36966,436.428C341.10684,435.32108,340.72342,434.38858,340.39798,434.07242C339.69742,433.4163,339.24173,432.6082,339.23355,432.04068C339.23,431.7941,338.99857,431.15555,338.74405,430.61624C338.48978,430.10147,337.95523,428.9739,337.57242,428.09097C337.18948,427.2078,336.50162,425.7123,336.01883,424.75674C335.5363,423.80118,335.15335,422.91824,335.15164,422.79483C335.1498,422.67154,334.9224,422.3046,334.64603,421.96304C334.24405,421.47525,334.13797,420.95816,334.11624,419.45316C334.09573,418.02176,333.90872,417.0375,333.4202,415.66238C332.75247,413.87003,332.75003,413.6973,333.02322,412.08926C333.18216,411.12454,333.23758,409.84012,333.1525,409.07645C332.9888,407.99295,333.05765,407.62173,333.3964,407.14786C333.63858,406.82352,334.02286,406.10233,334.26187,405.55594C334.5009,405.0092,334.86172,404.36258,335.08072,404.13736C335.34744,403.81265,335.39114,403.41714,335.25674,402.65384C335.09598,401.76773,334.79373,401.35257,333.41776,400.06424C332.51736,399.23795,331.6686,398.5591,331.5452,398.56094C331.39713,398.56302,330.79788,398.07803,330.22134,397.4694C329.24454,396.47147,329.14255,396.2509,328.94785,394.72318C328.77756,393.17105,328.84653,392.8245,329.69864,390.2947C330.21982,388.78177,330.78006,386.55215,330.93484,385.2914C331.2233,383.04117,331.10397,381.6116,330.30948,377.84683C329.96487,376.19803,329.56033,373.8101,329.20193,371.19876C329.0107,369.91837,328.72153,368.6885,328.5209,368.46927C328.34537,368.27432,328.19266,367.95572,328.19052,367.80765C328.18808,367.63492,328.0847,367.31534,327.95786,367.0706C327.4501,366.0906,326.91275,364.7654,326.90848,364.46927C326.90604,364.29654,326.7026,363.8799,326.45114,363.56265C325.7723,362.68417,325.4313,361.28232,325.21902,358.546C325.0101,356.03134,324.17117,350.91,323.76053,349.80527C323.55466,349.2159,323.2706,348.35617,322.31058,345.0875C322.07706,344.30124,321.7449,343.51633,321.57004,343.3707C321.3948,343.20016,321.06442,342.53854,320.85782,341.89975C320.62656,341.2617,320.09378,340.25754,319.66537,339.64633C319.2371,339.03574,318.88345,338.4731,318.88205,338.37448C318.8749,337.88095,317.2144,333.95566,316.91458,333.71347C316.73972,333.5676,316.58633,333.19992,316.58243,332.92844C316.56754,331.89206,314.0148,326.00546,313.26395,325.27573C312.93863,324.9597,312.05496,323.58994,311.52274,322.61032C311.21762,321.9979,310.46152,320.89792,309.8583,320.16623C308.6768,318.6533,305.8992,316.00302,305.52896,316.00827C305.40555,316.0101,304.7579,315.59958,304.10855,315.066C303.48422,314.5566,302.63675,313.97653,302.2888,313.8088C301.5433,313.4492,299.7009,312.34042,299.50064,312.1461C299.12534,311.7811,295.4927,309.76035,294.69882,309.47543C294.20297,309.30978,293.78024,309.09372,293.77884,308.99496C293.77744,308.8962,293.13187,308.63412,292.3635,308.3984C291.57053,308.1876,290.82614,307.9022,290.70102,307.7806C290.55148,307.68393,290.25388,307.58957,290.0071,307.5931C289.76035,307.59665,289.3643,307.50363,289.11575,307.38376C288.89188,307.26364,287.92386,306.88254,286.95602,306.52634C286.01303,306.16965,285.02036,305.78903,284.79648,305.6689C284.54807,305.54904,284.07785,305.45712,283.7324,305.46213C283.38693,305.467,283.11392,305.37204,283.11227,305.24887C283.1105,305.12546,282.78726,304.95737,282.36618,304.86447C281.97012,304.7717,281.57266,304.60458,281.49698,304.48227C281.3964,304.36032,281.0743,304.26633,280.72885,304.2712C280.4081,304.27585,280.13492,304.15634,280.13315,304.0328C280.131,303.88474,279.93216,303.78903,279.70975,303.76755C279.46262,303.74655,278.49423,303.3408,277.52444,302.83615C274.36575,301.1539,273.07486,300.62985,271.74057,300.5256C271.02396,300.46188,270.37985,300.2983,270.30447,300.20053C270.22867,300.07846,269.85703,299.98508,269.4868,299.99008C269.11667,299.9957,268.72055,299.90244,268.59543,299.7811C268.19528,299.4166,266.0322,298.3121,265.73605,298.31638C265.58798,298.31882,265.23935,298.1014,264.93936,297.8342C264.63937,297.56735,264.24136,297.35092,264.06863,297.35324C263.87128,297.35608,263.10065,296.97217,262.35358,296.51404C261.60663,296.05615,260.78656,295.67322,260.51514,295.67712C260.24365,295.68103,260.01984,295.5608,260.0182,295.4375C260.01593,295.28943,259.89105,295.19214,259.74304,295.19434C259.32355,295.20032,256.44238,293.93372,256.3405,293.71326C256.28973,293.6151,256.0415,293.52014,255.77008,293.52405C255.52332,293.5276,255.29987,293.4319,255.29773,293.2838C255.29498,293.08643,254.59875,292.7262,253.18396,292.17908C252.71265,292.01294,250.5373,291.7727,247.00476,291.552C245.79388,291.44604,245.42499,291.5254,244.93701,291.92725 Z M273.75882,312.14597C274.75253,312.6003,275.72055,312.98154,275.89316,312.9791C276.09067,312.97617,276.36423,313.1201,276.5148,313.29074C276.6652,313.46127,277.18777,313.74985,277.68417,313.94028C278.1553,314.1063,278.5538,314.34763,278.55563,314.47092C278.55704,314.56967,278.75583,314.6655,279.02725,314.6616C279.27402,314.65805,279.62198,314.8259,279.7974,315.02072C279.9731,315.21567,280.24704,315.3845,280.41977,315.38205C280.56784,315.37985,280.91647,315.59665,281.16708,315.86484C281.41776,316.13254,281.7664,316.34995,281.91434,316.34775C282.08707,316.3453,282.78506,316.82858,283.48502,317.43576C284.16013,318.04306,284.858,318.52646,285.00613,318.5245C285.15408,318.5222,285.27908,318.61935,285.28085,318.74277C285.28476,319.01413,285.40952,319.11105,287.5339,320.95627C288.3834,321.68442,289.53336,322.70444,290.08347,323.19028C290.6091,323.7009,291.13333,324.11288,291.25674,324.11118C291.35544,324.1097,291.97928,324.59445,292.67905,325.2014C293.35397,325.78403,294.05185,326.26755,294.22507,326.28976C294.74313,326.28232,296.01413,327.1279,297.43906,328.39072C297.7643,328.70688,298.11337,328.9487,298.2122,328.94736C298.55765,328.94235,300.4177,331.28488,300.8763,332.29025C301.1564,332.87875,301.45908,333.3431,301.5825,333.34128C301.68118,333.33994,301.79337,334.2762,301.80984,335.41122C301.8264,336.571,301.96432,337.58127,302.0889,337.65317C302.23795,337.7253,302.35123,338.73557,302.36746,339.87045C302.397,341.91855,302.92813,344.52707,303.42862,345.01376C303.5538,345.1351,303.68497,345.67648,303.6924,346.19467C303.69968,346.68808,303.80783,347.35287,303.93582,347.6716C304.0638,347.9907,304.3237,348.90036,304.50815,349.71188C304.69272,350.52377,305.0801,351.7275,305.33676,352.4149C305.5931,353.0776,305.87668,353.9127,305.95578,354.2573C306.00992,354.60202,306.1901,355.11765,306.31778,355.41183C306.7783,356.54086,307.0085,357.10483,307.4443,358.2341C307.67557,358.87228,307.98032,359.4603,308.10495,359.53232C308.22964,359.6295,308.33286,359.94858,308.33786,360.29404C308.3425,360.61508,308.44797,361.0825,308.57468,361.32748C309.10684,362.2822,309.61868,363.55844,309.6238,363.9039C309.62698,364.12595,309.75394,364.3707,309.87845,364.4432C310.32645,364.70822,310.1743,366.14194,309.55075,367.40927C309.23965,368.0804,308.9542,368.82468,308.957,369.0222C308.9659,369.63925,307.67685,370.96567,306.8901,371.1744C306.12772,371.35812,305.5679,371.9094,305.55106,372.4526C305.55777,372.92123,304.0259,374.5228,303.58176,374.5295C303.3843,374.53232,302.99203,374.71042,302.72348,374.9117C302.1133,375.3895,301.69382,375.39548,301.19284,374.8845C300.84244,374.5439,300.7596,373.92807,300.71762,371.01633L300.66757,367.53708L301.8185,366.90353C302.4551,366.54892,303.11362,365.99643,303.28128,365.64853C303.44907,365.30075,303.83475,364.65353,304.14865,364.17978C304.58286,363.48276,304.67496,363.01218,304.6508,361.33432L304.62173,359.31088L303.5706,358.3143C302.97055,357.78,302.3215,357.2712,302.09854,357.20016C301.80087,357.10593,301.61856,356.442,301.36703,354.39706C301.03256,351.73642,300.63687,349.96506,300.2358,349.52658C300.13522,349.40463,300.03226,349.10995,300.02872,348.8635C300.0223,348.41904,299.94577,348.24728,299.18405,346.75302C298.95505,346.2872,298.7449,345.4017,298.73532,344.73544C298.72446,343.97067,298.5936,343.45407,298.31918,343.26047C297.7946,342.8242,296.9553,341.0836,296.9457,340.41733C296.9413,340.1212,296.53702,339.46066,296.06076,338.9492C295.5847,338.4625,295.18137,337.87595,295.17795,337.62924C295.168,336.93832,294.39615,336.48044,293.0115,336.30295C292.29465,336.21445,291.65054,336.051,291.54996,335.92905C291.47427,335.80673,291.1768,335.71225,290.90536,335.71616C290.63394,335.72006,290.2361,335.5283,290.085,335.30844C289.7582,334.89352,289.7335,334.8939,289.29538,335.3198C288.75912,335.79648,287.97073,335.8818,287.57022,335.49265C287.16977,335.1035,284.77585,335.11325,283.42435,335.52768C281.7778,336.02023,279.86557,336.91135,279.8691,337.1583C279.8704,337.25693,279.60037,337.3596,279.2549,337.3646C278.83542,337.37057,278.54233,337.57224,278.37527,337.96957C278.23184,338.29245,277.84268,338.69296,277.52402,338.84543C277.20523,338.99826,276.8162,339.39877,276.64847,339.74667C276.5054,340.0941,276.2872,340.369,276.16385,340.3707C276.0651,340.37216,275.9703,340.64474,275.97525,340.9902C275.98026,341.33566,275.83615,341.60947,275.66342,341.6119C275.36728,341.61618,274.77298,343.2043,274.7836,343.94455C274.78696,344.16672,274.4736,344.68954,274.10983,345.13876C273.50363,345.88815,272.3986,348.00192,271.8289,349.5649C271.71048,349.9122,271.51974,350.38364,271.39963,350.60776C271.08755,351.22897,271.2615,361.59225,271.58517,361.78525C271.73416,361.85703,271.84183,362.47263,271.8513,363.13876C271.86514,364.10117,271.74716,364.473,271.1882,365.0732C270.55655,365.77365,270.50992,365.9714,270.62753,367.27805C270.71298,368.06662,270.84622,368.75583,270.97073,368.82797C271.29465,369.04526,271.96042,370.7142,271.97018,371.40512C271.9753,371.75058,272.10257,372.02,272.22598,372.01852C272.374,372.01608,272.47482,372.16293,272.4772,372.33566C272.47977,372.5084,272.7573,372.92404,273.08298,373.26486C273.40878,373.60568,273.81345,374.29086,274.01804,374.7816C274.19772,375.27243,274.45065,375.68857,274.54922,375.6871C274.64804,375.68564,274.74887,375.83237,274.75168,376.02975C274.75455,376.22714,275.03305,376.71677,275.3842,377.1064C275.7357,377.5211,276.01376,377.98618,275.99167,378.1589C275.99454,378.3563,275.33713,378.983,274.53104,379.56235C273.7498,380.16586,273.09256,380.79208,273.095,380.9648C273.0975,381.13754,272.55844,381.41696,271.86978,381.57504C271.20602,381.7573,269.8563,382.295,268.87637,382.8027C267.33316,383.6146,266.91507,383.71945,265.902,383.6351C265.185,383.54688,264.3471,383.63293,263.7334,383.864C262.555,384.3004,261.14954,384.39465,260.92218,384.0276C260.846,383.88074,260.30164,383.79016,259.73413,383.79834C258.94446,383.8097,258.52747,383.9884,257.99133,384.46484C257.33435,385.1162,257.2356,385.1173,255.28448,385.0221C254.19745,384.9392,252.22046,384.77014,250.90979,384.59143C248.28918,384.28357,248.33893,384.30774,244.3136,380.71265C243.63849,380.10522,242.94012,379.59705,242.79205,379.59912C242.61932,379.60193,242.46991,379.50513,242.46777,379.35706C242.46313,379.03625,239.22595,377.0343,236.24274,375.547C233.85614,374.3473,227.7251,371.9181,225.94135,371.45007C224.30634,371.0293,223.5622,370.76855,222.81555,370.33496L222.04431,369.90186L222.16742,368.17236C222.28754,366.22095,222.82263,362.23962,223.17151,360.75378C223.28705,360.2091,223.49231,359.04626,223.65216,358.15552C223.7876,357.26514,224.03723,355.7561,224.22113,354.81555C224.40479,353.85034,224.65497,352.36584,224.7901,351.47546C225.35815,348.06128,225.92755,346.4735,229.11249,339.68994C229.8794,338.09937,230.02515,337.92444,231.0564,337.5641C231.81781,337.3064,232.35498,336.9037,232.71777,336.38025C233.29742,335.50806,234.20776,335.2975,235.12732,335.7533C237.21643,336.85852,244.1803,337.12878,246.8081,336.22717C247.54523,335.99426,248.33057,335.68677,248.5509,335.56018C248.79584,335.43323,249.2633,335.328,249.60876,335.32288C249.92957,335.31848,250.8122,334.91064,251.54565,334.4314C252.27924,333.95166,253.06317,333.54553,253.28528,333.54236C253.48267,333.53967,253.65363,333.41394,253.65186,333.29028C253.64972,333.1422,253.74701,333.04224,253.87042,333.04053C254.21594,333.03552,255.35962,331.9082,255.35468,331.56274C255.35254,331.41467,255.5235,331.28906,255.74554,331.2859C256.28845,331.27808,259.5456,327.8004,260.3393,326.35767C261.20605,324.8396,263.4676,322.48706,264.64383,321.9023C265.6735,321.4188,266.08298,320.72177,266.54813,318.74033C266.7352,318.0222,267.11618,317.05392,267.40555,316.58078C267.71945,316.10764,267.9589,315.5859,267.9561,315.38852C267.9493,314.91965,269.26816,312.2352,269.75455,311.7346C270.38693,311.0836,271.79593,311.23605,273.75882,312.14597 Z"/> </g> <g style="fill:rgb(0,0,0); fill-opacity:1.0; stroke-linejoin: miter"> <path d="M218.19092,508.68762C218.19482,508.9591,218.27002,509.03198,218.34106,508.83337C218.41278,508.65942,218.38477,508.438,218.3097,508.36487C218.23438,508.26746,218.1623,508.41626,218.19092,508.68762 Z"/> </g> <g style="fill:rgb(0,0,0); fill-opacity:1.0; stroke-linejoin: miter"> <path d="M241.74753,514.6176C241.75253,514.9631,241.80368,515.08563,241.87515,514.9118C241.9224,514.76324,241.918,514.4671,241.8663,514.29486C241.79019,514.148,241.74258,514.27216,241.74753,514.6176 Z"/> </g> </g> </svg>