<?xml version='1.0' encoding='utf-8'?>
<svg xmlns="http://www.w3.org/2000/svg" version="1.1" width="600px" height="976px" viewBox="0 0 600 976"> <g id="layer1"> <g> <g style="fill:rgb(0,0,0); fill-opacity:1.0; stroke-linejoin: miter"> <path d="M253.05453,73.50139C252.53896,73.65935,251.54189,73.826584,250.80196,73.87773C249.39543,73.941574,248.47603,74.29253,243.48056,76.53631C240.13815,78.04485,235.09126,81.47504,232.69017,83.78059C229.01627,87.33284,225.55049,94.03012,224.00752,100.54247C222.15315,108.20923,223.1782,119.22915,226.21097,124.80239C226.67084,125.60854,227.02036,126.45401,227.0246,126.67618C227.02881,126.89847,227.45032,127.631256,227.98145,128.288C228.5126,128.94461,228.93338,129.64053,228.93689,129.82571C228.94818,130.41824,236.19246,137.31877,238.03099,138.54338C240.54395,140.16241,245.14404,142.44574,246.51988,142.71587C247.18855,142.81425,247.78673,143.09929,247.90129,143.28227C248.05296,143.46465,248.68538,143.60063,249.35188,143.58794C249.98149,143.57597,250.76338,143.7835,250.98979,144.00139C251.66908,144.6552,264.37112,144.41312,266.6173,143.70364C274.5718,141.21817,277.0325,140.09695,280.50186,137.47475C283.6429,135.11806,287.77765,130.48265,289.28012,127.67552C289.56644,127.151596,290.17767,126.17662,290.6464,125.50083C291.07877,124.86289,291.43707,124.22642,291.43427,124.0781C291.43216,123.96702,291.85678,122.92173,292.35336,121.76389C292.88766,120.64232,293.40787,118.780136,293.53342,117.59226C293.69672,116.44065,293.95486,114.4354,294.18866,113.09726C294.98642,108.30331,293.29126,97.11066,291.4266,94.51593C291.1219,94.07733,290.85068,93.45257,290.84433,93.119316C290.83795,92.786064,290.49408,92.23687,290.11743,91.9107C289.70303,91.54815,289.24384,90.778984,289.12146,90.18853C288.962,89.5988,288.6936,89.12236,288.50845,89.1259C288.32327,89.12944,287.98224,88.72844,287.7879,88.250656C286.96997,86.15459,281.64404,80.77323,279.25,79.559364C278.54,79.23942,277.97607,78.80558,277.97253,78.6204C277.9662,78.28715,274.2634,76.431435,273.55975,76.44475C273.33755,76.44902,273.11258,76.305214,273.10904,76.11991C273.10553,75.93485,272.58142,75.648476,271.91272,75.549965C271.24332,75.41459,270.46072,75.170204,270.12457,75.02836C268.8535,74.42277,266.47147,73.83854,264.35428,73.54545C261.08698,73.163124,254.1214,73.11052,253.05453,73.50139 Z"/> </g> <g style="fill:rgb(0,0,0); fill-opacity:1.0; stroke-linejoin: miter"> <path d="M239.23038,203.42421C238.24951,204.44315,238.34412,205.51566,239.64835,207.86172C242.642,213.32451,244.37407,216.73674,244.15544,216.92607C243.90176,217.22746,243.94025,217.3007,242.37466,214.84856C241.15292,212.94536,240.6539,212.02885,239.30273,209.16495C238.52957,207.47562,237.39813,206.42276,236.39835,206.4418C235.39839,206.46085,233.39696,208.35123,233.4146,209.27713C233.42448,209.79556,236.81668,216.73271,238.00137,218.63628C238.1922,218.92912,238.84573,220.17609,239.42447,221.38763C240.04025,222.59845,241.18796,224.50299,241.95047,225.6369C243.54951,227.90312,243.66911,228.34538,242.90625,229.13786C242.07004,229.96892,241.69693,229.82768,239.65909,227.86626C238.63943,226.84831,237.51297,226.05487,237.17969,226.06122C236.51306,226.07391,233.0218,223.65839,231.32362,222.02362C230.07826,220.82489,228.48305,220.70709,227.61337,221.72382C226.634,222.81686,226.8865,224.40497,228.25002,225.97198C229.61351,227.53888,235.48506,232.39119,236.00354,232.3813C236.96634,232.36299,239.4768,235.79742,241.13977,239.47028C242.18192,241.67316,243.3744,243.98433,243.86781,244.60469C244.36125,245.22493,244.89665,246.10384,245.01619,246.54622C245.17278,246.98775,246.38536,248.40938,247.74385,249.71724L250.1975,252.11542L250.14323,260.9333C250.12395,265.7496,249.91869,270.53244,249.75331,271.57272C249.5872,272.57614,249.334,274.8408,249.18196,276.5848C248.99297,278.32956,248.63432,280.89243,248.32857,282.343C248.02208,283.7566,247.65144,285.6902,247.4839,286.6195C247.31642,287.54895,246.94713,289.55615,246.6428,291.08093C246.37547,292.60498,246.00978,294.7976,245.80873,295.91284C245.44862,298.40173,244.91331,301.4126,244.4051,303.90433C244.16777,305.05722,244.10085,309.31882,244.25002,315.20605C244.38655,320.42694,244.37428,325.61356,244.21095,326.7651C244.01277,328.0284,244.0551,330.25034,244.27977,332.3207C244.54436,334.5383,244.55101,336.83505,244.36201,338.57968C244.2058,340.1016,243.98256,341.99527,243.88698,342.81198C243.7914,343.62875,243.5883,344.633,243.4109,345.04376C242.87871,346.2765,241.70183,352.55954,240.71999,359.35764C239.6698,366.4534,240.4034,373.84845,243.02327,383.02283C243.3015,384.0177,243.243,384.83386,242.683,386.54858C242.2989,387.7785,241.8521,389.6023,241.64961,390.64343C241.48354,391.6468,241.11281,393.58017,240.84196,394.91898C240.53413,396.2585,240.13841,398.8221,239.98853,400.67734C239.58405,404.72293,240.11104,416.82678,240.73817,418.63C241.75462,421.42615,242.87798,423.99786,243.4504,424.87622C243.79353,425.38824,244.17659,426.04773,244.29326,426.34192C244.41005,426.6361,245.40459,428.28406,246.47398,429.96783C248.53648,433.22556,248.6924,433.6301,248.0385,434.30942C247.78426,434.57358,247.69255,437.5389,247.80122,443.24185C247.90565,448.72266,248.11662,452.0157,248.38496,452.4922C248.61494,452.89526,248.81633,453.74353,248.82762,454.336C248.83891,454.92853,249.22624,455.81024,249.71747,456.31946C250.17111,456.79242,250.82248,457.92847,251.13641,458.84857C251.41254,459.73242,251.80054,460.65118,251.98993,460.8698C252.14224,461.08923,252.86984,462.33484,253.56113,463.61823C254.28946,464.901,255.24771,466.5868,255.70761,467.39307C256.1668,468.16223,256.82312,469.55746,257.17477,470.514C257.4887,471.43417,257.98987,472.46188,258.29248,472.78952C258.59442,473.0801,258.82507,473.52023,258.82928,473.74246C258.83636,474.11276,259.7618,476.0215,261.3765,479.10257C261.68393,479.68942,261.91888,480.35178,261.92453,480.64804C261.92947,480.90726,262.2021,481.60593,262.50894,482.1558C262.81647,482.74265,263.09195,483.5894,263.1004,484.03378C263.1089,484.47818,263.3032,484.95602,263.49048,485.06357C263.71475,485.1705,263.8728,485.68607,263.88196,486.1675C263.89114,486.6489,264.13165,487.6075,264.44067,488.2684C265.2536,490.10526,265.84573,492.0203,265.86127,492.835C265.86902,493.2424,266.1032,493.8677,266.40726,494.26938C266.67426,494.67184,267.02515,495.59128,267.1497,496.2928C267.52673,498.58246,268.19363,500.53314,268.5661,500.6372C268.7897,500.70697,268.98688,501.333,268.99957,501.9995C269.01297,502.70325,269.21085,503.36627,269.43588,503.5102C269.6609,503.65405,269.7441,504.13403,269.60724,504.72937C269.46906,505.25067,269.27396,508.6255,269.19363,512.1835C268.95172,518.93024,268.6135,522.56714,267.98932,524.80176C267.7805,525.50964,267.62146,526.88336,267.6398,527.84625C267.67297,529.5867,266.94724,534.26825,266.28665,536.5406C266.1135,537.17365,265.9844,538.1764,265.9957,538.76886C266.007,539.36145,265.8423,540.43884,265.63354,541.14667C265.4618,541.85376,265.16376,543.7118,265.00754,545.2336C264.88834,546.75476,264.4997,549.6888,264.20526,551.73193C263.91077,553.775,263.57324,557.449,263.47174,559.89594C263.4072,562.34216,263.19034,564.569,263.04712,564.83105C262.8669,565.0938,262.64575,567.09845,262.50223,569.28687C262.12814,574.9249,261.64957,578.97205,261.16214,580.61127C260.6405,582.3994,261.2165,583.46277,264.38574,586.4772L266.57455,588.58405L266.2885,591.07153C265.7101,595.7132,265.38116,607.61115,265.6411,611.53296C266.13422,617.9695,266.6827,621.47833,268.04132,626.6759C268.91953,629.9933,269.3244,631.8007,269.65314,633.4986C270.35822,637.44904,271.6099,642.87085,272.92087,647.51355C273.15857,648.32404,273.51486,651.46606,273.7956,654.5356C274.03864,657.5686,274.39987,660.97,274.6432,662.0766C274.84952,663.1841,275.13913,668.6613,275.2464,674.2902C275.43866,682.4365,275.59283,684.69324,276.01425,685.42615C276.32043,685.93896,276.55884,686.78644,276.6064,687.34125C276.617,687.8967,276.81274,688.44867,277.00003,688.5563C277.22437,688.66315,277.38092,689.10474,277.38797,689.47504C277.39502,689.84534,277.66492,690.3959,277.96744,690.7235C278.26938,691.01416,278.53638,691.41656,278.5406,691.63873C278.54413,691.8239,278.96985,692.779,279.50662,693.73193C280.04346,694.6849,280.46985,695.677,280.4741,695.8992C280.47903,696.15845,280.74597,696.56085,281.0472,696.81433C281.3484,697.068,281.62173,697.8037,281.63373,698.4332C281.68173,700.95135,283.76642,703.4307,285.84027,703.39124C286.2476,703.3835,286.5467,703.526,286.55093,703.74817C286.55444,703.9333,287.19244,704.3658,287.9401,704.72186C290.0323,705.6452,290.78986,706.51984,290.51544,707.67346C289.83337,710.7613,287.53226,724.1415,287.01666,728.1893C286.85266,729.3038,286.42703,732.23846,286.0292,734.69104C285.43463,738.481,285.36584,740.7051,285.50027,749.7044C285.62732,756.3702,285.8693,761.29266,286.19873,763.0275C286.82193,766.572,287.33127,769.9705,287.8702,774.9244C288.13406,777.105,288.35522,778.9902,288.39575,779.17456C288.43558,779.322,288.37006,779.7678,288.19193,780.14166C287.90836,780.8139,288.05472,782.6634,289.1668,792.42206C290.10538,800.8505,290.69373,808.3966,291.19107,818.94495L291.61688,827.6797L290.7521,828.9557C289.5632,830.7195,289.0511,831.0626,286.76355,831.5508C282.5959,832.5192,281.26453,834.58215,281.36685,839.9518C281.3979,841.5812,281.27234,842.76904,281.0501,842.7733C280.42062,842.7853,277.88272,845.68604,277.20663,847.14374C276.35388,849.0494,276.51724,855.67737,277.48465,857.8446C278.954,861.07666,280.45187,863.8635,281.13254,864.5915C281.51062,864.9918,281.8524,865.4298,281.8545,865.5409C281.8566,865.652,282.04742,865.9447,282.23752,866.20044C283.1076,867.1471,285.36093,870.6975,286.28494,872.53217C287.32578,874.66095,287.50357,876.2135,287.14804,880.88794C286.9668,883.04004,287.062,884.1496,287.53256,885.5113C287.88422,886.46783,288.35748,887.9777,288.63364,888.8615C288.90912,889.7083,289.33337,890.5893,289.6339,890.80585C289.89737,891.02313,290.12943,891.5373,290.13577,891.8706C290.15128,892.6852,294.37863,896.79083,295.94946,897.57587C296.54764,897.86084,297.37363,898.4378,297.788,898.80035C298.20248,899.1629,298.9145,899.59393,299.32397,899.69727C299.77115,899.8369,300.18204,900.01434,300.29596,900.16034C300.75024,900.6703,303.02823,901.62714,303.843,901.61163C304.28732,901.60315,304.8848,901.8511,305.1497,902.1424C305.4145,902.4337,305.97498,902.6823,306.41934,902.6739C306.86368,902.66547,307.42273,902.84,307.64914,903.0578C308.2152,903.6027,321.02823,903.3586,321.57315,902.79254C321.7911,902.5661,322.49118,902.36755,323.1578,902.3548C323.78732,902.34283,324.52304,902.0695,324.77658,901.76825C325.03018,901.4671,325.50668,901.1987,325.83994,901.1924C326.98795,901.1705,328.7979,898.9502,328.7718,897.58L328.74847,896.358L332.56427,896.3593C335.82443,896.3713,336.48886,896.2475,337.32852,895.60175C337.87625,895.1838,338.34854,894.6932,338.34573,894.5451C338.3422,894.3599,338.5873,893.6143,338.90714,892.90436C339.44144,891.7829,339.4672,891.18964,338.99985,888.0497C338.14987,882.3239,338.02682,881.6965,337.6893,881.48065C337.50204,881.37305,337.3469,881.00555,337.34055,880.6723C337.3342,880.33905,337.09854,879.63965,336.7924,879.12683C334.3768,874.83856,334.1448,874.3243,334.54434,873.90924C335.1982,873.2299,335.0303,872.19586,334.00223,870.7336C333.4697,870.00287,333.04465,869.0848,333.03757,868.71454C333.02206,867.8998,331.68784,865.92474,330.6746,865.2402C330.18686,864.9161,329.98972,864.2901,329.96786,863.142C329.9509,862.25336,329.78647,861.40436,329.56216,861.29755C329.37497,861.19,329.15872,859.5641,329.1241,857.74945C329.0811,855.49054,328.8705,854.1609,328.52664,853.61176C327.68863,852.4053,327.51227,847.0372,328.30585,845.9107C328.62988,845.42285,328.87573,844.7143,328.8687,844.344C328.8567,843.7144,328.93073,843.7131,329.6812,844.2174C330.169,844.54156,331.2849,844.7796,332.2107,844.7619C334.39557,844.7203,335.5232,843.62445,335.48578,841.6618C335.46246,840.4397,335.34784,840.25665,334.08167,839.91034C333.29907,839.66595,332.51508,839.3475,332.32635,839.1659C331.91266,838.84033,333.67426,836.0284,334.48267,835.6795C334.7768,835.5628,334.99127,835.15125,334.9842,834.78094C334.97644,834.37354,335.48492,833.84515,336.32825,833.3846C337.13593,832.9987,337.4991,832.6213,337.23853,832.55225C336.97717,832.4461,336.46222,832.6412,336.09827,832.9815C335.33405,833.6999,331.94263,834.5795,331.1222,834.29877C330.45074,834.0522,330.28143,832.94415,330.91095,832.9321C331.54053,832.9201,332.29633,831.75726,332.31567,830.8308C332.29944,829.97906,330.33075,827.7568,329.02118,827.07794C328.57257,826.8642,327.60626,826.6973,326.90268,826.7109L325.56955,826.73627L325.51376,823.8108C325.4827,822.18134,325.60403,820.7713,325.78702,820.6567C325.97012,820.54205,326.2103,819.53723,326.33652,818.3865C326.42642,817.2733,326.70364,816.2678,326.88672,816.1531C327.06903,816.00146,327.20374,815.29504,327.18896,814.51733C327.1748,813.77673,327.34442,812.9585,327.56244,812.73206C327.78033,812.5056,328.09674,811.6105,328.2663,810.7923C328.43524,809.937,328.70685,808.63525,328.84012,807.85486C329.01126,807.1107,329.3254,806.1045,329.53915,805.6558C329.78995,805.2065,329.96024,804.4254,329.95108,803.9439C329.9412,803.4255,330.18912,802.82806,330.48044,802.5632C330.77182,802.2983,331.01614,801.5157,331.00345,800.8491C330.99008,800.1455,331.12198,799.29095,331.30008,798.91705C331.65628,798.1694,332.0054,797.0514,333.64572,791.75964C334.30838,789.5984,334.97318,787.5482,335.189,787.21075C335.36716,786.83685,335.54172,786.27783,335.5361,785.98157C335.53043,785.6853,335.668,785.127,335.84604,784.7532C337.30508,781.6136,337.9998,779.1924,337.9645,777.34076C337.94827,776.489,338.48862,773.7373,339.18137,771.2051C339.87393,768.6727,340.7369,765.35925,341.07828,763.8339C341.4567,762.30786,341.90427,760.52106,342.07816,759.92505C342.2513,759.292,342.488,758.10205,342.6191,757.21045C342.751,756.35583,342.99472,755.5362,343.14072,755.4223C343.3237,755.3077,343.4606,754.71234,343.4493,754.1199C343.43735,753.4903,343.56992,752.6728,343.78506,752.2982C343.9631,751.92444,344.2703,750.54785,344.4678,749.2475C344.6653,747.94714,345.02615,745.49524,345.28928,743.7492C345.55234,742.0031,345.9332,738.6617,346.07382,736.325C346.36588,732.20746,346.9597,728.3805,347.46335,727.5929C347.57028,727.3686,347.77762,726.5867,347.91092,725.8061C348.04495,725.0627,348.29214,724.42816,348.47726,724.4246C348.66245,724.42114,348.80148,723.937,348.7902,723.3445C348.77817,722.71497,348.91574,722.1567,349.0981,722.005C349.28116,721.89044,349.56534,721.2552,349.7015,720.62286C350.038,718.83826,350.8685,717.71106,351.83133,717.69275C353.31265,717.6645,353.84415,716.39484,354.4852,711.1592C355.06363,706.5175,355.4614,704.0649,355.78128,703.3549C356.3135,702.12225,357.17752,696.9195,357.14438,695.17896C357.1274,694.29016,357.29636,693.43494,357.4794,693.3203C357.6995,693.20496,357.82785,692.1653,357.8074,691.0913C357.78622,689.98035,357.97733,688.3467,358.25735,687.4893C358.5367,686.59485,358.83615,684.81104,358.92178,683.4757C359.20248,678.7656,360.02487,671.37787,360.49466,668.8128C361.2017,665.0948,362.55664,658.43787,363.41125,654.68C363.6507,653.6382,363.95575,652.1505,364.08838,651.333C364.221,650.5155,364.6336,648.8406,364.94366,647.6122C365.91202,644.00024,366.58914,640.6532,367.65204,634.2242C368.51617,629.02136,367.61313,612.7386,365.96957,604.2494C365.59744,602.219,365.14072,599.6345,364.93442,598.52704C364.76505,597.41895,364.23422,594.83594,363.751,592.80756C363.26437,590.5941,362.87668,587.74896,362.83786,585.7122C362.80258,583.86066,362.5793,581.86444,362.3088,581.27686C362.07608,580.7256,361.692,578.06573,361.49374,575.43933C361.29483,572.7758,360.82114,569.30255,360.45676,567.6795C360.09244,566.0564,359.6456,563.99036,359.47977,563.06744C359.15536,561.5918,358.87845,560.6709,357.86624,558.09705C357.6733,557.6932,357.24347,556.5159,356.89105,555.5225C356.18707,553.5725,355.3734,551.69867,354.64154,550.2308C354.2956,549.57056,354.0747,541.8693,353.71906,519.31537C353.2854,490.7245,353.08258,485.91248,351.91043,476.89566C351.69632,475.38095,351.3264,473.46164,351.0887,472.65115C350.85098,471.84073,350.6362,470.2889,350.6157,469.215C350.59598,468.17807,350.43088,467.29214,350.2087,467.29636C350.02353,467.2999,349.832,466.97012,349.82425,466.56277C349.81577,466.11838,349.54105,465.30862,349.23422,464.75876C348.9266,464.17197,348.5715,463.0303,348.40714,462.18137C348.1567,460.7043,348.19162,460.59256,350.441,458.10464C351.71103,456.70975,353.26736,454.79074,353.843,453.89066C354.45493,452.9529,355.6082,451.26395,356.4744,450.06192C357.30417,448.8978,357.9866,447.77335,357.98306,447.58817C357.97885,447.366,358.3372,446.7294,358.80734,446.12772C359.74612,444.8502,360.42996,443.80002,360.71152,443.01657C361.1696,441.78543,362.05594,439.69394,363.15726,437.22794C363.79642,435.77103,364.5687,433.5335,364.91367,432.19342C365.22147,430.85394,365.66837,429.03015,365.90988,428.0993C366.18857,427.1679,366.63046,425.08502,366.9697,423.44843C367.309,421.81207,367.9191,418.83673,368.3624,416.82788C368.80576,414.81897,369.1608,412.07086,369.13474,410.70068C369.03592,405.51624,365.34012,396.2512,361.74084,392.05948C360.8694,391.0388,359.46747,389.39853,358.59662,388.41495C355.073,384.29587,347.27042,377.2577,341.3696,372.8136C339.60367,371.5136,337.91183,370.21216,337.57364,369.95923C336.55832,369.16364,332.16907,366.28366,331.60864,366.03494C331.04822,365.7863,327.40668,363.26248,323.4626,360.4111C320.71976,358.38882,319.17465,357.01053,312.9871,351.12714C308.3838,346.7323,308.00354,346.221,307.18283,343.9767C306.7131,342.65213,306.31033,340.95566,306.29623,340.21506C306.2828,339.51144,306.02884,337.8492,305.70786,336.5588C305.4239,335.2675,304.93085,332.72073,304.63705,330.91116C303.7954,325.62967,303.52075,324.81985,301.71216,323.22446C300.80716,322.3896,300.01047,321.40454,299.92862,320.99872C299.8468,320.59265,298.67905,319.5777,297.14166,318.6067C295.67908,317.67145,293.94742,316.22266,293.30087,315.34576C292.08554,313.77597,289.76413,312.48654,288.17172,312.51688C287.72733,312.52536,286.83362,312.2831,286.2725,311.99747C285.67432,311.71243,284.89172,311.468,284.55847,311.47433C284.22516,311.48068,283.852,311.33975,283.73737,311.1566C283.62277,310.97366,282.87793,310.76547,282.1352,310.6686C281.35602,310.60922,279.64697,310.34555,278.3096,310.1487C275.0395,309.61838,274.229,309.85605,274.25937,311.4484C274.2777,312.41122,274.58453,312.96115,275.44965,313.64853C276.65378,314.62576,276.74826,315.69833,275.6373,315.71945C275.22998,315.72726,275.08963,316.13736,275.11008,317.21133C275.14536,319.06296,275.63104,319.2759,281.0133,319.8401C284.87384,320.24823,285.0227,320.2824,287.39948,322.53394C288.8328,323.87738,290.81274,326.69214,291.05408,327.68774C291.21347,328.27734,291.51892,328.75323,291.7411,328.74902C292.03738,328.74335,292.00314,328.8922,291.71255,329.1941C291.4582,329.45822,291.28226,329.94324,291.2886,330.27655C291.2957,330.64685,291.01,331.20782,290.68375,331.58447C290.10257,332.18835,289.99072,332.1535,289.0053,330.98682C288.4371,330.33087,287.9423,329.63635,287.93875,329.4511C287.9218,328.56244,286.2032,325.85382,284.61533,324.18C281.9702,321.45197,279.7426,321.1981,278.15628,323.48807C277.4717,324.5013,277.44034,324.79837,277.83463,326.05026C278.0724,326.8608,278.53372,327.74112,278.8356,328.03177C279.13748,328.3223,279.40448,328.72476,279.40872,328.9468C279.41296,329.1691,280.43817,330.48328,281.68848,331.94128C283.96118,334.56512,285.50528,337.8328,285.55258,340.31393C285.56244,340.8325,285.99948,342.37997,286.507,343.74106C287.7164,346.941,290.44693,350.25995,293.29373,351.9099C294.45596,352.6286,295.43002,353.20282,295.43073,353.23993C295.43143,353.27692,293.69156,353.3471,291.54376,353.38806C288.98853,353.4367,287.54712,353.61224,287.22015,353.9519C287.00223,354.17847,286.11768,354.41754,285.303,354.43304C284.45193,354.48627,283.38226,354.72894,282.86945,355.0351C282.35663,355.34125,281.1018,355.58743,280.0286,355.64487C278.9917,355.66464,278.03168,355.8312,277.92413,356.0184C277.8166,356.20572,277.11792,356.47842,276.41638,356.6028C275.3467,356.8455,275.12805,357.03488,275.14218,357.77548C275.15347,358.36807,275.382,358.69717,275.7153,358.69083C276.01154,358.68515,276.27216,358.75424,276.2743,358.86526C276.27994,359.16153,274.93445,360.48386,273.83685,361.20868C271.56912,362.73364,270.80908,363.6742,270.8338,364.9704C270.85074,365.8592,270.70898,366.1952,270.2646,366.20367C269.70914,366.2143,269.65863,365.51135,269.7475,358.5081C269.83136,351.24557,269.68924,349.61823,268.48865,341.0467C267.9722,337.2779,268.1094,334.75616,269.34058,327.43472C269.8745,324.3497,269.97464,321.8287,269.8307,314.27414C269.71106,306.0523,269.5633,304.12875,268.64343,298.62668C267.47525,291.7584,267.23294,288.7623,266.7934,277.36066C266.43463,268.2541,266.72696,262.21027,267.7296,258.44952C268.18073,256.84808,268.56583,253.72882,268.703,251.20708C268.84158,248.75945,269.00238,245.53337,269.12155,244.01225C269.23932,242.41716,269.12787,240.45584,268.88525,239.38602C268.64328,238.35342,268.14737,235.6586,267.8073,233.36832C267.09244,228.8993,265.3826,224.70865,263.45508,222.70804C262.9261,222.16238,261.9812,221.18008,261.41443,220.5983C260.4319,219.57962,257.2287,214.78761,257.22025,214.34328C257.2181,214.23232,255.77142,212.18532,253.98572,209.8484C250.03212,204.55203,248.6834,203.76271,246.79442,205.72513C246.2859,206.25345,245.84853,206.63223,245.8101,206.55899C243.94751,204.07535,243.45407,203.45485,242.96494,203.05678C242.0998,202.36928,240.06586,202.55629,239.23038,203.42421 Z M319.82727,379.59583C320.54498,380.32312,321.15094,381.01544,321.15375,381.16357C321.15662,381.3117,321.61218,381.8957,322.14197,382.47833C323.88287,384.40863,326.31287,387.51123,328.48438,390.6557C329.66556,392.3743,330.9962,394.1642,331.41202,394.6008C331.82718,395.0004,332.17032,395.51248,332.17386,395.69766C332.1802,396.03085,333.6926,397.63217,339.58463,403.55832C341.73703,405.70303,343.5164,407.70657,343.5206,407.92874C343.52554,408.18802,343.0925,408.7889,342.5839,409.31735C341.4927,410.37546,338.46942,415.0266,338.4807,415.61908C338.485,415.84137,338.3404,416.02924,338.19232,416.03204C338.00714,416.03558,337.61316,416.74695,337.25903,417.60577C336.90564,418.5016,336.40985,419.6964,336.1626,420.331C335.9146,420.92853,335.49353,422.159,335.25128,423.05267C334.7325,424.989,334.36642,425.21826,331.11258,425.5395C329.7452,425.71387,328.08444,426.0418,327.4221,426.27667C326.39224,426.66675,326.02048,426.5998,323.40146,425.24194C320.78238,423.8841,320.2988,423.78223,317.74362,423.83093C316.2253,423.85986,314.88928,423.737,314.7747,423.55408C314.66006,423.3709,313.9145,423.12582,313.17108,422.99185C310.97845,422.6262,310.7876,422.33334,311.4133,420.17276C311.72256,418.90744,311.81036,417.68332,311.64175,416.61215C311.47528,415.6522,311.57965,413.35324,311.90552,411.01328C312.5195,406.29684,313.03687,404.2864,313.6985,404.0145C314.1764,403.82022,314.9978,402.21158,315.44742,400.53598C315.7226,399.41937,316.1969,399.03986,317.3819,399.01727C318.5299,398.99542,320.34485,397.0345,320.32227,395.84943C320.31238,395.33105,320.48767,394.80896,320.67072,394.69434C321.10938,394.3896,321.078,390.7968,320.6336,390.80524C320.44843,390.80878,320.18146,390.40637,320.0605,389.89014C319.90253,389.3744,319.4098,388.79108,318.88782,388.61578C318.02972,388.29877,317.99054,388.18842,317.7472,383.1919C317.6194,380.37885,317.34363,377.56854,317.1842,376.97906L316.90387,375.87292L317.74176,377.07947C318.16254,377.77533,319.11023,378.90564,319.82727,379.59583 Z"/> </g> </g> </g> </svg>