<?xml version='1.0' encoding='utf-8'?>
<svg xmlns="http://www.w3.org/2000/svg" version="1.1" width="600px" height="976px" viewBox="0 0 600 976"> <g id="layer1"> <g style="fill:rgb(0,0,0); fill-opacity:1.0; stroke-linejoin: miter"> <path d="M413.2337,620.4504C413.15982,620.4504,413.13907,620.8359,413.22845,621.6178C413.3191,622.343,413.45508,623.00024,413.54572,623.06824C413.6364,623.1362,413.77234,623.3402,413.86304,623.5215C413.88638,623.5837,413.9017,623.6139,413.90903,623.6139C413.92303,623.6139,413.90768,623.50323,413.86304,623.29486C413.79504,622.9776,413.65912,622.2524,413.56842,621.6631C413.442,620.8585,413.3097,620.4504,413.2337,620.4504 Z M227.1175,646.4516C227.13098,646.4516,227.14534,646.46063,227.15968,646.4798C227.22768,646.5478,227.25038,646.7518,227.18236,646.9104C227.15628,646.98,227.13019,647.0129,227.10794,647.0129C227.07222,647.0129,227.0464,646.9281,227.0464,646.7745C227.02852,646.57776,227.06705,646.4516,227.1175,646.4516 Z M311.48865,402.5931C310.33194,402.5931,309.07925,402.66107,307.93298,402.80005C305.62134,403.04944,304.80548,403.276,303.287,404.09186C302.92438,404.29584,302.10846,404.68115,301.47388,404.9984C300.2727,405.565,295.46802,410.27905,295.46802,410.891C295.46802,411.3216,294.53882,412.976,294.2895,412.976C294.19885,412.976,294.10822,413.13464,294.10822,413.31604C294.10822,413.4973,294.01758,413.83728,293.90424,414.0639C293.315,415.24243,292.97504,416.23956,292.97504,416.82886C292.97504,417.1914,292.88434,417.55408,292.7484,417.62207C292.47638,417.7807,292.45374,420.1151,292.703,420.63635C292.8164,420.84033,292.8164,421.67896,292.7257,422.4948C292.63507,423.31067,292.47638,424.57983,292.40845,425.32776C292.31775,426.07562,292.15912,426.7782,292.06842,426.91418C291.9552,427.02747,291.88715,427.61682,291.88715,428.18335C291.9098,428.74994,291.8418,429.33917,291.75116,429.47516C291.6459,429.6541,291.40378,429.74017,291.1156,429.74017C290.78326,429.74017,290.38968,429.62573,290.0741,429.40723C289.8625,429.25134,289.72748,429.17203,289.58307,429.17203C289.4336,429.17203,289.27402,429.257,289.0089,429.42987C288.35162,429.86047,287.89832,430.56305,288.10236,430.85767C288.17035,430.97095,288.23834,432.1042,288.23834,433.3507C288.23834,434.6878,288.35162,435.63965,288.46497,435.63965C288.6009,435.63965,288.6463,435.7304,288.57825,435.82104C288.41962,436.09296,289.37152,439.78717,289.71143,440.19507C289.89276,440.37634,290.0287,440.739,290.0287,440.94305C290.0287,441.16956,290.346,441.73627,290.70868,442.18958C291.09393,442.64276,291.5019,443.1187,291.61517,443.27734C291.9098,443.64,291.9098,444.8639,291.61517,445.04517C291.5019,445.11304,291.38855,445.36243,291.38855,445.56635C291.38855,445.7704,291.25256,446.2237,291.0713,446.5636C290.64636,447.3698,290.25287,448.90936,290.0268,450.29083L290.0268,450.29083Q289.7111,450.25018,289.6081,450.25018Q289.5695,450.25018,289.5608,450.2559Q289.06003,450.2842,288.47906,450.4594Q287.47,450.76822,287.20923,450.8945L287.20636,450.8945C286.75037,451.01773,286.1232,451.16687,285.49603,451.3003C284.4308,451.54956,283.36566,451.8216,283.11633,451.93488C282.867,452.04816,281.8698,452.2068,280.87262,452.2749C279.89807,452.3202,278.99152,452.47882,278.8556,452.6148C278.71954,452.75085,278.17566,452.86414,277.6317,452.86414C277.1104,452.86414,276.2719,453.0,275.8186,453.1814C275.34265,453.34003,274.50415,453.61194,273.9375,453.77063C273.3709,453.92926,272.6457,454.17865,272.3058,454.35992C271.98846,454.5412,271.5578,454.6772,271.37653,454.6772C271.17255,454.6772,270.99127,454.74518,270.94592,454.85846C270.92328,454.9491,270.22064,455.3344,269.4048,455.71973C265.66528,457.46478,265.52936,457.55542,263.87488,459.1646C262.62836,460.36578,261.31384,461.24963,260.74725,461.24963C260.63397,461.24963,260.2033,461.4989,259.7954,461.81622C259.38745,462.13348,258.97955,462.38287,258.88885,462.38287C258.61688,462.38287,255.64796,465.01184,253.99352,466.7343C250.54863,470.31512,249.21147,471.8789,248.01027,473.76C247.55702,474.48523,247.0811,475.07446,246.96776,475.07446C246.8318,475.07446,246.7411,475.21045,246.7411,475.39172C246.7411,475.55035,246.58247,475.98102,246.42384,476.34363C246.24251,476.6836,246.12923,477.0689,246.21986,477.15955C246.28786,477.27283,246.17448,477.4995,245.99321,477.6355C245.81194,477.79413,245.33601,478.7234,244.9507,479.72052C244.22545,481.55634,244.1121,481.8056,243.50023,483.2334C243.3189,483.664,243.09224,484.47992,243.0016,485.0465C242.91096,485.6131,242.72963,486.27032,242.59367,486.5197C242.29903,487.0409,242.25371,487.29016,242.07243,488.67273C242.00441,489.23926,241.82307,489.98724,241.6418,490.37244C241.48317,490.7351,241.1205,491.57367,240.84859,492.20825C240.57661,492.86548,240.1233,493.50006,239.82872,493.6587C239.51143,493.81732,239.21678,494.18,239.12611,494.42926C238.89949,495.24512,238.31023,496.469,237.8796,497.03558C237.63033,497.33014,237.44905,497.8288,237.44905,498.16876C237.44905,498.48602,237.24504,499.00732,236.99574,499.32465C236.74644,499.6419,236.54243,500.07257,236.54243,500.29913C236.54243,500.5031,236.4518,500.86578,236.31584,501.09235C235.49992,502.4975,234.66139,505.76117,234.32143,508.84332C234.23079,509.65924,234.04945,510.5205,233.9135,510.76978C233.1429,512.2429,232.91624,512.7868,232.91624,513.1722C232.91624,513.39874,232.8256,513.6027,232.68965,513.6027C232.57634,513.6027,232.463,513.80676,232.463,514.0787C232.463,514.32794,232.23634,515.0079,231.98708,515.5971C231.7151,516.16376,231.4658,516.957,231.39781,517.3422C231.30717,517.97675,230.69524,519.6766,230.15129,520.7871C230.01534,521.05914,229.97002,521.4897,230.03801,521.73895C230.10597,521.9883,229.97002,522.37354,229.72072,522.64557C229.47139,522.89484,229.29005,523.2574,229.29005,523.4388C229.29005,523.62006,229.19942,523.824,229.08614,523.8921C228.99547,523.96,228.8368,524.4359,228.74617,524.9345C228.67818,525.43317,228.49684,525.8411,228.38356,525.8411C228.24754,525.8411,228.1569,525.99976,228.1569,526.20374C228.1569,526.40765,227.99828,526.92896,227.79427,527.38226C227.59035,527.8582,227.31831,528.47015,227.20506,528.7874C227.06905,529.10474,226.84239,529.64856,226.66112,530.0339C226.50246,530.39655,226.29851,530.9857,226.20781,531.3484C226.13985,531.6883,225.98122,532.02826,225.86787,532.0963C225.75456,532.16425,225.66386,532.3683,225.66386,532.54956C225.66386,532.8896,224.53072,535.3825,224.28145,535.5865C224.12279,535.72253,222.87627,538.14746,222.37767,539.258C222.17369,539.7339,221.92442,540.1192,221.81108,540.1192C221.67513,540.1192,221.58443,540.32324,221.58443,540.5725C221.58443,540.8218,221.33516,541.4337,221.01787,541.9323C220.70058,542.43085,220.45125,542.95215,220.45125,543.11084C220.45125,543.2695,220.04332,544.2441,219.54475,545.28656C219.04613,546.30646,218.63814,547.41693,218.63814,547.77954C218.63814,548.11945,218.4795,548.5954,218.29823,548.82214C218.1169,549.0713,217.95824,549.43396,217.95824,549.638C217.95824,549.8646,217.73164,550.47644,217.437,551.0204C217.00636,551.83636,216.55312,553.0829,216.23582,554.28406C216.19048,554.39734,215.96388,555.2132,215.71452,556.0971C215.39723,557.13965,215.19328,558.61273,215.12532,560.4032C214.96663,564.3466,214.71736,566.2504,214.28673,566.9077C213.92412,567.45166,213.92412,567.5649,214.37737,568.6981C214.76268,569.7633,214.78535,570.0353,214.53603,570.71515C214.1281,571.87103,214.21873,573.23083,214.76268,574.1374C215.03462,574.568,215.2386,575.0666,215.2386,575.27057C215.2386,575.45184,215.35191,575.7238,215.51057,575.8825C215.80519,576.17706,216.37181,577.6729,216.37181,578.21686C216.37181,578.6701,218.00356,582.81757,218.66084,584.064C218.95543,584.608,219.34071,585.10657,219.49937,585.1519C219.63539,585.2199,219.77135,585.37854,219.77135,585.4918C219.77135,585.6732,221.92442,588.50616,222.49098,589.07275C222.55898,589.14075,222.83095,589.63934,223.10292,590.20593C223.39754,590.77246,224.12279,591.7697,224.75737,592.44965C225.36928,593.1069,225.89052,593.80945,225.89052,594.0134C225.89052,594.19476,226.57048,595.03326,227.43169,595.8718C230.08333,598.5008,230.30995,598.81805,230.2646,599.83795C230.24199,600.33655,230.21928,602.6709,230.21928,605.02795C230.21928,608.40485,230.15129,609.37933,229.90202,609.674C229.53941,610.0593,229.26744,612.8243,229.56209,612.9149C229.65273,612.9602,229.63005,613.6855,229.49406,614.56934C229.35808,615.4306,229.2448,616.4051,229.2448,616.7224C229.2448,617.03973,229.08614,617.74225,228.90483,618.3089C228.70085,618.8754,228.56483,619.714,228.58754,620.18994C228.61015,620.8245,228.49684,621.1645,228.02092,621.6404C227.43169,622.2297,227.43169,622.29767,227.6356,623.7028C227.86226,625.22125,227.6356,627.533,227.22768,627.9182C227.1144,628.05426,227.02373,628.4395,227.02373,628.8021C227.02373,629.14215,226.91039,629.6407,226.77443,629.88995C226.45714,630.5019,226.13985,633.1309,225.89052,637.45966C225.77724,639.45404,225.57323,641.5845,225.45995,642.21906C225.34657,642.85364,225.32396,643.48816,225.43727,643.71484C225.73189,644.2361,226.34383,647.273,226.36647,648.2249C226.38914,649.31274,226.5931,649.7887,227.25038,650.106C227.93028,650.446,228.08891,651.2165,227.59035,651.62445C227.40901,651.78314,227.25038,652.14575,227.25038,652.4403C227.25038,652.735,227.00102,653.34686,226.68376,653.8002C226.36647,654.2534,226.11717,654.7747,226.11717,654.93335C226.11717,655.2507,224.93864,657.9929,224.50804,658.6502C224.39473,658.8315,224.21342,659.2168,224.07744,659.5114C223.80016,660.1312,223.33513,660.39886,222.3191,660.39886C221.92326,660.39886,221.44379,660.3582,220.8592,660.282C219.81667,660.146,218.57018,659.9194,218.07158,659.806C216.48512,659.39813,214.24141,658.8542,213.42552,658.6502C212.99489,658.5596,212.33769,658.37823,211.95238,658.24225C210.68324,657.81165,208.77946,657.517,205.26662,657.1544C203.70988,657.004,202.30505,656.92615,200.95242,656.92615C198.83916,656.92615,196.8533,657.1163,194.61467,657.517C193.30019,657.76636,191.57771,658.03827,190.76186,658.1516C189.94597,658.28754,188.58614,658.60486,187.70226,658.8542C186.84102,659.12616,185.45854,659.53406,184.64265,659.76074C183.82677,660.01,182.30827,660.5086,181.24309,660.8939C180.01924,661.34717,178.8861,661.59644,178.13817,661.59644C177.50359,661.59644,176.89168,661.68713,176.82368,661.8231C176.73303,661.97046,176.26843,662.04407,175.80382,662.04407C175.3392,662.04407,174.8746,661.97046,174.78395,661.8231C174.69148,661.67285,174.2866,661.59924,173.83986,661.59924C173.41063,661.59924,172.94276,661.66724,172.67622,661.8005C172.31361,662.00446,169.458,662.3444,165.26521,662.70703C161.93364,663.0016,158.30748,663.40955,157.1516,663.63617C156.53972,663.7722,155.36119,663.86285,154.54527,663.86285C153.70674,663.86285,150.23918,664.0215,146.83965,664.2481C143.98456,664.42267,142.30916,664.50806,141.15694,664.50806C140.21465,664.50806,139.62225,664.4509,139.02068,664.3388C138.11412,664.1801,136.32368,663.99884,135.0092,663.93085C133.69472,663.8855,132.47087,663.7722,132.28957,663.6815C132.10826,663.6136,131.54167,663.4549,131.04308,663.3189C130.31783,663.1149,130.13652,662.9563,130.00053,662.38965C129.5019,659.98737,128.16478,658.96747,124.99187,658.6275C123.972,658.5142,123.02013,658.31024,122.906815,658.1969C122.77083,658.061,122.43086,657.9703,122.09093,657.9703C121.773605,657.9703,121.32036,657.81165,121.093704,657.6303C120.84444,657.44904,120.45912,657.29034,120.25517,657.29034C120.02852,657.29034,119.82454,657.1997,119.77922,657.0864C119.71123,656.9051,117.08226,655.93054,116.62898,655.93054C116.51564,655.93054,115.85838,655.6812,115.2238,655.36395C114.33995,654.956,113.54671,654.79736,112.11891,654.7067C111.053696,654.66144,109.53523,654.50275,108.74202,654.36676C108.15614,654.2496,107.570244,654.1819,107.24005,654.1819C107.12319,654.1819,107.03837,654.19037,106.9969,654.2081C106.952484,654.2248,106.91486,654.2333,106.88471,654.2333C106.7918,654.2333,106.76981,654.1526,106.83824,653.9815C106.91559,653.7605,106.62126,653.65265,106.22049,653.65265C105.7992,653.65265,105.260284,653.77185,104.91185,654.00415C104.25459,654.4801,103.121414,656.15717,102.917435,656.9731C102.8268,657.3357,102.69081,657.72095,102.60014,657.857C102.32817,658.28754,101.3763,662.04974,101.104355,663.86285C101.03636,664.4068,100.87773,665.0187,100.78706,665.22266C100.379135,666.01587,100.03914,667.73834,99.90318,669.642C99.812515,670.7526,99.67653,671.8631,99.58586,672.0897C99.495224,672.29376,99.35924,672.6564,99.2686,672.883C99.20061,673.087,99.10994,675.26263,99.10994,677.7103C99.087296,680.40735,98.99663,682.2884,98.838,682.4697C98.724686,682.651,98.63402,683.0816,98.65666,683.4669C98.65666,683.8295,98.54335,684.3735,98.38469,684.64545C98.203384,684.9174,98.0674,685.43866,98.0674,685.8239C98.0674,686.1865,97.90877,686.7758,97.72746,687.1158C97.54616,687.4784,97.3875,687.99963,97.3875,688.2716C97.3875,688.5436,97.29686,688.8382,97.16087,688.9062C97.04753,688.9742,96.93425,689.4048,96.93425,689.8354C96.93425,690.2887,96.82091,690.8552,96.68492,691.1272C96.52629,691.3765,96.32231,692.48706,96.23164,693.55225C95.86903,697.2691,95.57442,700.03406,95.34776,701.96045C95.05315,704.4534,95.05315,712.4991,95.34776,713.76825C95.461105,714.31213,95.665054,715.35474,95.778366,716.10254C96.14101,718.30096,96.4583,719.6834,96.70763,719.93274C96.84358,720.0687,96.93425,720.29535,96.93425,720.45404C96.93425,720.6127,97.18355,721.1566,97.50084,721.65515C97.81813,722.1538,98.0674,722.67505,98.0674,722.8337C98.0674,723.219,99.78987,724.7828,100.80974,725.2814C101.375465,725.5786,101.86412,725.7298,102.3392,725.7298C102.98701,725.7298,103.60958,725.4487,104.367935,724.8734C105.455765,724.0802,107.13289,722.1991,107.13289,721.81384C107.13289,721.7232,107.38219,721.26996,107.676834,720.794C107.97142,720.31805,108.28874,719.6155,108.356735,719.2075C108.44737,718.82227,108.62868,718.43695,108.74202,718.36896C108.85533,718.2783,108.94597,718.02905,108.94597,717.80237C108.94597,717.57574,109.35393,716.3972,109.85252,715.1734C110.35112,713.9495,110.75908,712.6804,110.75908,712.3631C110.75908,712.04584,110.84972,711.68317,110.96303,711.5699C111.053696,711.4339,111.34834,710.7767,111.57497,710.0967C111.80162,709.4168,112.07356,708.71423,112.186874,708.5556C112.300186,708.3969,112.57216,707.94366,112.79881,707.5584C113.00279,707.15045,113.52403,706.62915,113.93199,706.4026C114.77055,705.9493,115.49577,705.15607,115.51845,704.7028C115.51845,704.27216,116.10768,703.4336,117.24089,702.2551C117.80748,701.6885,118.39671,700.85,118.60072,700.39667C118.78203,699.9434,119.46193,699.0595,120.11919,698.4249C120.77641,697.81305,121.66029,696.8385,122.09093,696.2719C122.5215,695.7053,123.11076,695.0254,123.38274,694.7534C123.67735,694.48145,123.90398,694.1868,123.90398,694.0961C123.90398,693.7789,125.30916,692.1924,125.603775,692.1924C125.762436,692.1924,125.94374,691.96576,126.03441,691.67114C126.10237,691.3312,126.487686,691.0139,127.12224,690.74194C127.66618,690.53796,128.25542,690.26605,128.43672,690.13C128.61806,690.0167,128.93535,689.85803,129.11665,689.7901C129.29796,689.7221,129.63792,689.5635,129.8419,689.45013C130.06853,689.3368,130.68044,689.24615,131.2017,689.24615C132.04027,689.24615,132.22157,689.3368,132.47087,689.85803C132.60686,690.19806,132.74284,690.62866,132.74284,690.8552C132.74284,691.4898,131.2017,693.2576,130.2725,693.7109C129.36595,694.11884,129.11665,694.5268,129.59258,694.7987C129.62833,694.8215,129.68596,694.8316,129.75847,694.8316C130.19179,694.8316,131.15639,694.4684,131.15639,694.25476C131.15639,694.1641,131.54167,693.91486,131.99495,693.6656C132.47087,693.41626,132.90147,693.1443,132.96947,693.0763C133.03746,693.0083,133.3321,692.8044,133.60405,692.66833C133.8987,692.5097,134.53328,692.0111,135.03188,691.5805C135.80244,690.8779,135.91576,690.6513,135.91576,689.81274L135.91576,688.8382L139.79124,688.95154C140.72029,688.9742,141.45549,688.98676,142.01953,688.98676C143.14789,688.98676,143.59117,688.9364,143.53075,688.81555C143.41743,688.6569,142.32957,688.5662,140.49382,688.5662C136.79964,688.5662,136.59566,688.4983,136.59566,687.52374C136.59566,686.7758,136.61833,686.7531,137.4569,686.7531C137.93282,686.7531,138.52208,686.91174,138.77138,687.0931C139.06451,687.31494,139.38258,687.4287,139.75366,687.4287C140.44406,687.4287,141.31796,687.0347,142.5562,686.20917C142.89616,685.9826,143.16814,685.688,143.16814,685.552C143.16814,685.43866,143.41743,684.9854,143.73473,684.5774C144.05202,684.1695,144.30132,683.69354,144.30132,683.5122C144.30132,683.0334,149.18256,682.7953,154.44641,682.7953C159.89496,682.7953,165.75346,683.05035,167.03297,683.55756C167.39558,683.69354,168.41545,683.8069,169.322,683.8069C170.29655,683.8069,171.0671,683.92017,171.22575,684.0788C171.40709,684.26013,172.60823,684.3508,174.96526,684.3735C176.89168,684.3961,178.59145,684.48676,178.7501,684.6001C178.90874,684.69073,180.38188,684.84937,182.01369,684.9627C183.64543,685.07605,186.25175,685.2573,187.81557,685.3933C189.37935,685.5293,194.88661,685.64264,200.05394,685.64264C209.0514,685.64264,212.26967,685.7786,215.01195,686.3452C216.55312,686.6625,220.79121,686.88916,230.64992,687.1837C233.70383,687.2763,235.5334,687.33105,236.7327,687.33105C238.47049,687.33105,238.88493,687.21606,239.78334,686.93445C240.62193,686.6625,241.30183,686.36786,241.30183,686.2546C241.30183,686.16394,241.43779,686.07324,241.59645,686.07324C242.09505,686.07324,244.1121,684.64545,245.17735,683.55756C246.21986,682.4924,247.0811,680.9966,247.28505,679.9314C247.35301,679.6141,247.9423,678.5716,248.57689,677.597C250.18599,675.14935,251.68178,672.1804,252.0897,670.594C252.2711,669.8687,252.65633,668.73553,252.95094,668.10095C253.24559,667.4437,253.56288,666.6731,253.65352,666.35583C253.74416,666.0386,254.22011,664.9733,254.69609,663.99884C255.19469,663.0016,255.57994,662.11774,255.57994,661.98175C255.57994,661.59644,256.93982,658.67285,257.27972,658.28754C257.4157,658.1516,257.73303,657.9703,257.9823,657.87964C258.97955,657.5623,260.56598,654.7294,260.56598,653.27893C260.56598,652.8483,260.7246,652.1684,260.9286,651.78314C261.6311,650.446,261.69916,650.26465,261.69916,649.90204C261.69916,649.67535,262.0844,649.1541,262.56036,648.70087C263.03632,648.24756,264.0335,647.06903,264.78137,646.0719C265.50665,645.0747,266.23193,644.14545,266.36786,644.0321C266.88916,643.5335,270.31128,637.95825,270.31128,637.59564C270.31128,637.45966,270.42468,637.3464,270.53796,637.3464C270.67395,637.3464,270.7646,637.14233,270.7646,636.9158C270.7646,636.66644,270.85522,636.4171,270.96863,636.3265C271.10455,636.2585,271.42188,635.71454,271.7165,635.1253C272.0111,634.536,272.3058,634.0148,272.41907,633.9921C272.5097,633.94684,272.5777,633.7882,272.5777,633.65216C272.5777,633.5162,272.98566,632.519,273.50696,631.4538C274.0282,630.3886,274.57214,629.2101,274.73077,628.8475C274.9121,628.46216,275.29736,627.5783,275.61462,626.8531C275.93195,626.1278,276.20392,625.4706,276.20392,625.3573C276.20392,625.17596,276.72522,623.99744,277.13312,623.2495C277.2464,623.0229,277.3371,622.6603,277.3371,622.4563C277.3371,622.2297,277.49573,621.84436,277.67706,621.6178C277.85834,621.36847,278.01697,620.9605,278.01697,620.68854C278.01697,620.41656,278.1076,620.12195,278.221,619.986C278.31165,619.8726,278.58356,619.2154,278.81018,618.53546C279.03687,617.85565,279.35413,616.97174,279.5354,616.5637C279.6941,616.17847,279.83008,615.7252,279.83008,615.5439C279.85272,615.24927,280.53265,613.1642,280.75934,612.7563C280.82733,612.62024,281.0539,611.8724,281.28058,611.0565C281.50714,610.2406,281.77917,609.42474,281.8698,609.2207C281.9831,609.0168,282.14172,608.47284,282.20978,608.0196C282.3004,607.5663,282.45905,607.1357,282.5724,607.0677C282.68567,606.9997,282.77637,606.7504,282.77637,606.5011C282.77637,606.1879,282.97003,606.0414,283.21277,606.0414C283.51462,606.0414,283.89236,606.2679,284.06824,606.68243C284.34015,607.31696,284.56677,607.7249,285.3147,608.83545C285.54132,609.1755,285.72266,609.674,285.72266,609.9233C285.72266,610.1726,285.8813,610.4446,286.06256,610.5126C286.2439,610.6033,286.40253,610.8978,286.40253,611.19244C286.40253,611.71375,286.94647,612.8243,287.35443,613.0962C287.42236,613.1642,287.6717,613.73083,287.87567,614.3427C288.0797,614.9773,288.44226,615.8839,288.6916,616.4051C288.9182,616.9037,289.1222,617.44763,289.1222,617.5836C289.1222,617.74225,289.34888,618.3089,289.59814,618.8754C289.87006,619.4421,290.09674,620.18994,290.1194,620.5526C290.1421,620.93787,290.23273,621.3005,290.32336,621.3911C290.414,621.48175,290.482,621.7311,290.482,621.95776C290.482,622.1843,290.68604,622.8189,290.9126,623.3402C291.75116,625.24396,291.88715,626.0599,291.75116,628.53015C291.4339,633.6069,291.61517,638.4795,292.09113,638.4795C292.20447,638.4795,292.2951,638.7288,292.2951,639.04614C292.2951,639.3634,292.40845,639.61273,292.52173,639.61273C292.65778,639.61273,292.7484,639.81665,292.7484,640.066C292.7484,640.3153,292.8617,640.5193,292.97504,640.5193C293.11102,640.5193,293.20166,640.9272,293.20166,641.4485C293.20166,642.559,293.63226,644.3721,293.90424,644.3721C294.01758,644.3721,294.10822,644.53076,294.10822,644.71204C294.10822,644.8934,294.2215,645.052,294.33484,645.052C294.47083,645.052,294.56152,645.3466,294.56152,645.7093C294.56152,646.09454,294.67474,646.4571,294.78815,646.52515C295.06006,646.7064,295.01477,651.6018,294.7428,651.76044C294.65216,651.8284,294.56152,652.735,294.56152,653.8002C294.56152,654.8427,294.47083,655.88525,294.35748,656.1119C293.7909,657.2224,293.63226,658.17426,293.90424,658.69556C294.06287,658.9901,294.1762,659.46606,294.15356,659.7833C294.11026,660.45416,294.99664,661.5588,295.5503,661.5588C295.57654,661.5588,295.60205,661.5563,295.62665,661.55115C296.2386,661.4378,296.60126,660.48596,296.60126,658.8995C296.60126,657.2677,296.91852,655.00134,297.4171,653.3016C297.5984,652.667,297.73438,651.32983,297.73438,650.33264C297.73438,648.3709,297.9978,647.80145,299.09027,647.80145C299.1968,647.80145,299.31128,647.8069,299.43414,647.81696C300.52203,647.90765,300.794,648.45154,301.11127,651.05786C301.54187,654.5481,301.8139,656.0212,302.04053,656.15717C302.1538,656.22516,302.3578,657.1544,302.47107,658.1969C302.60712,659.2621,302.83374,660.146,302.94702,660.19135C303.083,660.23663,303.17365,660.62195,303.17365,661.02985C303.17365,661.4605,303.287,661.86847,303.40033,661.9364C303.53625,662.00446,303.62695,662.41235,303.62695,662.84296C303.62695,663.27356,303.7176,663.6589,303.83087,663.7268C303.92157,663.79486,304.1482,664.31616,304.30682,664.90533C304.60352,665.9336,305.19342,666.5306,305.89603,666.5306C305.99866,666.5306,306.10373,666.5178,306.21063,666.4918C307.47974,666.1745,307.63843,665.4946,307.0265,663.29626C306.9132,662.91095,306.66388,662.00446,306.45996,661.25653C306.25592,660.5086,305.93866,659.5114,305.75732,659.0355C305.55334,658.5142,305.44006,657.31305,305.44006,655.81726C305.44006,654.50275,305.34937,653.2562,305.23602,653.0296C304.55615,651.6698,304.39752,650.3779,304.80548,649.47144C305.0094,649.0182,305.21344,648.90485,305.93866,648.90485C306.41455,648.90485,306.79987,648.9955,306.79987,649.1314C306.79987,649.24475,306.93585,649.3581,307.11713,649.3581C307.2984,649.3581,307.50244,649.7207,307.59308,650.19666C307.68372,650.6726,307.81976,651.14856,307.88776,651.2845C307.9784,651.3978,308.06903,651.76044,308.11438,652.0777C308.20502,652.98425,308.63562,653.93616,309.29285,654.79736C309.88214,655.56793,310.698,657.17706,311.3553,658.87683C311.51392,659.30743,311.76318,659.76074,311.92188,659.8967C312.05786,660.01,312.37512,660.68994,312.60175,661.3699C312.82837,662.04974,313.21362,662.9563,313.41766,663.3642C313.6443,663.7722,313.82556,664.20276,313.82556,664.3388C313.82556,664.7825,314.33453,665.14404,314.8634,665.14404C314.9559,665.14404,315.04898,665.133,315.14008,665.1094C315.91064,664.92804,316.77185,664.1348,316.77185,663.5909C316.77185,662.5257,315.7293,659.3301,315.3667,659.3301C315.27606,659.3301,315.18536,659.10345,315.18536,658.80884C315.18536,658.5142,315.02673,658.0836,314.84546,657.8343C314.66418,657.60767,314.50555,657.2677,314.50555,657.1091C314.50555,656.95044,314.25616,656.27057,313.9616,655.6359C313.66693,654.9787,313.34967,654.14014,313.25903,653.7549C313.19098,653.34686,312.69244,652.3271,312.1485,651.4432C310.67535,649.0861,310.42603,648.47424,310.42603,647.38635C310.42603,646.43445,310.44867,646.41187,311.19666,646.41187C312.39777,646.41187,312.62445,646.5705,313.39496,648.1343C313.80292,648.9275,314.21088,649.5847,314.32416,649.5847C314.4375,649.5847,314.48285,649.67535,314.39215,649.8114C314.23352,650.06067,314.7094,650.6726,316.15997,652.1004C316.7492,652.6897,317.2251,653.2562,317.2251,653.36957C317.2251,653.4602,317.56506,654.1175,317.97308,654.79736C318.40363,655.49994,318.81158,656.3612,318.90228,656.7238C318.99292,657.0864,319.24225,657.5397,319.4688,657.72095C319.6955,657.925,320.01276,658.37823,320.1941,658.74084C320.51828,659.4201,320.8635,659.7418,321.28705,659.7418C321.48532,659.7418,321.70074,659.6713,321.9392,659.53406C322.48315,659.23944,322.55115,659.0808,322.48315,658.1969C322.39246,657.0184,321.78052,655.38666,320.78333,653.6642C320.37537,652.98425,319.71814,651.6698,319.3329,650.74054C318.92493,649.8114,318.177,648.51953,317.6784,647.8623C317.1798,647.2051,316.77185,646.5705,316.77185,646.4571C316.77185,646.36646,316.5905,646.0719,316.3639,645.8225C315.77466,645.21063,315.18536,643.94147,315.18536,643.3069C315.18536,642.8763,315.29877,642.78564,315.8653,642.78564C316.3639,642.78564,316.72656,643.01227,317.3838,643.80554C317.83704,644.3721,318.40363,644.8254,318.6303,644.8254C318.85693,644.8254,319.0382,644.8934,319.0382,644.984C319.0382,645.324,320.42072,645.95856,321.1006,645.95856C321.91656,645.95856,322.66443,645.59595,322.66443,645.21063C322.66443,645.052,322.18848,644.59875,321.64453,644.1681C321.07794,643.76013,320.62463,643.3069,320.62463,643.1709C320.62463,643.0349,320.4887,642.76294,320.33008,642.58167C320.14874,642.3777,319.83142,641.7658,319.6275,641.19916C319.40088,640.63257,318.90228,639.81665,318.49426,639.38605C318.08636,638.95544,317.49707,638.18494,317.1571,637.6863C316.4546,636.6211,315.18536,633.87885,315.18536,633.42554C315.18536,633.1082,314.75482,632.4963,312.69244,629.8674C312.05786,629.05145,311.03802,627.7143,310.42603,626.89844C309.8141,626.0825,308.7716,624.904,308.09167,624.29205C306.8225,623.1362,304.82813,620.5072,304.39752,619.4421C303.78558,617.9236,302.99237,616.2918,302.26715,615.02264C301.88184,614.38806,301.31525,613.3228,300.998,612.64294C300.65802,611.9631,300.09143,610.9658,299.75146,610.4672C299.38885,609.946,298.79956,608.72217,298.4143,607.7476C298.02905,606.7504,297.57574,605.6399,297.4171,605.2772C297.07715,604.57465,296.91852,604.1214,296.26123,602.4443C296.0573,601.8777,295.78528,601.1978,295.672,600.9032C295.55865,600.6085,295.46802,600.1553,295.46802,599.86066C295.46802,599.56604,295.30933,599.20337,295.12805,599.04474C294.94678,598.8861,294.78815,598.5235,294.78815,598.2289C294.78815,597.9569,294.69745,597.6396,294.56152,597.5716C294.44812,597.50366,294.33484,597.141,294.33484,596.7557C294.33484,596.1665,294.40283,596.0985,295.01477,596.0985C295.536,596.0985,295.80798,596.25714,296.07996,596.7104C296.26123,597.073,296.78253,597.5263,297.21313,597.7303C297.71667,597.994,298.52463,598.1309,299.26462,598.1309C299.92346,598.1309,300.52844,598.0224,300.81665,597.7983C301.04327,597.61694,301.49658,597.4583,301.8139,597.4583C302.13116,597.4583,302.5844,597.2996,302.81104,597.11835C303.06036,596.937,303.42297,596.7784,303.62695,596.7784C303.83087,596.7784,304.4428,596.3704,304.9641,595.8945C305.508,595.39594,306.05194,594.9426,306.23328,594.8973C306.3919,594.82935,306.79987,594.30804,307.16248,593.74146L307.81976,592.72156L309.54218,592.699C310.81134,592.699,311.3553,592.6083,311.5592,592.35895C311.71783,592.1777,312.1938,592.019,312.60175,592.019C313.03235,592.019,313.37225,591.9057,313.37225,591.79236C313.37225,591.6564,313.71228,591.56573,314.12024,591.56573C314.52814,591.56573,315.07208,591.40704,315.3214,591.22577C315.54803,591.0445,315.93335,590.88586,316.15997,590.88586C316.63593,590.88586,319.94482,587.75824,319.94482,587.30493C319.94482,587.169,320.10345,587.033,320.28473,587.033C320.466,587.033,320.62463,586.829,320.62463,586.6024C320.62463,586.3531,320.80597,586.10376,321.03265,586.0585C321.1769,586.0264,322.18243,585.9944,323.50436,585.9944C324.0518,585.9944,324.6535,585.9999,325.27075,586.0131C327.40112,586.03577,330.8233,586.0585,332.88574,586.0812L336.6479,586.12646L336.9652,586.73834C337.14655,587.101,337.44116,587.5316,337.62244,587.7129C337.82635,587.8942,337.93976,588.2342,337.8944,588.4608C337.84906,588.6648,337.98505,588.9141,338.16638,588.98206C338.3703,589.05005,338.529,589.322,338.529,589.5487C338.529,589.7753,338.73297,590.09265,338.98224,590.2513C339.23157,590.4099,339.43555,590.6592,339.43555,590.8179C339.43555,590.9538,339.50354,591.1125,339.61682,591.1578C339.70746,591.1805,340.13812,591.92834,340.56873,592.8122C341.45258,594.60266,341.42993,594.5573,342.38177,595.6452C342.74445,596.0758,343.06177,596.5744,343.06177,596.7557C343.06177,596.937,343.31104,597.39026,343.60565,597.7756C343.87762,598.1609,344.28552,598.7728,344.48956,599.1581C344.67084,599.5207,345.1468,600.1779,345.53204,600.6085C345.91736,601.0392,346.23462,601.5151,346.23462,601.6737C346.23462,601.8324,347.05048,602.80695,348.07037,603.8494C349.09027,604.89197,350.6314,606.47845,351.51526,607.4076C352.4218,608.3142,353.82697,609.5154,354.64288,610.0366C355.45874,610.58057,356.252,611.19244,356.41064,611.3738C356.59192,611.57776,356.84125,611.7364,356.99988,611.7364C357.13586,611.7364,357.45313,611.9404,357.70245,612.21234C357.92908,612.4843,358.42767,612.8469,358.813,613.02826C359.1756,613.2322,359.85553,613.6855,360.28613,614.02545C360.71674,614.38806,361.16998,614.6827,361.30597,614.6827C361.4646,614.6827,361.9632,614.9773,362.46185,615.3626C362.9378,615.7252,363.4817,616.04254,363.64032,616.04254C363.7763,616.04254,363.9123,616.1332,363.9123,616.24646C363.9123,616.3598,364.2296,616.5637,364.59222,616.7224C364.97748,616.8811,365.2721,617.085,365.2721,617.19836C365.2721,617.3117,365.61206,617.5836,366.04266,617.7876C366.45062,618.0143,367.28918,618.4448,367.90112,618.76215C369.12494,619.3967,370.55273,620.3713,370.66614,620.6206C370.71136,620.7339,370.8927,620.8019,371.07404,620.8019C371.2553,620.8019,371.3913,620.8925,371.3913,621.00586C371.3913,621.11914,371.7539,621.4138,372.18457,621.6857C372.61517,621.93506,372.97778,622.3203,372.97778,622.54694C373.00043,622.7736,373.4084,623.2495,373.90698,623.6348C374.40558,623.99744,375.0855,624.58673,375.38013,624.9267C375.6974,625.24396,376.2187,625.58386,376.5133,625.6519C376.80792,625.74255,377.05725,625.90125,377.05725,626.0145C377.05725,626.1505,377.1479,626.24115,377.28387,626.24115C377.39722,626.24115,377.78247,626.5131,378.14508,626.87573C379.7542,628.39417,381.386,629.8674,381.49933,629.8674C381.56732,629.8674,381.90723,630.1393,382.2472,630.4793C383.40308,631.63513,384.74023,632.81366,384.87622,632.81366C385.03485,632.81366,386.66663,634.2641,387.23328,634.94403C387.4372,635.1706,388.11713,635.8279,388.72906,636.4171C389.36365,636.9837,390.38348,637.98096,391.0407,638.61554C391.6753,639.2501,392.35522,639.83936,392.55914,639.9073C392.76318,639.998,392.9218,640.1567,392.9218,640.26996C392.9218,640.38324,393.1258,640.5646,393.37506,640.63257C393.6244,640.70056,393.8283,640.8819,393.8283,640.9952C393.8283,641.1085,394.53088,641.90173,395.39215,642.78564C396.2307,643.64685,396.91064,644.3721,396.8653,644.3721C396.8426,644.3721,397.09192,644.6667,397.40924,645.052C397.74915,645.4146,398.13446,645.7319,398.2931,645.7319C398.45172,645.7319,398.58777,645.7999,398.58777,645.9132C398.58777,646.00385,399.29028,646.79706,400.1515,647.68097C401.0354,648.5649,401.76062,649.4261,401.80597,649.5847C401.85126,649.7434,402.30457,650.33264,402.8485,650.8766C403.36975,651.4432,403.8004,651.98706,403.8004,652.1004C403.8004,652.2137,403.89105,652.3044,404.02704,652.3044C404.32166,652.3044,405.16022,653.2336,405.04688,653.43756C404.97888,653.5282,405.2962,653.9588,405.72675,654.36676C406.1574,654.79736,406.51996,655.2507,406.51996,655.4093C406.51996,655.5453,406.63336,655.7039,406.792,655.7492C406.9959,655.81726,406.9959,656.15717,406.76935,657.1997C406.2254,659.6927,406.2027,660.91656,406.67865,661.3699C407.31323,662.0271,407.53986,662.3444,407.7212,662.79767C407.8119,663.04694,408.0838,663.27356,408.31042,663.3416C408.55975,663.40955,408.92236,663.7722,409.1037,664.1575C409.5796,665.132,410.0329,665.67596,410.35022,665.67596C410.48615,665.67596,410.5995,665.81195,410.5995,665.9706C410.5995,666.1292,410.87146,666.58246,411.23407,666.9678C411.57397,667.353,412.09528,668.10095,412.4126,668.64484C412.72986,669.16614,413.43243,670.02734,413.97638,670.5713C414.54297,671.11523,414.90558,671.5685,414.81494,671.5685C414.339,671.5685,416.24274,672.92834,416.89996,673.0643C417.30792,673.13226,417.62518,673.33624,417.62518,673.5176C417.62518,673.6989,417.85187,673.83484,418.19177,673.83484C418.59973,673.83484,418.82635,673.9935,418.985,674.42413C419.27966,675.14935,419.12103,675.4213,418.3958,675.4213C418.10114,675.4213,417.85187,675.55725,417.85187,675.71594C417.85187,676.9171,420.2542,679.54614,421.74994,679.9994C422.03223,680.0824,422.2324,680.1289,422.41394,680.1289C422.72803,680.1289,422.98636,679.9897,423.51776,679.65936C424.01636,679.31946,424.4923,679.0475,424.5603,679.0475C424.65094,679.0475,424.87756,678.88885,425.08154,678.7075C425.28552,678.52625,426.14673,677.7557,427.008,676.96246C427.8692,676.1692,429.07037,675.0587,429.6823,674.4468C430.27155,673.85754,430.81543,673.3816,430.88342,673.3816C431.06476,673.3816,434.66827,669.7101,435.75616,668.4183C436.32275,667.73834,437.16132,666.78644,437.61456,666.2652C438.0905,665.7666,438.47583,665.268,438.47583,665.2C438.47583,665.1094,438.7704,664.70135,439.1557,664.29346C439.5183,663.86285,439.83563,663.3869,439.83563,663.2283C439.83563,663.06964,439.99426,662.8883,440.1756,662.8203C440.35687,662.7297,440.5155,662.54834,440.5155,662.38965C440.5155,662.231,440.6062,662.04974,440.69684,662.00446C440.78754,661.9591,441.35406,661.1659,441.9433,660.23663C443.0312,658.4916,445.47882,655.7266,447.33734,654.1854C448.83313,652.8936,452.23267,649.0635,452.57257,648.2702C452.64056,648.0436,453.1845,647.38635,453.7511,646.79706C454.31775,646.1852,454.79364,645.6186,454.79364,645.52795C454.79364,645.4373,455.2016,644.96136,455.7002,644.48535C456.1988,644.00946,456.60675,643.51086,456.60675,643.4202C456.60675,643.3069,456.72003,643.10297,456.83337,642.9443C457.7173,641.92444,461.11682,637.0064,461.63806,635.9865C462.00067,635.30664,462.54462,634.3321,462.83923,633.83344C463.13385,633.3349,463.6551,632.247,463.99512,631.3858C464.33508,630.54724,464.6977,629.8674,464.81097,629.8674C464.90167,629.8674,464.9923,629.68604,464.9923,629.48206C464.9923,629.2554,465.24164,628.5755,465.5362,627.9409C465.85352,627.32904,466.2614,626.19586,466.46545,625.44794C466.66943,624.7,466.9187,623.7708,467.0547,623.38556C467.53064,621.84436,467.0547,620.18994,465.8308,619.0794C464.9923,618.3089,464.96967,618.3089,462.86188,618.3089C461.25275,618.3089,460.6635,618.39954,460.45953,618.64886C460.3009,618.83014,459.9383,618.9888,459.64368,618.9888C459.3717,618.9888,459.05444,619.1021,458.98645,619.2154C458.8731,619.4194,457.17334,620.6659,455.5642,621.7311C455.2696,621.91235,454.56702,622.50165,454.00037,623.0229C453.4112,623.5442,452.8899,623.97473,452.79926,623.97473C452.64056,623.97473,451.64337,624.79065,450.69153,625.67456C450.48755,625.85583,450.23822,626.0145,450.1023,626.0145C449.96625,626.0145,449.73962,626.17316,449.581,626.3545C449.4223,626.5358,449.12775,626.69446,448.90106,626.69446C448.6745,626.69446,448.4478,626.89844,448.37982,627.1477C448.21844,627.73944,446.52505,628.473,445.6564,628.473C445.4271,628.473,445.25528,628.4219,445.18427,628.3035C445.15482,628.2615,445.08084,628.2428,444.97745,628.2428C444.52383,628.2428,443.5036,628.6017,443.18982,628.91547C443.0312,629.0741,442.73657,629.18744,442.5326,629.18744C442.30597,629.18744,442.0567,629.2781,441.98865,629.41406C441.92065,629.52734,441.6034,629.6407,441.28607,629.6407C440.6062,629.6407,439.69965,630.2073,438.97443,631.04584C438.67975,631.40845,438.24915,631.6804,438.02252,631.6804C437.7959,631.6804,437.52386,631.77106,437.45593,631.9071C437.38794,632.0204,437.09332,632.1337,436.84406,632.1337C436.3454,632.1337,434.0564,633.1309,433.48975,633.6069C433.1045,633.92413,431.29138,634.4001,430.45288,634.4001C430.1129,634.4001,429.59167,634.6947,429.18365,635.07996C428.59442,635.64655,428.2998,635.7599,427.3706,635.7599C426.30536,635.7599,426.23737,635.71454,426.23737,635.1933C426.23737,634.87604,426.35077,634.6267,426.46405,634.6267C426.60004,634.6267,426.69067,634.468,426.69067,634.28674C426.69067,634.10547,426.53204,633.94684,426.35077,633.94684C425.94275,633.94684,425.87482,632.9043,426.30536,632.7456C426.4867,632.6776,426.4187,632.47363,426.07874,632.111C425.82333,631.8556,425.66562,631.73346,425.52777,631.73346C425.44547,631.73346,425.37024,631.777,425.28552,631.8617C425.1269,632.0204,424.33362,632.1337,423.26843,632.1337L421.52338,632.1337L421.3874,631.3858C421.2514,630.63794,420.95673,630.298,419.8236,629.5727C419.54816,629.3937,419.33966,629.3067,419.14728,629.3067C419.02307,629.3067,418.90555,629.34296,418.78107,629.41406C418.53174,629.52734,418.19177,629.6407,418.0105,629.6407C417.5799,629.6407,414.67896,626.67175,414.67896,626.2185C414.67896,626.0145,414.52032,625.4932,414.339,625.0853L414.02167,624.31476L413.99902,625.24396C413.99902,626.10516,413.93103,626.2185,413.22845,626.4904C412.79785,626.67175,411.9593,627.4197,411.27936,628.2129C410.4755,629.1868,410.01956,629.6019,409.6455,629.6019C409.4712,629.6019,409.31467,629.5118,409.149,629.34607C408.99036,629.2101,408.5371,628.8248,408.12915,628.50757C407.7212,628.19025,407.24524,627.805,407.0866,627.6463C406.90527,627.5103,406.74664,627.3743,406.67865,627.3743C406.49738,627.3743,399.78888,620.5979,399.04102,619.6687C398.6104,619.1021,398.17975,618.60345,398.0891,618.5809C397.99847,618.53546,397.90784,618.39954,397.90784,618.2862C397.90784,618.1502,397.6585,617.83295,397.3639,617.561C397.09192,617.289,395.95868,615.8385,394.87085,614.3427C393.80566,612.8469,392.74048,611.3738,392.51392,611.07916C392.30988,610.78455,391.92456,610.1726,391.6753,609.742C390.7008,607.99695,389.49957,606.7504,388.797,606.7504C388.4344,606.7504,388.07172,606.4331,387.59583,605.7759C385.98676,603.4868,382.72314,599.4074,380.91003,597.4583C380.59277,597.11835,379.77686,596.18915,379.097,595.39594C378.41705,594.60266,377.37457,593.4468,376.80792,592.8122C376.2187,592.2003,375.26678,591.1125,374.65485,590.43256C374.04297,589.7527,372.93243,588.5288,372.18457,587.7129C367.78778,582.9309,366.76788,581.79767,366.42798,581.3444C366.22394,581.07245,365.70276,580.43787,365.24945,579.9166C364.79614,579.41797,363.9123,578.1942,363.2777,577.2423C362.62048,576.29047,361.9632,575.40656,361.80457,575.31586C361.64587,575.2252,361.35132,574.8853,361.14734,574.568C360.94336,574.25073,360.4901,573.68414,360.12744,573.3215C359.47028,572.6416,357.56647,569.8086,357.56647,569.51404C357.56647,569.4234,357.06787,568.6528,356.4333,567.79156C355.82135,566.93036,355.3001,566.1371,355.3001,566.0011C355.3001,565.8651,355.20947,565.7292,355.11877,565.68384C354.8695,565.59314,353.66827,563.5761,353.19238,562.44293C352.9657,561.94434,352.67114,561.3324,352.53516,561.0831C352.37653,560.83386,352.01385,560.1312,351.67395,559.54193C351.01666,558.3182,349.49817,556.6637,348.56897,556.18774C348.20636,556.0291,347.63983,555.66644,347.25452,555.39453C345.91736,554.46533,343.515,553.6495,341.6339,553.4908C341.02997,553.4359,340.4177,553.4059,339.97836,553.4059C339.6923,553.4059,339.47955,553.41864,339.3902,553.44543C339.35187,553.4531,339.30185,553.4569,339.2427,553.4569C338.95212,553.4569,338.44083,553.36566,338.00775,553.19617C336.91986,552.81085,334.44952,552.47095,328.557,551.927C327.2425,551.791,325.81464,551.587,325.38403,551.45105C324.95343,551.3377,324.13757,551.2244,323.57092,551.2244C323.0044,551.2244,322.43774,551.1338,322.30182,550.99774C322.18848,550.8845,321.57654,550.7258,320.96466,550.63513C320.33008,550.5672,319.6275,550.4312,319.37817,550.3178C319.12885,550.2045,318.51697,550.06854,318.01837,550.02325C317.51978,549.9779,316.65857,549.8193,316.09198,549.6832C315.52533,549.54736,314.25616,549.2527,313.25903,549.04865C312.26178,548.8447,311.2193,548.5954,310.92462,548.4821C310.63,548.36884,309.92743,548.2781,309.3382,548.2781C308.74896,548.2781,307.77435,548.11945,307.16248,547.9382C306.5506,547.7569,305.21344,547.5982,304.19354,547.5982C303.17365,547.5982,302.04053,547.50757,301.67786,547.3716C301.06592,547.16754,299.29822,546.9636,294.33484,546.4651C293.26965,546.3743,291.9552,546.1704,291.38855,546.0344C290.82196,545.89844,289.21283,545.78516,287.83038,545.78516L285.26935,545.78516L285.26935,544.7426C285.26935,544.17596,285.3827,543.4961,285.54132,543.2241C285.85864,542.61224,287.6264,540.3006,288.4876,539.34863C288.82758,538.9633,289.73413,537.87555,290.5047,536.9463C291.25256,536.0171,292.09113,534.97455,292.3631,534.63464C292.63507,534.2946,293.11102,533.70544,293.42828,533.2975C293.7456,532.9122,294.42548,532.11896,294.96942,531.52966C295.49066,530.9631,295.98932,530.3285,296.0573,530.10187C296.1253,529.87524,296.28394,529.6939,296.39722,529.6939C296.51056,529.6939,296.60126,529.5579,296.60126,529.37665C296.60126,529.19525,296.6692,529.014,296.78253,528.9687C297.00916,528.85535,298.4143,526.7703,298.4143,526.52106C298.4143,526.385,298.4823,526.2944,298.59564,526.2944C298.68628,526.2944,299.2755,525.56915,299.8874,524.7306C300.52203,523.8694,301.31525,522.9855,301.67786,522.7815C302.01776,522.5548,302.99237,521.73895,303.80823,520.94574C304.62415,520.1525,305.32672,519.4953,305.37207,519.4953C305.48535,519.4953,308.18237,517.1609,309.1115,516.25433C309.3382,516.0504,309.58746,515.86914,309.65546,515.86914C310.06342,515.86914,312.76038,513.6707,313.82556,512.4695C314.50555,511.69897,315.25336,510.90576,315.48004,510.70178C315.68402,510.49786,315.8653,510.2032,315.8653,510.0672C315.8653,509.9085,315.95593,509.74988,316.04663,509.70465C316.13727,509.65924,316.56793,509.1833,316.99847,508.61676C317.42914,508.0728,318.06372,507.32483,318.40363,506.98492C318.7784,506.5824,319.27222,506.34988,319.5987,506.34988C319.80527,506.34988,319.94482,506.443,319.94482,506.64502C319.94482,506.80365,320.23938,507.52887,320.62463,508.2768C320.9873,509.02466,321.30463,509.86328,321.30463,510.1352C321.30463,510.4071,321.44055,510.76978,321.6219,510.95105C321.80316,511.10968,322.0752,511.69897,322.23383,512.2203C322.39246,512.7415,322.75507,513.39874,323.02704,513.69336C323.52563,514.19196,324.13757,515.34784,324.06958,515.68774C324.04694,515.7784,324.2282,515.9598,324.47748,516.0957C324.7268,516.2317,324.97614,516.685,325.06677,517.18353C325.15747,517.63684,325.45203,518.2488,325.724,518.5207C325.99597,518.7927,326.44922,519.4953,326.7439,520.0619C327.0385,520.6511,327.58246,521.3537,327.92242,521.6483C328.26233,521.943,328.557,522.3283,328.557,522.5096C328.557,522.69086,328.8969,523.21216,329.30487,523.6427C330.52875,525.0026,330.8233,525.3878,330.8233,525.61444C330.8233,525.7504,330.914,525.8411,331.02728,525.8411C331.14063,525.8411,331.4579,526.2944,331.7525,526.8383C332.02454,527.38226,332.45508,527.94885,332.7271,528.0848C332.99902,528.2434,333.54297,528.85535,333.97357,529.44464C334.3816,530.0566,335.01617,530.8271,335.37872,531.18976C335.7414,531.52966,336.036,531.9377,336.036,532.0963C336.036,532.255,336.2173,532.5269,336.44397,532.68555C336.91986,533.0482,337.87177,534.33997,338.3023,535.2465C338.68762,536.0851,339.9115,537.6263,341.2033,538.9633C341.7246,539.50726,342.15515,540.09656,342.15515,540.2552C342.15515,540.4365,342.26855,540.5725,342.38177,540.5725C342.51782,540.5725,342.7218,540.8444,342.83508,541.1617C342.97107,541.479,343.35638,542.0003,343.74158,542.31757C344.10425,542.61224,344.42157,543.0202,344.42157,543.17883C344.42157,543.33746,344.48956,543.51874,344.60284,543.5641C344.69354,543.58673,345.26007,544.3346,345.872,545.1732C346.4613,546.0344,347.0959,546.78235,347.27716,546.8503C347.4585,546.9183,347.59442,547.0543,347.59442,547.16754C347.59442,547.4396,348.95428,548.6861,349.43024,548.8447C349.7702,548.958,350.1781,549.72864,350.1101,550.13654C350.06482,550.4992,351.96857,551.67773,353.1244,551.995C353.78162,552.1989,354.71088,552.6296,355.20947,552.9921C356.04797,553.60406,358.90363,554.6466,361.75928,555.4172C365.3628,556.3691,366.69995,556.61835,368.89825,556.75433C370.21283,556.845,372.45654,557.07166,373.88434,557.27563C375.6521,557.50226,379.70886,557.6836,386.46265,557.7969C397.2052,558.00085,399.0863,558.1821,399.94757,559.1114C400.19684,559.3833,400.80878,559.81396,401.28473,560.0406C401.73804,560.2899,402.25922,560.6298,402.41785,560.83386C402.57648,561.01514,403.23376,561.37775,403.8684,561.6271C404.52563,561.87634,405.43213,562.26166,405.88544,562.5109C406.33868,562.73755,407.7212,563.12286,408.945,563.3268C415.0869,564.3693,416.03876,564.61865,416.03876,565.2079C416.03876,565.3665,416.1521,565.5025,416.26538,565.5025C416.40137,565.5025,416.49207,565.7972,416.49207,566.18243C416.49207,566.54504,416.60535,566.8623,416.74133,566.8623C416.9226,566.8623,416.96802,567.33826,416.8546,568.5168C416.7187,569.9673,416.76398,570.23926,417.12665,570.66986C417.43402,571.01666,417.714,571.18524,417.95413,571.18524C418.40457,571.18524,418.71503,570.5921,418.8037,569.4686C418.91705,568.4035,419.2343,567.29297,419.68756,566.3638C420.0276,565.68384,419.91425,565.3892,419.0984,564.596C418.66772,564.16534,418.30518,563.62146,418.30518,563.3495C418.30518,562.9415,420.36755,560.3125,420.8661,560.1086C421.34204,559.88196,421.7047,559.29266,421.7047,558.7487C421.682,558.0462,421.3874,557.6156,420.52618,557.049C419.64233,556.4823,419.68756,555.7345,420.6848,554.98663C421.63672,554.23865,421.86334,553.5134,421.47803,552.33496C421.22876,551.56433,421.04742,551.4057,420.2542,551.2018C419.73297,551.0658,419.18903,550.8391,419.05298,550.7258C418.5771,550.3406,418.71307,549.5246,419.32495,548.958C420.18622,548.14215,420.11823,546.737,419.16632,545.78516C418.3844,545.0214,417.93808,544.7683,417.08978,544.7683C416.8808,544.7683,416.64746,544.7837,416.37866,544.81055C416.2819,544.82056,416.16806,544.8253,416.04007,544.8253C414.42957,544.8253,410.57947,544.07635,410.3275,543.67737C410.0782,543.2695,410.1009,542.3856,410.3728,542.3856C410.84875,542.3856,412.59387,540.4365,413.04712,539.4166C413.47778,538.48737,413.50043,538.28345,413.22845,537.3996C412.97913,536.5384,412.38995,535.81305,411.93665,535.81305C411.846,535.81305,411.12073,536.37976,410.3275,537.0596C407.78912,539.30334,406.76935,539.8926,405.04688,540.1419C403.3471,540.36847,403.30176,540.4139,399.9702,543.5414L398.06647,545.33185L396.81995,545.33185C395.4828,545.33185,391.4713,544.7879,390.3155,544.42535C389.95282,544.31195,388.72906,544.0627,387.59583,543.83606C385.69208,543.47345,381.15936,542.0003,380.11682,541.4111C378.68903,540.61786,375.992,539.394,374.1109,538.73676C372.93243,538.32874,371.93524,537.8982,371.8899,537.80756C371.8446,537.7169,371.64063,537.6263,371.41394,537.6263C370.9607,537.6263,368.42236,536.76495,368.10504,536.49304C367.96912,536.37976,367.1532,536.1077,366.292,535.85846C365.40808,535.60913,364.2522,535.2465,363.68567,535.01984C363.11908,534.8159,362.46185,534.5893,362.21252,534.5213C361.55524,534.3174,360.17285,533.2748,359.5155,532.4815C358.63165,531.439,356.52393,528.47015,356.3653,528.0395C356.18396,527.5409,352.51245,522.011,351.062,520.01654C350.4048,519.11005,349.86084,518.2714,349.86084,518.15814C349.86084,518.0448,349.72485,517.9089,349.54352,517.8409C349.3849,517.7729,348.95428,517.22894,348.61432,516.617C348.2744,516.0278,347.7531,515.27985,347.48114,514.9625C346.4159,513.76135,343.65094,509.5006,342.54047,507.32483C342.31378,506.8943,342.0645,505.8744,341.99652,505.08118C341.92853,504.26526,341.76984,503.56274,341.6792,503.49475C341.56592,503.42676,341.47528,503.0868,341.47528,502.70154C341.47528,501.90833,340.7727,498.69006,340.11542,496.49164C339.50354,494.42926,339.1183,493.0241,338.64233,490.9391C338.4157,490.0099,338.14368,489.08063,338.05304,488.89935C337.93976,488.71808,337.5998,487.74347,337.25983,486.74622C336.91986,485.70374,336.05865,483.98138,335.26544,482.7121C334.51752,481.48834,333.79224,480.2871,333.6563,480.0379C333.54297,479.81116,333.31635,479.60724,333.15765,479.60724C333.02173,479.60724,332.61377,479.31256,332.25116,478.95C331.88855,478.58734,331.0727,478.0434,330.46075,477.77148C329.73553,477.4088,329.23688,476.97815,329.01025,476.52496C328.69293,475.84503,328.08105,475.21045,325.67865,473.03473C324.06958,471.56165,323.503,471.10834,322.02985,470.1112C321.30463,469.61255,320.5114,468.81927,320.23938,468.34338C319.96747,467.86743,319.12885,466.87018,318.38098,466.1223C316.8852,464.64917,316.70386,464.08258,317.51978,463.35736C318.7436,462.2469,322.02985,458.73395,323.11768,457.3968C324.25085,455.969,326.0866,452.5468,326.42657,451.187C326.52783,450.7651,326.60397,450.61966,326.91693,450.61966C327.02426,450.61966,327.1595,450.63678,327.33313,450.6657C327.42392,450.68005,327.5129,450.68683,327.59915,450.68683C328.33087,450.68683,328.86108,450.1981,328.557,449.69122C328.21704,449.16992,328.28497,448.46735,328.76093,447.49286C329.25958,446.4956,329.66748,444.6825,329.84875,442.89203C329.9394,441.9402,330.18878,441.32825,330.9593,440.1272C332.11517,438.38196,332.29645,437.2035,331.4806,436.75018C331.0727,436.54626,331.02728,436.365,331.14063,435.57178C331.23132,435.05048,331.43524,434.46124,331.61658,434.2572C331.7979,434.07593,331.95654,433.7359,331.95654,433.53198C331.95654,433.328,332.04718,433.12396,332.16052,433.0561C332.2738,432.9881,332.43243,432.5348,332.52313,432.08154C332.61377,431.60553,332.74976,431.107,332.8631,430.9937C332.95374,430.85767,333.11237,429.90582,333.18036,428.84058C333.24835,427.77545,333.31635,426.75555,333.339,426.57428C333.40698,425.66766,332.99902,421.1349,332.8404,421.1349C332.74976,421.1349,332.6364,419.68445,332.59113,417.8941C332.5005,414.87976,332.45508,414.60785,331.8659,413.47467C331.50323,412.8401,331.14063,412.29608,331.05,412.29608C330.9593,412.29608,330.80066,412.1148,330.73267,411.88812C330.37006,410.891,328.87427,409.10052,327.42377,407.92206C326.53986,407.19684,324.0016,405.497,323.7976,405.497C323.7069,405.497,323.57092,405.42908,323.52563,405.31573C323.4123,405.0664,321.9845,404.36383,321.5539,404.36383C321.3499,404.36383,321.07794,404.2732,320.94196,404.1372C320.71533,403.91052,319.31018,403.57062,317.11182,403.20807C316.3639,403.09467,315.11743,402.89075,314.3695,402.7774C313.6157,402.65543,312.59616,402.5931,311.48865,402.5931 Z M337.41376,673.20245Q334.197,673.20245,330.86905,673.8017L330.77325,673.8204Q317.17963,676.64856,309.08295,688.1857Q301.40533,699.9615,303.86923,713.71124Q306.7285,727.4349,318.2448,735.47845Q327.19534,741.29834,337.21527,741.29834Q340.45596,741.29834,343.80853,740.6896Q357.4073,737.8807,365.5211,726.3528Q373.21512,714.58514,370.76892,700.833Q367.92746,687.10675,356.42422,679.0487Q347.46124,673.20245,337.41376,673.20245 Z"/> </g> </g> </svg>