<?xml version='1.0' encoding='utf-8'?>
<svg xmlns="http://www.w3.org/2000/svg" version="1.1" width="600px" height="976px" viewBox="0 0 600 976"> <g id="layer1"> <g style="fill:rgb(0,0,0); fill-opacity:1.0; stroke-linejoin: miter"> <path d="M251.61812,567.3307L251.54486,567.37415L251.54486,567.37415C251.57465,567.35284,251.5986,567.338,251.6156,567.3307 Z M282.20868,509.59235C281.90274,509.59235,281.62466,509.6046,281.45584,509.63275C281.31213,509.6507,281.15045,509.7136,281.10553,509.75848C281.05164,509.8034,280.88995,509.83932,280.72827,509.83932C280.5756,509.83932,280.28815,509.90222,280.09955,509.98306C279.43484,510.24353,278.28513,510.83636,278.17734,510.9711C278.11447,511.04294,277.9079,511.18668,277.71924,511.29446C277.52164,511.40225,277.36896,511.519,277.36896,511.5639C277.36896,511.59985,277.3061,511.63577,277.2342,511.63577C277.16235,511.63577,277.0995,511.6807,277.0995,511.7256C277.0995,511.77948,277.00067,511.9142,276.87494,512.031C276.74918,512.14777,276.6504,512.3004,276.6504,512.3813C276.6504,512.4531,276.61444,512.534,276.56952,512.552C276.40784,512.61487,275.9318,513.72864,275.9318,514.061C275.9318,514.25854,275.89587,514.43823,275.84198,514.4652C275.79706,514.4921,275.75214,514.61786,275.75214,514.72565C275.75214,514.8424,275.68927,515.08496,275.61743,515.2556C275.54556,515.43524,275.48267,515.7047,275.48267,515.8574C275.48267,516.0011,275.44675,516.12683,275.39288,516.12683C275.34796,516.12683,275.30304,516.2706,275.30304,516.4502C275.30304,516.56,275.28845,516.66516,275.25604,516.7711L275.25604,516.7711Q275.14484,516.6407,274.97372,516.6407Q274.96814,516.6407,274.9625,516.6408L274.96082,516.6408Q274.675,516.6468,274.20755,516.9817Q273.99048,517.1552,273.95276,517.47906Q273.90747,517.78485,274.0283,518.45886Q274.064,518.6657,274.12903,518.96655L274.12628,518.96655L274.12637,518.97424C274.12637,519.4054,274.17126,519.98926,274.22516,520.25867C274.4228,521.2108,274.43176,521.5072,274.27905,521.7407C274.23404,521.8058,274.19458,521.89594,274.16846,521.9816L274.1657,521.9816Q273.6198,522.6927,273.1913,523.2124Q272.879,523.59064,272.64474,523.84845L272.11166,524.4127L272.11166,524.4127C272.10022,524.40015,272.08517,524.388,272.06717,524.3762L272.06445,524.3762Q271.8892,524.22577,271.565,524.22577L271.5586,524.22577L271.4958,524.2269Q271.47235,524.2209,271.433,524.2209Q270.94247,524.2209,267.9783,525.16034Q261.32068,526.1737,258.61057,527.05457Q254.89497,528.1491,252.0758,530.0587Q248.98921,531.9287,242.46992,538.70233L242.4675,538.70233C242.3058,538.82324,242.15271,538.9812,242.05795,539.1342L242.05553,539.1342Q241.76627,539.43665,241.47046,539.74835Q239.47151,541.87555,237.79462,545.69916L237.79224,545.69916C237.6715,545.8083,237.51541,546.11475,237.14665,546.88196C236.80533,547.5825,236.41011,548.40894,236.26639,548.72327C236.12268,549.03766,235.83525,549.54065,235.62866,549.83704C235.38614,550.1784,235.24242,550.48376,235.24242,550.6455C235.24242,550.81616,235.16158,550.9868,235.01787,551.1215C234.89212,551.2383,234.7933,551.40894,234.7933,551.4988C234.7933,551.5976,234.73044,551.6964,234.65858,551.7323C234.58672,551.7593,234.52385,551.8311,234.52385,551.894C234.52385,551.9928,234.35318,552.38806,233.97594,553.1515C233.93102,553.24133,233.8951,553.39404,233.8951,553.4928C233.8951,553.6006,233.7963,553.7803,233.67952,553.915C233.56274,554.0408,233.37413,554.427,233.26634,554.78625C232.91603,555.927,232.84418,556.12463,232.45795,557.0857C231.85612,558.5768,231.71242,558.88214,231.38905,559.4211C231.22737,559.69055,231.02078,560.1127,230.93097,560.3642C230.85013,560.6067,230.67049,560.975,230.53575,561.16364C230.28424,561.5409,229.49382,563.1217,229.49382,563.2655C229.49382,563.3014,229.37704,563.5888,229.22435,563.8942C229.08063,564.1996,228.95488,564.478,228.95488,564.505C228.95488,564.5409,228.76625,564.83734,228.5417,565.1787C228.30817,565.53796,228.0836,566.005,228.02074,566.27454C227.8991,566.7969,226.35786,570.16406,225.58176,571.6798L225.5795,571.6798Q225.2776,572.1506,224.45624,573.3959Q224.18901,573.81433,223.99297,574.1577Q223.69487,574.6783,223.55362,575.05273L223.55139,575.05273C223.51166,575.0674,223.47574,575.1414,223.47574,575.22974C223.47574,575.32855,223.4398,575.4094,223.38591,575.4094C223.341,575.4094,223.2961,575.46326,223.2961,575.5172C223.2961,575.75073,222.75716,576.6759,222.50566,576.8915C222.35297,577.0172,222.15535,577.2687,222.05655,577.45734C221.92824,577.7046,221.78249,577.91364,221.61511,578.0883L221.6129,578.0883Q216.34094,579.95105,213.69505,582.18365Q210.86299,584.47394,207.57028,588.948L207.5682,588.948Q205.98198,589.28314,205.12595,589.63556Q203.85216,590.13116,202.9336,591.0025Q201.0092,592.8264,200.01248,596.511L200.01048,596.511C199.72641,597.0695,199.50569,597.7232,199.1789,598.94275C199.01721,599.5625,198.73875,600.3889,198.56808,600.7841C198.1639,601.7003,198.0651,602.14044,198.0561,602.98474C198.0561,603.362,198.02017,603.7033,197.97528,603.7482C197.85849,603.865,198.0112,605.07764,198.13695,605.1225C198.19084,605.1405,198.23575,605.19434,198.23575,605.23926C198.23575,605.5087,199.4753,606.75726,199.73578,606.75726C199.78967,606.75726,199.87949,606.8201,199.94238,606.892C200.00525,606.96387,200.12201,607.02673,200.20285,607.02673C200.29268,607.02673,200.53519,607.10754,200.74179,607.21533C200.95737,607.3142,201.28072,607.42194,201.46036,607.4489C201.64001,607.4758,201.83762,607.5477,201.90948,607.6016C201.99031,607.6645,202.52026,607.70044,203.3556,607.70044L204.676,607.70044L204.93648,607.395C205.20593,607.07166,205.2239,607.01776,205.41254,605.2752C205.46643,604.7812,205.54727,604.29614,205.59218,604.1973C205.63708,604.0985,205.70895,603.7303,205.76285,603.3889C205.80774,603.03864,205.89757,602.58057,205.96045,602.356C206.01434,602.1315,206.09518,601.66437,206.14009,601.30505C206.185,600.9009,206.27483,600.56854,206.3916,600.40686C206.49039,600.2721,206.59818,599.98474,206.62512,599.7871C206.69699,599.38293,206.67902,599.39185,207.54132,599.24817C207.7479,599.2122,207.83772,599.12244,207.91856,598.90686C207.98145,598.7451,208.02635,598.5386,208.02635,598.4308C208.02635,598.332,208.11618,598.2062,208.23294,598.1433C208.49342,598.0086,208.6551,597.6583,208.71799,597.10144C208.7629,596.6972,209.14912,595.9876,209.49944,595.66425C209.55333,595.61035,209.8228,595.31396,210.09225,594.9906C210.36172,594.6762,210.66711,594.3259,210.76593,594.2271C211.10725,593.88574,211.27791,593.48157,211.17012,593.28394C211.11623,593.1852,210.99048,593.1044,210.90065,593.1044C210.80907,593.1044,210.7556,593.071,210.7333,592.9939L210.7312,592.9939Q214.34468,590.2632,219.64063,586.9867Q222.06125,585.52747,223.74309,584.7199Q224.50903,584.35156,225.17484,584.094L227.32437,583.3308Q227.88226,583.0969,228.28313,582.83417Q228.82195,582.5062,229.62888,581.7251L229.63116,581.7251Q233.9273,582.4597,238.36699,582.7756L246.08716,573.881L246.0847,573.881C246.22961,573.874,246.25705,573.83923,246.2311,573.718L246.22864,573.718L251.76518,567.33923L251.7677,567.33923C251.92244,567.3718,252.03914,567.4581,252.03914,567.5499C252.03914,567.6218,252.12897,567.74756,252.24573,567.8374C252.35352,567.92725,252.56909,568.16077,252.7128,568.3584C252.85652,568.55597,253.10802,568.8524,253.2697,569.01404C253.43138,569.1847,253.56612,569.37335,253.56612,569.4363C253.56612,569.49915,253.79066,569.7865,254.06013,570.074C254.3296,570.37036,254.55415,570.6399,254.55415,570.6937C254.55415,570.73865,254.66194,570.8823,254.7787,570.99915C254.90446,571.1159,255.00327,571.25964,255.00327,571.3315C255.00327,571.4033,255.06615,571.4572,255.138,571.4572C255.20985,571.4572,255.27274,571.49316,255.27274,571.5381C255.27274,571.6638,255.66795,572.25665,255.7488,572.2656C255.91046,572.2656,256.43143,572.8764,256.49432,573.1189C256.53024,573.25366,256.62903,573.3884,256.7099,573.4064C256.79968,573.43335,256.91647,573.55005,256.97937,573.6669C257.0512,573.7836,257.13205,573.88245,257.16797,573.88245C257.20392,573.88245,257.3566,574.08,257.5003,574.3225C257.653,574.56506,257.9045,574.8974,258.0752,575.0681C258.46143,575.46326,258.95544,576.0471,258.95544,576.09204C258.95544,576.119,259.06323,576.24475,259.18896,576.3795C259.31473,576.5142,259.47638,576.72974,259.54828,576.8645C259.62012,577.00824,259.71893,577.116,259.76382,577.116C259.80875,577.116,259.86264,577.18787,259.8896,577.2687C259.91653,577.3585,260.0782,577.59204,260.25787,577.7897C260.42853,577.9873,260.57224,578.18494,260.57224,578.2298C260.57224,578.26575,260.67102,578.3825,260.79678,578.4813C260.92255,578.5801,261.02133,578.6969,261.02133,578.75073C261.02133,578.8047,261.0932,578.89453,261.17404,578.9574C261.22958,578.9978,261.30786,579.0169,261.40048,579.0169C261.63727,579.0169,261.9678,578.892,262.2519,578.67896C262.4046,578.56213,262.57526,578.4634,262.62915,578.4634C262.68304,578.4634,262.72797,578.41846,262.72797,578.37354C262.72797,578.31964,262.79083,578.2837,262.86267,578.2837C262.94354,578.2837,263.02435,578.2208,263.05133,578.1489C263.08725,578.07715,263.15912,578.0142,263.213,578.0142C263.27588,578.0142,263.4196,577.9154,263.53638,577.7897C263.65314,577.66394,263.78784,577.5651,263.84174,577.5651C263.89563,577.5651,264.04834,577.4663,264.18307,577.3406C264.3178,577.21484,264.46152,577.116,264.50644,577.116C264.56033,577.116,264.6142,577.0531,264.65015,576.9813C264.6771,576.9094,264.7669,576.84656,264.85675,576.84656C264.94656,576.84656,265.09924,576.74774,265.1891,576.62195C265.2789,576.4962,265.40466,576.39746,265.45856,576.39746C265.51245,576.39746,265.66513,576.29865,265.79987,576.17285C265.9346,576.0471,266.06934,575.94836,266.09628,575.94836C266.12323,575.94836,266.25797,575.8495,266.3927,575.72375C266.52744,575.598,266.66217,575.4992,266.7071,575.4992C266.74298,575.4992,266.86877,575.4004,266.98553,575.27466C267.1023,575.1489,267.22803,575.0501,267.26398,575.0501C267.3448,575.0501,268.1532,574.48425,268.18915,574.3944C268.2071,574.3585,268.27896,574.33154,268.35083,574.33154C268.42267,574.33154,268.47656,574.2866,268.47656,574.2417C268.47656,574.1878,268.53046,574.15186,268.59332,574.15186C268.6652,574.15186,268.94363,573.99023,269.2221,573.7926C269.25748,573.7674,269.2913,573.74347,269.3236,573.7209L269.3263,573.7209Q268.66348,578.3513,268.47726,581.10236Q268.4032,582.1772,268.39288,583.3163Q268.37527,583.5315,268.4385,587.14294Q268.44235,588.0453,268.40875,588.96326Q268.3701,589.989,268.28015,591.07684Q268.2642,591.3724,267.89673,595.26556L267.781,596.7738Q267.7503,597.27527,267.74313,597.65955L267.74045,597.65955C267.60342,597.68524,267.3951,597.68524,267.02145,597.68524C266.29388,597.68524,266.15918,597.71216,266.0244,597.86487C265.86273,598.0625,265.80884,598.5835,265.96155,598.5835C266.01544,598.5835,266.0514,598.65533,266.0514,598.75415C266.0514,598.844,266.11426,598.9697,266.1861,599.0326C266.25797,599.09546,266.32083,599.20325,266.32083,599.2661C266.32083,599.338,266.36575,599.39185,266.41064,599.39185C266.6352,599.39185,266.4825,600.81104,266.1861,601.5027C266.12323,601.6464,266.0244,602.11346,265.96155,602.53564C265.89868,602.9578,265.79987,603.5416,265.72803,603.8381C265.66513,604.13446,265.5843,604.6644,265.54837,605.0237C265.50348,605.5447,265.45856,605.6704,265.3238,605.70636C265.1801,605.7423,265.15314,605.84106,265.15314,606.28125C265.15314,606.56866,265.10825,607.12555,265.05435,607.5297C264.9286,608.401,265.03638,608.6885,265.57532,608.9669C265.76395,609.0567,265.9346,609.1645,265.96155,609.19147C265.9885,609.2184,266.25797,609.2723,266.57233,609.29926C266.88672,609.3352,267.21008,609.3981,267.3089,609.4519C267.39868,609.4968,267.76697,609.54175,268.10828,609.54175C268.45862,609.54175,268.81787,609.5777,268.9077,609.6226C269.04245,609.69446,270.00354,609.84717,271.08142,609.95496C271.30597,609.9819,271.56644,610.03577,271.66525,610.0717C272.01556,610.2244,272.96765,610.43994,273.2641,610.43994C273.42578,610.43994,273.6054,610.48486,273.66827,610.5477C273.72217,610.6017,274.1084,610.66455,274.5126,610.69147C274.92578,610.7095,275.30304,610.7633,275.35693,610.8082C275.41083,610.85315,275.815,610.8981,276.25516,610.8981C276.69528,610.8981,277.2971,610.96094,277.5935,611.03284C277.97006,611.1204,278.70096,611.16315,279.37308,611.16315C280.07974,611.16315,280.72144,611.1159,280.8181,611.0238C280.88995,610.95197,281.05164,610.8891,281.1774,610.8891C281.30316,610.8891,281.41095,610.8442,281.41095,610.79926C281.41095,610.74536,281.46484,610.7095,281.5277,610.7095C281.59058,610.7095,281.7433,610.6017,281.85107,610.4669C282.03967,610.2603,282.05765,610.17053,282.00375,609.64056C281.96783,609.25433,281.90497,609.0298,281.81512,608.98486C281.7433,608.93994,281.68042,608.83215,281.68042,608.7423C281.68042,608.64355,281.61752,608.5537,281.54565,608.5178C281.47382,608.49084,281.41095,608.38306,281.41095,608.28424C281.41095,608.1854,281.34805,608.07764,281.27618,608.0507C281.20435,608.0148,281.14148,607.916,281.14148,607.8262C281.14148,607.7363,281.09656,607.6555,281.0337,607.6555C280.91693,607.6555,280.26123,607.23334,280.10852,607.0627C280.0636,607.0088,279.77618,606.76624,279.47977,606.5327C278.84204,606.02075,277.97076,605.25726,277.03662,604.377C276.4348,603.82007,275.9857,603.24524,275.5725,602.5267C275.50064,602.4009,275.2222,601.9428,274.95273,601.5027C274.6743,601.0536,274.5126,600.6943,274.5575,600.6583C274.6114,600.6314,274.6743,600.0565,274.70123,599.39185C274.72818,598.6913,274.82697,597.85596,274.93475,597.4158C275.1144,596.63434,275.2132,594.9457,275.09644,594.73914C275.05154,594.6852,274.90784,594.63135,274.75513,594.63135C274.47668,594.63135,274.43176,594.52356,274.5755,594.16425C274.77307,593.67017,274.94376,592.9696,274.94376,592.69116C274.94376,592.5205,274.97968,592.3139,275.03357,592.2241C275.0785,592.14325,275.19525,591.6043,275.29407,591.03845C275.59946,589.2689,275.91382,587.8857,276.20126,587.0414C276.35394,586.5922,276.5965,585.6042,276.74017,584.8407C276.87494,584.0772,277.06354,583.27783,277.1354,583.06226C277.21625,582.8467,277.31506,582.173,277.36896,581.57117C277.41385,580.9604,277.50366,580.3496,277.55756,580.20593C277.61145,580.0442,277.67435,578.97534,277.7013,577.47534C277.71924,576.119,277.77313,574.9243,277.81805,574.82556C277.9528,574.52014,278.00668,574.07104,278.07855,572.6609C278.12344,571.9153,278.20428,571.2147,278.25818,571.1159C278.3929,570.8644,278.3839,568.2865,278.2492,567.51404C278.16837,567.029,278.0965,566.8673,277.82703,566.5979C277.1574,565.9282,276.8523,565.50836,276.8414,565.2446L276.84418,565.2446Q276.89435,565.2667,276.94598,565.2893Q278.02795,565.7814,283.29172,567.88306Q284.09146,568.2147,284.5188,568.4458Q284.94772,568.6739,285.3254,568.96936L286.94144,570.3566Q287.39014,570.7254,287.8637,571.04645Q288.79712,571.6792,290.3061,572.4764L290.3032,572.4764C290.30328,572.48096,290.3033,572.48553,290.3033,572.4902C290.3033,572.562,290.15063,572.6249,289.88116,572.65186C289.27936,572.7147,288.59668,572.8944,288.59668,572.99316C288.59668,573.0381,288.52484,573.07404,288.444,573.07404C288.22842,573.07404,287.6715,573.28064,287.5368,573.4064C287.47394,573.46924,287.37512,573.52313,287.3302,573.52313C286.99786,573.52313,284.77026,575.3645,284.5188,575.8406C284.4469,575.9753,284.30322,576.1819,284.2044,576.29865C284.09662,576.4154,284.01578,576.5681,284.01578,576.62195C284.01578,576.6849,283.95288,576.7567,283.88104,576.79266C283.8092,576.8196,283.7463,576.90045,283.7463,576.9813C283.7463,577.0531,283.7104,577.116,283.6565,577.116C283.61157,577.116,283.56665,577.1699,283.56665,577.24176C283.56665,577.3046,283.50378,577.4124,283.43195,577.47534C283.36008,577.5382,283.29718,577.646,283.29718,577.7268C283.29718,577.7987,283.1984,577.9873,283.0906,578.14C282.78522,578.5352,282.5966,579.1909,282.381,580.52924C282.22833,581.51733,282.30017,584.1041,282.4888,584.3467C282.52472,584.3916,282.5786,584.58923,282.61456,584.76886C282.65048,584.9575,282.71335,585.11017,282.75827,585.11017C282.81216,585.11017,282.84808,585.2269,282.84808,585.37067C282.84808,585.5233,282.88403,585.6581,282.92892,585.69403C283.0547,585.76587,283.29718,586.27783,283.29718,586.4575C283.29718,586.54736,283.36008,586.63715,283.43195,586.6731C283.50378,586.7,283.56665,586.76294,283.56665,586.8168C283.56665,586.8707,283.66547,587.0234,283.7912,587.1581C283.917,587.29285,284.01578,587.44556,284.01578,587.5084C284.01578,587.5623,284.11456,587.68805,284.24033,587.78687C284.3661,587.8857,284.4649,587.99347,284.4649,588.0294C284.4649,588.10126,285.40802,589.0624,285.47986,589.0624C285.49783,589.0624,285.7224,589.25995,285.98288,589.5115C286.24335,589.75397,286.50385,589.9606,286.5667,589.9606C286.63858,589.9606,286.73737,590.02344,286.80026,590.09534C286.86313,590.1671,286.9889,590.23004,287.0787,590.23004C287.1775,590.23004,287.24936,590.2749,287.24936,590.3198C287.24936,590.47253,288.7494,591.12823,289.08173,591.12823C289.1895,591.12823,289.32425,591.17316,289.37814,591.22705C289.5701,591.419,290.8108,591.51794,292.01526,591.51794C293.178,591.51794,294.30704,591.4257,294.42615,591.236C294.4531,591.19116,294.62375,591.12823,294.79443,591.1013C295.20758,591.03845,295.78247,590.83185,295.78247,590.751C295.78247,590.70605,295.83636,590.67914,295.9082,590.67914C296.0699,590.67914,296.59085,590.3917,296.59085,590.2929C296.59085,590.25696,296.6717,590.23004,296.7705,590.23004C296.98608,590.23004,297.65973,589.7809,297.6687,589.61926C297.6687,589.5653,297.71362,589.5115,297.75854,589.5115C298.0819,589.5115,300.0041,587.4096,300.0041,587.0593C300.0041,587.0144,300.1029,586.8527,300.22864,586.69104C300.3544,586.52936,300.4532,586.3318,300.4532,586.2599C300.4532,586.0982,300.71368,585.5593,300.8664,585.3976C300.92926,585.34375,301.08197,584.9575,301.2077,584.5533C301.38733,583.9874,301.44122,583.6371,301.44122,582.9724C301.44122,581.83167,301.18976,579.7119,301.02808,579.5322C300.9562,579.4514,300.9023,579.21783,300.91132,578.9933C300.9203,578.55316,300.8125,578.2029,300.59692,578.0232C300.51608,577.9603,300.4532,577.84357,300.4532,577.7807C300.4532,577.70886,300.3544,577.4933,300.22864,577.29565C299.9502,576.84656,299.94122,576.5591,300.21967,576.2627C300.3993,576.06506,300.42627,575.98425,300.3544,575.8226C300.3005,575.7058,300.13882,575.5441,299.99512,575.46326C299.82446,575.3645,299.70767,575.2028,299.67175,575.04114C299.6358,574.8435,298.9891,574.1339,297.29147,572.4273C296.016,571.1339,294.90222,569.9662,294.83032,569.8314C294.67764,569.52606,294.12973,569.13983,293.30338,568.7446C292.96204,568.5919,292.477,568.3314,292.2345,568.1787C291.98297,568.0171,291.61472,567.81946,291.4261,567.7386C291.2285,567.6488,290.82428,567.4691,290.52786,567.32544C290.23145,567.1817,289.82727,567.02,289.62964,566.95715C289.28833,566.84937,288.77634,566.40027,288.77634,566.20264C288.76736,566.023,287.91406,565.2865,287.51883,565.12476C287.0248,564.9182,286.44098,564.5409,286.44098,564.44214C286.44098,564.3972,286.3601,564.3613,286.26132,564.3613C286.16254,564.3613,286.05475,564.2984,286.02777,564.22656C285.99185,564.15466,285.91998,564.0918,285.8661,564.0918C285.80322,564.0918,285.7044,563.99304,285.6505,563.8673C285.52478,563.5888,284.12357,562.5559,283.0277,561.9361C282.56067,561.6756,282.07562,561.37024,281.9499,561.26245C281.8241,561.1456,281.60855,560.9929,281.45584,560.92114C281.31213,560.84924,281.0696,560.66064,280.9259,560.50793C280.7732,560.3552,280.6115,560.2295,280.55762,560.2295C280.49475,560.2295,280.378,560.1487,280.27917,560.0409C280.18936,559.9331,279.875,559.72644,279.57855,559.58276C279.2552,559.4211,278.73425,559.00793,278.20428,558.4959C277.74622,558.0468,277.22522,557.59766,277.06354,557.4989C276.90186,557.3911,276.4797,556.98694,276.1294,556.5827C275.49167,555.8551,274.95273,555.3791,274.77307,555.3791C274.71918,555.3791,274.6743,555.3162,274.6743,555.2444C274.6743,555.1815,274.6114,555.08264,274.53955,555.0378C274.4587,555.00183,273.99164,554.5707,273.49762,554.0857C272.7162,553.3312,272.5365,553.0886,272.09637,552.2533C271.53052,551.16644,271.5395,551.2383,271.66525,549.04663C271.73712,547.9059,271.7461,547.87897,272.05148,547.4298C272.23114,547.1873,272.5545,546.7202,272.77008,546.39685C272.99463,546.0735,273.3449,545.5885,273.5515,545.31903C274.15332,544.51965,274.7641,543.6214,274.7641,543.5226C274.7641,543.47766,274.88986,543.43274,275.04254,543.43274C275.06213,543.43274,275.08047,543.43317,275.09775,543.4341L275.09497,543.4341Q276.1495,545.504,277.4267,548.2156Q277.84827,549.0614,278.26627,549.8019Q279.39938,551.81036,280.47778,552.9029Q282.49,554.9485,285.14883,554.9485Q285.34088,554.9485,285.5363,554.9378L285.53915,554.9378C285.946,554.95483,286.44012,554.9675,287.06073,554.9839C287.51242,554.99744,287.87125,555.0044,288.16937,555.0044C288.8613,555.0044,289.22614,554.9667,289.6656,554.8851C290.08774,554.7953,290.48297,554.6964,290.52786,554.6605C290.58176,554.6246,290.79733,554.5707,291.0219,554.5437C291.56082,554.48083,292.4321,554.2743,292.51294,554.18445C292.54886,554.14856,292.69257,554.1216,292.8363,554.1216C292.98,554.1216,293.24048,554.0587,293.42014,553.9868C293.59082,553.915,293.87823,553.8521,294.03992,553.8521C294.21057,553.8521,294.3453,553.80725,294.3453,553.7623C294.3453,553.7084,294.4441,553.6725,294.56088,553.6725C294.67764,553.6725,294.82135,553.6096,294.88422,553.5377C294.9471,553.4569,295.1447,553.403,295.3603,553.403C295.73755,553.403,296.77948,553.65454,296.86032,553.77124C296.95013,553.89703,297.60583,554.1216,297.90225,554.1216C298.06393,554.1216,298.22562,554.1575,298.25256,554.2114C298.2795,554.25635,298.41425,554.3013,298.54898,554.3013C299.0879,554.3013,299.19568,554.3821,299.19568,554.78625C299.19568,555.2533,299.47412,555.5587,299.88733,555.5587C300.16577,555.5587,300.27356,555.433,300.27356,555.10065C300.27356,554.9839,300.33643,554.93,300.48016,554.93C300.82147,554.93,300.92926,555.0737,301.0011,555.60364C301.08197,556.2145,301.27057,556.4569,301.67477,556.4569C301.88138,556.4569,301.98016,556.50183,302.0251,556.6276C302.06866,556.7709,302.27634,556.8709,302.45648,556.8709C302.53616,556.8709,302.6105,556.8513,302.66284,556.80725C302.81552,556.6815,302.82452,556.4031,302.68976,556.31323C302.61792,556.27734,302.60895,555.9719,302.65384,555.34314C302.70773,554.4719,302.70773,554.427,302.50116,554.2024C302.29456,553.9779,301.8634,553.10657,301.74664,552.68445C301.68378,552.4419,301.16278,551.60657,300.85742,551.2473C300.74963,551.1215,300.61487,550.8251,300.552,550.5736C300.4981,550.33105,300.42627,550.1155,300.4083,550.09753C300.39032,550.0796,300.18372,550.0167,299.94122,549.95386C299.555,549.85504,299.51007,549.8191,299.48312,549.5676C299.43823,549.0736,299.20468,548.9658,298.0819,548.8939C296.4741,548.8041,295.6028,548.7143,295.6028,548.6514C295.6028,548.6155,295.44113,548.4987,295.24353,548.38196C295.0459,548.2742,294.88422,548.14844,294.88422,548.0945C294.88422,548.0496,294.73154,548.0137,294.53394,548.0137C294.23752,548.0137,294.1477,548.06757,293.9411,548.33704C293.80637,548.5077,293.67163,548.8221,293.6447,549.01965L293.5998,549.38794L292.7375,549.3251C292.2614,549.2981,291.2105,549.24426,290.39313,549.2173C289.31528,549.1814,288.78534,549.1185,288.46198,549.0017C288.21942,548.9209,287.8512,548.8221,287.65356,548.78613C287.45596,548.75024,287.1326,548.6694,286.935,548.6065C286.4769,548.45386,285.7583,548.28314,285.57867,548.28314C285.49783,548.28314,285.2104,548.2203,284.94092,548.1394C284.5727,548.0316,284.411,547.93286,284.30322,547.74426C284.22235,547.60046,284.08765,547.46576,283.9978,547.4478C283.917,547.4209,283.78223,547.25024,283.70142,547.0616C283.62054,546.8729,283.48584,546.63043,283.38702,546.5316C283.29718,546.43286,283.16248,546.1454,283.0816,545.90283C282.88403,545.25616,282.372,543.8549,282.06665,543.0735C281.7343,542.2651,281.40195,541.6543,280.96182,541.0525C280.5307,540.4686,280.4768,540.2081,280.49475,538.8518C280.50372,538.23206,280.4768,537.4237,280.4319,537.0554C280.31512,536.16614,280.09955,534.89966,280.01868,534.6751C279.875,534.2799,279.6953,533.92065,279.6145,533.8667C279.5606,533.8398,279.52466,533.74097,279.52466,533.66016C279.52466,533.5793,279.4618,533.3906,279.38995,533.24695C279.33478,533.1435,279.28488,533.003,279.2647,532.9027L279.2619,532.9027Q279.52368,532.6147,279.83633,532.16644Q280.32742,531.47876,281.28485,529.8181L281.28204,529.8181C281.38947,529.65436,281.48212,529.4979,281.54202,529.37415L281.5392,529.37415Q281.54135,529.3704,281.54352,529.36664L281.54565,529.36664C281.67142,529.10614,282.09357,528.6121,282.20135,528.6121C282.24628,528.6121,282.33612,528.54926,282.399,528.4774C282.46185,528.4055,282.6056,528.34265,282.72235,528.34265C282.8391,528.34265,282.93793,528.2977,282.93793,528.2528C282.93793,528.199,283.07263,528.163,283.2433,528.163C283.40497,528.163,283.59363,528.10016,283.6565,528.0283C283.71936,527.9564,283.81818,527.89355,283.88104,527.89355C284.0517,527.89355,284.5547,527.6241,284.5547,527.52527C284.5547,527.48035,284.60858,527.44446,284.68045,527.44446C284.8152,527.44446,285.3092,526.8067,285.5697,526.32166C285.78528,525.89954,285.99185,525.4055,285.99185,525.2977C285.99185,525.2438,286.02777,525.1271,286.0727,525.03723C286.28827,524.59705,286.414,524.0222,286.3781,523.66296C286.34216,523.35754,286.40503,523.0701,286.64755,522.4144C286.89008,521.7318,286.97092,521.3455,287.0428,520.5102C287.10565,519.6389,287.15955,519.4054,287.32123,519.1808C287.47394,518.9832,287.51883,518.79456,287.51883,518.4443C287.49188,515.67773,287.50986,515.2466,287.65356,515.2017C287.7254,515.1658,287.7883,515.058,287.7883,514.9592C287.7883,514.86035,287.8332,514.77954,287.8871,514.77954C288.00388,514.77954,288.23743,514.555,288.23743,514.43823C288.23743,514.38434,288.3003,514.33044,288.37213,514.2945C288.444,514.2676,288.5069,514.1867,288.5069,514.10583C288.5069,514.03406,288.56076,513.8903,288.61465,513.7915C288.70447,513.6478,288.70447,513.5759,288.61465,513.43225C288.56076,513.3334,288.5069,513.19867,288.5069,513.1178C288.5069,513.046,288.42603,512.94714,288.3272,512.8933C288.22842,512.83936,288.0937,512.6867,288.02185,512.552C287.94998,512.41724,287.7434,512.15674,287.57272,511.9681C287.39307,511.77948,287.24936,511.59085,287.24936,511.53696C287.24936,511.49207,287.1865,511.45615,287.11462,511.45615C287.0338,511.45615,286.8811,511.3663,286.77332,511.24954C286.55774,511.025,286.03677,510.73755,285.83917,510.73755C285.7763,510.73755,285.7224,510.70163,285.7224,510.6657C285.7224,510.6208,285.58765,510.52197,285.43497,510.44113C284.77026,510.12677,284.09662,509.83932,283.98883,509.83932C283.92596,509.83932,283.81818,509.78543,283.76428,509.73154C283.68408,509.65134,282.87946,509.59235,282.20868,509.59235 Z"/> </g> </g> </svg>